<?xml version="1.0" encoding="UTF-8"?>
<svg xmlns="http://www.w3.org/2000/svg" xmlns:xlink="http://www.w3.org/1999/xlink" width="120px" height="137px" viewBox="0 0 70 80" version="1.1">
<g id="surface1">
<path style=" stroke:none;fill-rule:nonzero;fill:rgb(74.901961%,8.627451%,8.627451%);fill-opacity:1;" d="M 69.945312 37.132812 C 69.875 36.578125 69.820312 35.964844 69.699219 35.382812 C 69.578125 34.703125 69.382812 34.066406 69.382812 33.386719 C 69.382812 33.316406 69.453125 33.195312 69.316406 33.140625 C 69.195312 33.140625 69.125 33.207031 69.125 33.332031 C 68.8125 34.011719 68.386719 34.59375 67.796875 35.152344 C 67.609375 35.339844 67.484375 35.464844 67.304688 35.640625 C 67.117188 35.882812 66.992188 35.882812 66.8125 35.707031 C 66.375 35.273438 66.007812 34.90625 65.761719 34.324219 C 65.515625 33.832031 65.390625 33.207031 65.203125 32.691406 C 65.132812 32.625 65.132812 32.503906 65.007812 32.449219 C 64.886719 32.449219 64.886719 32.570312 64.820312 32.636719 C 64.203125 33.492188 63.699219 34.457031 63.425781 35.503906 C 63.300781 35.992188 63.234375 35.992188 62.863281 35.695312 C 62.796875 35.625 62.796875 35.625 62.742188 35.570312 C 62.058594 35.257812 61.5625 34.769531 61.222656 33.996094 C 61.222656 33.929688 61.15625 33.804688 61.03125 33.804688 C 60.910156 33.804688 60.910156 33.875 60.839844 33.996094 C 60.839844 34.066406 60.773438 34.117188 60.773438 34.1875 C 60.457031 34.988281 60.457031 35.816406 60.527344 36.671875 C 60.71875 38.179688 61.386719 39.46875 62.414062 40.542969 C 63.027344 41.222656 63.738281 41.859375 64.421875 42.484375 C 64.613281 42.675781 64.738281 42.851562 64.667969 43.097656 C 64.601562 43.707031 64.601562 44.265625 64.601562 44.917969 C 64.601562 45.105469 64.53125 45.285156 64.351562 45.351562 C 64.230469 45.417969 64.230469 45.472656 64.230469 45.597656 C 63.917969 46.640625 63.179688 47.347656 62.523438 48.21875 C 62.453125 48.339844 62.332031 48.339844 62.207031 48.21875 C 62.085938 48.027344 61.894531 47.851562 61.769531 47.660156 C 61.402344 47.171875 61.210938 46.683594 60.964844 46.085938 C 60.894531 46.015625 60.964844 45.839844 60.773438 45.894531 C 60.648438 45.894531 60.648438 46.015625 60.648438 46.140625 C 60.582031 46.382812 60.527344 46.628906 60.402344 46.816406 C 59.84375 47.675781 59.664062 48.691406 59.597656 49.683594 C 59.472656 50.851562 59.789062 51.925781 60.28125 53.039062 C 60.527344 53.71875 60.527344 53.71875 59.84375 53.71875 C 58.859375 53.71875 57.832031 53.71875 56.835938 53.71875 C 56.464844 53.71875 56.398438 53.71875 56.398438 53.285156 C 56.398438 47.808594 56.398438 42.269531 56.398438 36.753906 C 56.398438 36.441406 56.398438 36.144531 56.519531 35.832031 C 56.710938 35.152344 57.082031 34.714844 57.574219 34.253906 C 57.695312 34.132812 57.765625 34.066406 57.695312 33.941406 C 57.695312 33.875 57.503906 33.875 57.382812 33.875 C 54.742188 33.875 52.050781 33.875 49.355469 33.875 C 49.164062 33.875 49.109375 33.996094 49.164062 34.1875 C 49.234375 34.253906 49.234375 34.308594 49.289062 34.308594 C 50.027344 34.988281 50.410156 35.9375 50.410156 36.929688 C 50.410156 38.628906 50.410156 40.9375 50.410156 42.59375 L 36.257812 28.617188 C 36.378906 28.617188 36.570312 28.617188 36.570312 28.617188 C 37.257812 28.496094 37.898438 28.375 38.582031 28.25 C 39.976562 28.007812 41.34375 27.570312 42.738281 27.136719 C 43.859375 26.703125 44.992188 26.214844 45.992188 25.5625 C 46.304688 25.371094 46.554688 25.128906 46.675781 24.761719 C 47.234375 23.183594 48.125 21.71875 48.875 20.210938 C 49.5625 18.894531 50.273438 17.589844 50.953125 16.273438 C 51.078125 16.082031 51.023438 15.90625 50.832031 15.78125 C 50.515625 15.59375 50.148438 15.46875 49.78125 15.46875 C 48.851562 15.46875 48.015625 15.714844 47.402344 16.394531 C 47.277344 16.515625 47.15625 16.585938 46.964844 16.585938 C 46.226562 16.460938 45.691406 16.773438 45.515625 17.5625 C 45.445312 17.683594 45.445312 17.804688 45.445312 17.929688 C 45.378906 18.296875 45.378906 18.664062 44.953125 18.730469 C 44.515625 18.796875 44.148438 18.851562 43.679688 18.851562 C 43.4375 18.851562 43.121094 18.664062 43.066406 18.484375 C 42.945312 18.171875 43.132812 18.050781 43.382812 17.875 L 43.449219 17.804688 C 44.0625 17.441406 44.1875 16.636719 43.570312 15.988281 C 43.382812 15.796875 43.328125 15.621094 43.328125 15.429688 C 43.328125 14.871094 43.011719 14.453125 42.519531 14.261719 C 41.90625 14.070312 41.398438 14.261719 41.070312 14.75 C 40.878906 14.996094 40.703125 15.238281 40.453125 15.429688 C 40.085938 15.675781 39.960938 15.988281 39.894531 16.476562 C 39.894531 16.789062 40.015625 17.03125 40.140625 17.277344 C 40.332031 17.710938 40.261719 18.011719 39.824219 18.078125 C 38.964844 18.269531 38.0625 18.078125 37.324219 17.589844 C 37.007812 17.398438 36.832031 16.976562 37.007812 16.664062 C 37.199219 16.421875 37.324219 16.175781 37.445312 15.933594 C 37.761719 15.441406 37.816406 14.886719 37.761719 14.300781 C 37.761719 13.691406 37.445312 13.1875 37.078125 12.671875 C 36.953125 12.480469 36.761719 12.359375 36.761719 12.183594 C 36.695312 11.570312 36.449219 11.015625 36.078125 10.484375 C 35.957031 10.363281 35.957031 10.242188 36.078125 10.117188 C 36.515625 9.261719 37.253906 8.734375 38.15625 8.488281 C 39.085938 8.246094 40.113281 8.296875 41.042969 8.488281 C 41.289062 8.558594 41.480469 8.558594 41.726562 8.488281 C 41.917969 8.421875 42.039062 8.367188 42.21875 8.296875 C 42.957031 8.109375 43.734375 7.988281 44.472656 7.863281 C 45.28125 7.742188 46.113281 7.796875 46.921875 8.054688 C 47.660156 8.246094 48.371094 8.542969 49.121094 8.855469 C 49.246094 8.921875 49.367188 8.921875 49.492188 8.921875 C 49.738281 8.855469 49.929688 8.855469 50.175781 8.800781 C 50.667969 8.734375 51.105469 8.609375 51.625 8.679688 C 52.484375 8.871094 53.386719 9.234375 54.195312 9.601562 C 54.8125 9.914062 55.371094 10.214844 55.957031 10.527344 C 56.027344 10.59375 56.148438 10.648438 56.203125 10.527344 C 56.273438 10.457031 56.273438 10.335938 56.203125 10.28125 C 56.136719 10.214844 56.136719 10.160156 56.136719 10.160156 C 55.644531 9.304688 54.863281 8.652344 54.179688 7.972656 C 53.195312 7.117188 52.171875 6.273438 51.050781 5.609375 C 49.382812 4.617188 47.714844 3.667969 45.882812 3.109375 C 45.390625 2.988281 44.898438 2.867188 44.488281 2.5 C 44.367188 2.375 44.242188 2.429688 44.171875 2.621094 C 44.105469 2.742188 44.105469 2.867188 44.105469 2.988281 C 44.105469 3.179688 44.039062 3.300781 43.859375 3.421875 C 43.546875 3.546875 43.296875 3.667969 43 3.789062 C 42.136719 4.101562 41.289062 4.402344 40.359375 4.589844 C 39.742188 4.714844 39.183594 4.902344 38.472656 4.835938 C 38.035156 4.765625 37.664062 4.765625 37.296875 4.523438 C 36.925781 4.277344 36.925781 3.910156 37.296875 3.667969 C 37.789062 3.300781 37.980469 2.867188 37.859375 2.226562 C 37.789062 1.792969 37.488281 1.492188 37.171875 1.25 C 36.804688 0.9375 36.492188 0.570312 36.242188 0.136719 C 36.121094 0.136719 36.054688 0.0117188 35.996094 0.0117188 C 35.875 0.0117188 35.875 0.136719 35.804688 0.257812 C 35.738281 0.691406 35.683594 1.113281 35.617188 1.574219 C 35.546875 2.1875 35.492188 2.253906 34.875 2.253906 C 34.316406 2.253906 34.261719 2.1875 34.195312 1.644531 C 34.125 1.15625 34.070312 0.71875 34 0.203125 C 34 0.136719 33.933594 0.0117188 33.878906 0.0117188 C 33.8125 0.0117188 33.757812 0.0820312 33.6875 0.136719 C 33.617188 0.203125 33.617188 0.257812 33.5625 0.324219 C 33.441406 0.816406 33.070312 1.058594 32.703125 1.371094 C 31.894531 1.984375 31.773438 3.246094 32.703125 3.804688 C 32.894531 3.925781 32.949219 4.046875 32.894531 4.238281 C 32.824219 4.480469 32.648438 4.726562 32.402344 4.792969 C 32.03125 4.726562 31.664062 4.792969 31.28125 4.792969 C 30.597656 4.792969 29.886719 4.605469 29.203125 4.480469 C 28.339844 4.292969 27.4375 3.925781 26.5625 3.625 C 26.125 3.4375 25.878906 3.257812 25.878906 2.769531 C 25.878906 2.527344 25.6875 2.402344 25.511719 2.582031 C 25.195312 2.894531 24.828125 2.949219 24.527344 3.070312 C 22.886719 3.558594 21.398438 4.238281 19.945312 5.132812 C 19.085938 5.691406 18.117188 6.179688 17.308594 6.886719 C 16.816406 7.253906 16.324219 7.6875 15.859375 8.148438 C 15.121094 8.761719 14.464844 9.535156 13.972656 10.335938 C 13.90625 10.402344 13.851562 10.527344 13.90625 10.648438 C 13.972656 10.714844 14.097656 10.648438 14.152344 10.648438 C 14.589844 10.527344 14.957031 10.28125 15.328125 10.039062 C 16.007812 9.726562 16.652344 9.359375 17.335938 9.113281 C 17.828125 8.921875 18.390625 8.746094 18.921875 8.800781 C 19.414062 8.800781 19.90625 8.921875 20.4375 9.046875 C 20.632812 9.113281 20.808594 9.046875 21 8.976562 C 21.683594 8.664062 22.324219 8.421875 23.078125 8.246094 C 23.570312 8.121094 24.0625 8 24.59375 8 C 24.964844 8 25.332031 8.066406 25.714844 8.066406 C 26.578125 8.136719 27.425781 8.3125 28.164062 8.625 C 28.410156 8.691406 28.65625 8.746094 28.902344 8.691406 C 29.460938 8.570312 30.023438 8.503906 30.542969 8.503906 C 31.28125 8.503906 32.058594 8.691406 32.742188 9.058594 C 33.234375 9.371094 33.605469 9.792969 33.863281 10.324219 C 33.933594 10.511719 33.933594 10.636719 33.796875 10.757812 C 33.480469 11.125 33.304688 11.558594 33.234375 12.074219 C 33.167969 12.441406 32.988281 12.753906 32.742188 13.050781 C 32.375 13.488281 32.183594 14.03125 32.183594 14.628906 C 32.183594 15.429688 32.5 16.066406 32.867188 16.746094 C 32.992188 16.9375 33.058594 17.183594 32.9375 17.359375 C 32.8125 17.546875 32.6875 17.726562 32.5 17.847656 C 31.757812 18.335938 30.914062 18.335938 30.050781 18.214844 C 29.804688 18.144531 29.679688 17.902344 29.734375 17.65625 C 29.804688 17.535156 29.859375 17.414062 29.925781 17.289062 C 30.171875 16.734375 30.117188 16.027344 29.613281 15.714844 C 29.242188 15.46875 28.996094 15.105469 28.75 14.792969 C 28.4375 14.355469 27.945312 14.355469 27.425781 14.425781 C 26.863281 14.546875 26.617188 14.859375 26.5625 15.402344 C 26.496094 15.714844 26.496094 15.960938 26.25 16.257812 C 25.878906 16.691406 25.878906 17.113281 26.125 17.644531 C 26.25 17.832031 26.441406 17.957031 26.617188 18.132812 C 26.742188 18.253906 26.933594 18.375 26.863281 18.621094 C 26.796875 18.867188 26.671875 18.988281 26.425781 19.054688 C 26.058594 19.179688 25.6875 19.054688 25.304688 19.054688 C 25.113281 19.054688 24.992188 18.988281 24.8125 18.933594 C 24.621094 18.867188 24.5 18.6875 24.5 18.5 C 24.5 18.308594 24.429688 18.1875 24.429688 18.011719 C 24.308594 17.15625 23.746094 16.625 22.980469 16.84375 C 22.789062 16.910156 22.734375 16.84375 22.613281 16.71875 C 22.367188 16.476562 22.050781 16.230469 21.75 16.109375 C 21.011719 15.742188 20.164062 15.621094 19.371094 15.988281 C 18.878906 16.175781 18.8125 16.296875 19.125 16.71875 C 19.195312 16.84375 19.195312 16.964844 19.25 17.03125 C 19.863281 18.296875 20.574219 19.519531 21.203125 20.78125 C 21.519531 21.390625 21.820312 22.097656 22.132812 22.722656 C 22.503906 23.457031 22.871094 24.230469 23.117188 24.964844 C 23.242188 25.207031 23.363281 25.453125 23.554688 25.644531 C 24.363281 26.324219 25.320312 26.757812 26.316406 27.21875 C 27.765625 27.777344 29.203125 28.195312 30.71875 28.535156 C 31.457031 28.660156 32.304688 28.847656 33.042969 28.972656 C 33.113281 28.972656 33.414062 29.039062 33.660156 29.039062 L 19.398438 43.164062 C 19.398438 41.222656 19.398438 38.859375 19.398438 37.066406 C 19.398438 36.332031 19.648438 35.679688 20.207031 35.246094 C 20.398438 35.125 20.578125 34.933594 20.699219 34.757812 C 20.765625 34.6875 20.820312 34.636719 20.765625 34.511719 C 20.699219 34.390625 20.644531 34.445312 20.578125 34.445312 C 20.507812 34.445312 20.382812 34.445312 20.328125 34.445312 L 12.867188 34.445312 C 12.742188 34.445312 12.617188 34.445312 12.425781 34.445312 C 12.179688 34.445312 12.058594 34.566406 12.234375 34.8125 C 12.359375 34.933594 12.480469 35.054688 12.605469 35.179688 C 13.164062 35.789062 13.464844 36.496094 13.464844 37.296875 C 13.464844 43.667969 13.464844 49.941406 13.464844 56.3125 C 13.464844 56.433594 13.398438 56.558594 13.34375 56.679688 C 13.152344 57.046875 12.851562 57.359375 12.605469 57.65625 C 12.535156 57.726562 12.480469 57.777344 12.535156 57.847656 C 12.605469 57.914062 12.660156 57.914062 12.726562 57.914062 C 12.796875 57.914062 12.917969 57.914062 12.972656 57.914062 C 16.28125 57.914062 19.632812 57.914062 22.886719 57.914062 C 23.5 57.914062 23.816406 57.726562 24.15625 57.234375 C 24.40625 56.746094 24.898438 56.121094 25.277344 55.605469 L 34.875 65.140625 L 50.421875 49.699219 C 50.421875 51.449219 50.421875 53.882812 50.421875 55.605469 C 50.421875 55.917969 50.351562 56.164062 50.230469 56.460938 C 49.984375 57.019531 49.792969 57.195312 49.367188 57.628906 C 49.179688 57.753906 49.300781 57.941406 49.4375 57.941406 C 52.691406 57.941406 56.039062 57.941406 59.28125 57.941406 C 59.402344 57.941406 59.527344 57.875 59.527344 58.011719 C 59.59375 58.132812 59.460938 58.132812 59.40625 58.199219 C 59.035156 58.636719 58.597656 59 58.226562 59.464844 C 57.734375 60.019531 57.175781 60.578125 56.585938 61.09375 C 56.464844 61.214844 56.339844 61.285156 56.273438 61.027344 C 56.203125 60.835938 56.082031 60.78125 55.90625 60.902344 C 55.289062 61.335938 54.507812 61.582031 53.828125 61.882812 C 53.578125 62.003906 53.511719 61.882812 53.578125 61.691406 C 53.648438 61.203125 53.648438 60.714844 53.648438 60.25 C 53.648438 59.816406 53.578125 59.449219 53.402344 58.988281 C 53.28125 58.675781 53.15625 58.675781 52.964844 58.867188 C 52.773438 59.054688 52.59375 59.300781 52.351562 59.546875 C 51.980469 59.910156 51.609375 60.222656 51.171875 60.523438 C 50.679688 60.957031 50.242188 61.378906 49.847656 61.910156 C 49.285156 62.585938 48.863281 63.347656 48.453125 64.148438 C 48.085938 64.949219 47.890625 65.847656 47.890625 66.703125 C 47.890625 67.191406 47.644531 67.4375 47.207031 67.625 C 46.085938 68.183594 44.882812 68.671875 43.640625 69.011719 C 42.957031 69.203125 42.3125 69.378906 41.628906 69.445312 C 41.5625 69.445312 41.4375 69.515625 41.382812 69.378906 C 41.316406 69.3125 41.382812 69.257812 41.453125 69.1875 C 41.820312 68.820312 42.011719 68.332031 42.257812 67.804688 C 42.449219 67.492188 42.503906 67.191406 42.503906 66.824219 C 42.4375 66.023438 42.191406 65.316406 41.699219 64.707031 C 41.507812 64.460938 41.261719 64.273438 40.890625 64.394531 C 39.566406 64.761719 38.445312 65.371094 37.460938 66.335938 C 36.597656 67.136719 35.875 68.15625 35.382812 69.203125 C 35.257812 69.445312 35.136719 69.570312 34.820312 69.515625 C 34.628906 69.445312 34.574219 69.390625 34.507812 69.203125 C 34.136719 68.347656 33.578125 67.503906 32.921875 66.839844 C 31.867188 65.671875 30.542969 64.773438 29.023438 64.351562 C 28.710938 64.230469 28.285156 64.351562 28.09375 64.664062 C 27.902344 64.976562 27.726562 65.277344 27.535156 65.589844 C 27.164062 66.511719 27.21875 67.464844 27.78125 68.332031 C 27.972656 68.578125 28.09375 68.945312 28.339844 69.132812 C 28.410156 69.203125 28.464844 69.257812 28.410156 69.324219 C 28.339844 69.390625 28.285156 69.324219 28.21875 69.324219 C 27.847656 69.257812 27.480469 69.132812 27.097656 69.078125 C 25.511719 68.714844 24.035156 68.15625 22.570312 67.382812 C 22.378906 67.257812 22.132812 67.191406 22.078125 66.949219 C 21.957031 66.582031 21.832031 66.144531 21.832031 65.777344 C 21.765625 65.222656 21.710938 64.734375 21.519531 64.148438 C 20.957031 62.574219 19.933594 61.40625 18.703125 60.277344 C 18.140625 59.789062 17.527344 59.300781 16.992188 58.703125 C 16.679688 58.335938 16.554688 58.335938 16.378906 58.824219 C 16.378906 58.894531 16.308594 58.949219 16.308594 59.070312 C 16.117188 59.871094 16.0625 60.699219 16.242188 61.433594 C 16.308594 61.625 16.242188 61.746094 16.050781 61.625 C 15.367188 61.3125 14.601562 61.066406 13.917969 60.644531 C 13.671875 60.453125 13.546875 60.453125 13.480469 60.835938 C 13.410156 61.027344 13.410156 61.027344 13.234375 60.902344 C 12.863281 60.535156 12.496094 60.222656 12.113281 59.855469 C 11.796875 59.546875 11.550781 59.246094 11.25 58.933594 C 10.566406 58.253906 9.855469 57.492188 9.242188 56.746094 C 8.925781 56.378906 8.625 56.066406 8.378906 55.703125 C 8.257812 55.511719 8.257812 55.390625 8.378906 55.210938 C 8.570312 55.023438 8.695312 54.84375 8.816406 54.65625 C 9.871094 53.148438 10.402344 51.492188 10.210938 49.671875 C 10.144531 49.058594 10.019531 48.351562 9.71875 47.726562 C 9.527344 47.292969 9.226562 46.925781 9.105469 46.410156 C 9.105469 46.289062 9.105469 46.167969 8.914062 46.167969 C 8.789062 46.167969 8.789062 46.355469 8.722656 46.410156 C 8.40625 47.144531 8.105469 47.917969 7.546875 48.53125 C 7.421875 48.652344 7.355469 48.652344 7.230469 48.53125 C 7.109375 48.339844 6.917969 48.164062 6.738281 47.917969 C 6.179688 47.308594 5.753906 46.65625 5.46875 45.855469 C 5.46875 45.785156 5.398438 45.730469 5.398438 45.730469 C 5.03125 45.609375 5.085938 45.296875 5.085938 45.050781 C 5.085938 44.5625 5.085938 44.074219 5.015625 43.476562 C 5.015625 43.285156 5.015625 43.109375 5.140625 42.988281 C 5.878906 42.253906 6.65625 41.546875 7.394531 40.800781 C 8.078125 40.066406 8.515625 39.171875 8.914062 38.246094 C 9.160156 37.445312 9.28125 36.617188 9.226562 35.761719 C 9.160156 35.273438 9.105469 34.839844 8.859375 34.324219 C 8.789062 34.253906 8.789062 34.132812 8.667969 34.132812 C 8.542969 34.132812 8.542969 34.253906 8.476562 34.324219 C 8.285156 34.757812 8.039062 35.179688 7.613281 35.4375 C 7.421875 35.558594 7.175781 35.75 6.929688 35.871094 C 6.492188 36.183594 6.492188 36.183594 6.316406 35.679688 C 6.070312 34.703125 5.578125 33.738281 4.988281 32.9375 C 4.921875 32.816406 4.867188 32.691406 4.742188 32.691406 C 4.621094 32.691406 4.621094 32.882812 4.550781 33.003906 L 4.550781 33.074219 C 4.304688 33.929688 3.992188 34.824219 3.375 35.558594 C 3.183594 35.75 3.0625 35.925781 2.882812 36.046875 C 2.761719 36.117188 2.691406 36.117188 2.636719 36.046875 C 2.324219 35.679688 1.953125 35.3125 1.652344 35 C 1.214844 34.566406 0.96875 34.078125 0.722656 33.5625 C 0.65625 33.492188 0.65625 33.371094 0.53125 33.371094 C 0.410156 33.441406 0.410156 33.492188 0.464844 33.617188 C 0.53125 33.984375 0.464844 34.417969 0.339844 34.785156 C 0.148438 35.640625 -0.0273438 36.605469 -0.0273438 37.460938 C -0.0976562 38.628906 0.0390625 39.769531 0.710938 40.746094 C 1.148438 41.425781 1.640625 42.132812 2.417969 42.5 C 2.910156 42.8125 3.035156 43.300781 3.28125 43.816406 C 3.210938 45.132812 3.347656 46.4375 3.472656 47.6875 C 3.472656 47.808594 3.59375 48 3.472656 48.054688 C 3.347656 48.121094 3.226562 47.933594 3.101562 47.863281 C 2.910156 47.675781 2.734375 47.496094 2.542969 47.308594 C 2.351562 47.183594 2.226562 47.183594 2.171875 47.429688 C 1.925781 48.542969 1.804688 49.738281 1.925781 50.90625 C 2.050781 52.074219 2.609375 53.027344 3.375 53.894531 C 4.058594 54.695312 5.015625 55.210938 6.015625 55.59375 C 6.136719 55.660156 6.328125 55.714844 6.382812 55.78125 C 6.945312 56.515625 7.558594 57.222656 8.148438 57.902344 C 8.886719 58.824219 9.664062 59.652344 10.472656 60.523438 C 10.785156 60.835938 11.085938 61.132812 11.332031 61.445312 C 11.824219 62.003906 12.386719 62.558594 12.972656 63.078125 C 13.21875 63.320312 13.535156 63.511719 13.589844 63.878906 C 13.78125 64.800781 14.328125 65.507812 15.039062 66.117188 C 15.105469 66.1875 15.285156 66.242188 15.230469 66.363281 C 15.175781 66.484375 15.039062 66.484375 14.914062 66.484375 C 14.421875 66.609375 13.984375 66.730469 13.519531 66.972656 C 13.082031 67.21875 12.660156 67.410156 12.25 67.707031 C 12.058594 67.898438 12.058594 67.953125 12.316406 68.019531 C 12.753906 68.144531 13.179688 68.265625 13.589844 68.453125 C 14.519531 68.890625 15.476562 69.3125 16.527344 69.625 C 17.335938 69.867188 18.113281 69.933594 18.976562 69.746094 C 19.78125 69.554688 20.5625 69.3125 21.300781 69.011719 C 21.421875 68.945312 21.546875 68.890625 21.613281 68.945312 C 22.105469 69.1875 22.597656 69.378906 23.132812 69.554688 C 23.871094 69.867188 24.71875 70.167969 25.457031 70.410156 C 26.386719 70.722656 27.410156 70.96875 28.394531 71.144531 C 29.132812 71.265625 29.914062 71.457031 30.652344 71.511719 C 30.964844 71.578125 31.265625 71.441406 31.582031 71.632812 C 31.949219 71.824219 32.320312 71.945312 32.703125 72 C 32.949219 72.066406 32.894531 72.121094 32.769531 72.3125 C 32.210938 72.871094 31.5 73.289062 30.816406 73.628906 C 29.640625 74.1875 28.3125 74.429688 26.972656 74.609375 C 26.042969 74.730469 25.140625 74.921875 24.210938 74.972656 C 24.144531 74.972656 24.089844 75.042969 24.089844 75.097656 C 24.089844 75.152344 24.15625 75.164062 24.15625 75.21875 C 24.347656 75.410156 24.59375 75.410156 24.839844 75.53125 C 25.648438 75.84375 26.550781 76.089844 27.410156 76.144531 C 27.480469 76.144531 27.601562 76.144531 27.65625 76.210938 C 27.65625 76.277344 27.589844 76.332031 27.535156 76.402344 C 27.042969 77.078125 26.550781 77.785156 26.210938 78.585938 C 26.085938 78.953125 25.960938 79.265625 25.960938 79.632812 C 25.960938 79.878906 26.085938 79.945312 26.277344 79.824219 C 26.59375 79.632812 26.835938 79.511719 27.140625 79.335938 C 28 78.777344 28.902344 78.222656 29.710938 77.515625 C 30.449219 76.957031 31.226562 76.347656 31.910156 75.695312 C 32.347656 75.328125 32.839844 74.894531 33.304688 74.429688 C 33.671875 74.066406 34.109375 73.699219 34.578125 73.316406 C 34.699219 73.195312 34.765625 73.25 34.820312 73.316406 C 35.4375 73.875 36.09375 74.429688 36.710938 75.015625 C 37.269531 75.503906 37.828125 75.992188 38.472656 76.523438 C 39.03125 76.957031 39.648438 77.378906 40.234375 77.839844 C 40.917969 78.398438 41.628906 78.816406 42.3125 79.28125 C 42.628906 79.46875 42.929688 79.648438 43.242188 79.835938 C 43.3125 79.90625 43.433594 79.960938 43.558594 79.835938 C 43.625 79.769531 43.625 79.714844 43.625 79.59375 C 43.558594 78.980469 43.3125 78.425781 43.011719 77.894531 C 42.695312 77.40625 42.394531 76.917969 42.027344 76.386719 C 41.90625 76.265625 41.90625 76.144531 42.148438 76.144531 C 42.585938 76.144531 42.957031 76.019531 43.421875 75.898438 C 44.105469 75.707031 44.746094 75.53125 45.375 75.21875 C 45.445312 75.152344 45.566406 75.152344 45.566406 75.027344 C 45.566406 74.90625 45.445312 74.90625 45.320312 74.90625 C 44.953125 74.839844 44.515625 74.785156 44.144531 74.714844 C 43.09375 74.527344 42.011719 74.402344 40.960938 74.160156 C 39.566406 73.847656 38.320312 73.304688 37.1875 72.40625 C 37.0625 72.285156 36.871094 72.21875 36.871094 72.039062 C 36.871094 71.851562 37.117188 71.851562 37.308594 71.796875 C 37.679688 71.675781 37.992188 71.484375 38.363281 71.429688 C 38.921875 71.363281 39.484375 71.363281 40.070312 71.238281 C 41.519531 70.996094 43.011719 70.683594 44.40625 70.195312 C 45.675781 69.757812 46.90625 69.269531 48.179688 68.753906 C 48.300781 68.6875 48.371094 68.6875 48.492188 68.753906 C 48.984375 68.945312 49.476562 69.121094 50.011719 69.242188 C 50.75 69.433594 51.460938 69.609375 52.210938 69.554688 C 53.074219 69.433594 53.976562 69.1875 54.78125 68.875 C 55.644531 68.507812 56.492188 68.074219 57.421875 67.832031 C 57.542969 67.832031 57.734375 67.832031 57.734375 67.640625 C 57.734375 67.519531 57.613281 67.394531 57.488281 67.328125 C 56.75 66.894531 55.902344 66.402344 55.042969 66.214844 C 54.921875 66.214844 54.796875 66.214844 54.796875 66.089844 C 54.796875 65.96875 54.863281 65.902344 54.988281 65.847656 C 55.726562 65.234375 56.257812 64.40625 56.503906 63.484375 C 56.574219 63.292969 56.628906 63.171875 56.75 63.050781 C 57 62.859375 57.242188 62.613281 57.488281 62.371094 C 57.859375 62.003906 58.296875 61.570312 58.664062 61.203125 C 59.226562 60.589844 59.84375 59.9375 60.429688 59.257812 C 61.414062 58.144531 62.382812 56.949219 63.3125 55.851562 C 63.628906 55.414062 63.996094 55.171875 64.492188 55.050781 C 64.734375 54.980469 64.984375 54.859375 65.171875 54.738281 C 65.914062 54.300781 66.570312 53.8125 67.0625 53.105469 C 67.5 52.496094 67.867188 51.84375 67.992188 51.109375 C 68.179688 50.308594 68.113281 49.480469 68.058594 48.746094 C 67.992188 48.257812 67.9375 47.703125 67.8125 47.171875 C 67.742188 46.925781 67.6875 46.925781 67.5 47.050781 C 67.304688 47.238281 67.0625 47.414062 66.882812 47.605469 C 66.757812 47.675781 66.691406 47.851562 66.570312 47.796875 C 66.445312 47.726562 66.5 47.550781 66.5 47.429688 C 66.625 46.695312 66.691406 45.921875 66.691406 45.242188 C 66.691406 44.753906 66.691406 44.195312 66.691406 43.667969 C 66.691406 43.546875 66.691406 43.355469 66.8125 43.234375 C 66.9375 43.042969 67.058594 42.796875 67.183594 42.621094 C 67.25 42.5 67.304688 42.429688 67.429688 42.375 C 67.992188 42.132812 68.414062 41.699219 68.878906 41.207031 C 69.316406 40.652344 69.683594 40.039062 69.808594 39.335938 C 69.945312 38.640625 70.070312 37.882812 69.945312 37.132812 Z M 49.53125 7.851562 C 49.726562 7.363281 50.09375 7.238281 50.515625 7.238281 C 51.203125 7.171875 51.84375 7.429688 52.472656 7.675781 C 53.210938 7.988281 53.867188 8.476562 54.484375 9.058594 C 54.605469 9.183594 54.726562 9.371094 54.851562 9.492188 C 54.289062 9.304688 53.796875 8.9375 53.210938 8.761719 C 52.472656 8.515625 51.761719 8.203125 50.953125 8.203125 C 50.585938 8.203125 50.21875 8.273438 49.835938 8.394531 C 49.640625 8.460938 49.464844 8.515625 49.34375 8.394531 C 49.289062 8.148438 49.476562 8.027344 49.53125 7.851562 Z M 42.136719 7.539062 C 42.628906 6.371094 43.3125 5.417969 44.515625 4.863281 C 45.128906 4.550781 45.910156 4.617188 46.46875 5.175781 C 47.332031 6.03125 48.234375 6.996094 48.847656 8.09375 C 48.917969 8.164062 48.917969 8.21875 48.972656 8.285156 C 48.042969 7.851562 47.140625 7.550781 46.15625 7.429688 C 45.664062 7.363281 45.171875 7.363281 44.636719 7.363281 C 43.832031 7.363281 43.050781 7.605469 42.3125 7.726562 C 42.015625 7.726562 42.070312 7.660156 42.136719 7.539062 Z M 36.382812 8.53125 C 36.628906 7.675781 36.628906 6.710938 36.695312 5.785156 C 36.695312 5.597656 36.765625 5.472656 37.011719 5.542969 C 37.941406 5.785156 38.773438 6.222656 39.582031 6.710938 C 40.019531 6.953125 40.386719 7.199219 40.757812 7.566406 C 40.824219 7.632812 40.949219 7.6875 40.949219 7.878906 C 39.894531 7.753906 38.816406 7.753906 37.761719 7.945312 C 37.394531 8.011719 37.078125 8.257812 36.710938 8.433594 C 36.640625 8.503906 36.585938 8.558594 36.519531 8.558594 C 36.449219 8.558594 36.394531 8.625 36.394531 8.558594 C 36.382812 8.585938 36.382812 8.53125 36.382812 8.53125 Z M 20.207031 8.339844 C 19.769531 8.21875 19.277344 8.148438 18.8125 8.09375 C 18.621094 8.09375 18.5 8.09375 18.375 8.09375 C 17.390625 8.339844 16.421875 8.652344 15.558594 9.140625 C 15.4375 9.207031 15.367188 9.261719 15.191406 9.332031 C 15.257812 9.019531 15.503906 8.894531 15.628906 8.71875 C 15.875 8.476562 16.1875 8.230469 16.488281 8.039062 C 17.171875 7.675781 17.882812 7.363281 18.621094 7.183594 C 19.113281 7.117188 19.675781 7.117188 20.140625 7.496094 C 20.332031 7.6875 20.386719 7.863281 20.453125 8.109375 C 20.453125 8.273438 20.398438 8.339844 20.207031 8.339844 Z M 27.742188 7.726562 C 27.671875 7.796875 27.425781 7.726562 27.25 7.660156 C 26.441406 7.46875 25.609375 7.292969 24.746094 7.347656 C 23.695312 7.347656 22.667969 7.539062 21.683594 7.960938 C 21.492188 8.082031 21.246094 8.148438 20.945312 8.203125 C 21.4375 7.402344 21.929688 6.628906 22.585938 6.015625 C 22.953125 5.648438 23.269531 5.214844 23.707031 4.902344 C 24.265625 4.535156 24.828125 4.535156 25.414062 4.78125 C 26.46875 5.269531 27.125 6.167969 27.617188 7.089844 C 27.671875 7.347656 27.796875 7.539062 27.742188 7.726562 Z M 33.375 8.679688 C 33.25 8.746094 33.125 8.558594 33.003906 8.433594 C 32.445312 8.121094 31.828125 7.945312 31.117188 7.878906 C 30.378906 7.808594 29.667969 7.878906 28.859375 7.878906 C 29.230469 7.390625 29.667969 7.078125 30.132812 6.832031 C 30.695312 6.464844 31.308594 6.222656 31.964844 5.910156 C 32.210938 5.785156 32.523438 5.71875 32.828125 5.597656 C 33.019531 5.527344 33.140625 5.597656 33.140625 5.839844 C 33.140625 6.640625 33.265625 7.46875 33.386719 8.203125 C 33.375 8.339844 33.550781 8.53125 33.375 8.679688 Z M 17.296875 46.058594 L 20.917969 42.457031 L 20.917969 49.683594 Z M 21.695312 53.839844 C 21.082031 53.839844 20.425781 53.839844 19.742188 53.839844 C 19.496094 53.839844 19.375 53.71875 19.375 53.472656 C 19.375 52.304688 19.375 50.609375 19.375 49.34375 L 20.890625 50.851562 L 23.828125 53.773438 C 23.214844 53.839844 22.257812 53.839844 21.695312 53.839844 Z M 22.53125 21.445312 C 22.164062 20.835938 21.914062 20.183594 21.601562 19.570312 C 21.109375 18.648438 20.617188 17.699219 20.085938 16.707031 C 20.015625 16.636719 19.960938 16.515625 19.960938 16.394531 C 19.960938 16.273438 20.03125 16.203125 20.152344 16.148438 C 20.835938 16.027344 21.859375 16.515625 22.230469 17.128906 C 22.351562 17.316406 22.476562 17.441406 22.722656 17.25 C 23.039062 17.058594 23.40625 17.183594 23.53125 17.5625 C 23.597656 17.683594 23.597656 17.875 23.652344 17.996094 C 23.652344 18.554688 23.96875 18.972656 24.460938 19.164062 C 25.019531 19.355469 25.578125 19.476562 26.222656 19.476562 C 26.835938 19.410156 27.207031 19.109375 27.496094 18.621094 C 27.6875 18.253906 27.6875 17.820312 27.425781 17.453125 C 27.304688 17.261719 27.179688 17.207031 27.058594 17.085938 C 26.742188 16.773438 26.742188 16.53125 27.058594 16.230469 C 27.25 16.109375 27.304688 15.917969 27.25 15.742188 C 27.25 15.675781 27.25 15.550781 27.25 15.496094 C 27.25 15.253906 27.371094 15.0625 27.617188 15.007812 C 27.988281 14.941406 28.234375 15.078125 28.355469 15.320312 C 28.480469 15.566406 28.601562 15.808594 28.917969 15.933594 C 29.230469 16.121094 29.285156 16.421875 29.164062 16.734375 C 29.039062 17.101562 28.917969 17.414062 28.917969 17.777344 C 28.917969 18.089844 29.039062 18.269531 29.230469 18.457031 C 29.476562 18.648438 29.792969 18.769531 30.160156 18.769531 C 30.53125 18.769531 30.898438 18.839844 31.335938 18.769531 C 32.074219 18.582031 32.855469 18.402344 33.414062 17.792969 C 33.78125 17.359375 33.976562 16.351562 33.414062 15.726562 C 32.800781 14.996094 32.675781 13.855469 33.414062 13.105469 C 33.78125 12.742188 33.851562 12.25 34.03125 11.722656 C 34.152344 11.410156 34.277344 11.042969 34.644531 10.867188 C 34.890625 10.742188 35.136719 10.796875 35.328125 10.988281 C 35.644531 11.300781 35.820312 11.722656 35.890625 12.101562 C 35.957031 12.535156 36.136719 12.835938 36.449219 13.148438 C 37.1875 13.949219 37.011719 15.023438 36.382812 15.769531 C 36.066406 16.136719 36.011719 16.570312 36.136719 17.085938 C 36.328125 17.820312 36.820312 18.253906 37.585938 18.527344 C 38.144531 18.714844 38.636719 18.894531 39.171875 18.839844 C 39.609375 18.839844 39.976562 18.769531 40.347656 18.648438 C 41.03125 18.335938 41.085938 17.914062 40.90625 17.207031 C 40.839844 17.085938 40.785156 16.964844 40.714844 16.773438 C 40.59375 16.40625 40.714844 16.039062 41.085938 15.851562 C 41.277344 15.726562 41.398438 15.605469 41.453125 15.414062 C 41.578125 14.980469 41.890625 14.859375 42.261719 14.980469 C 42.574219 15.050781 42.574219 15.347656 42.574219 15.59375 C 42.574219 15.90625 42.574219 16.148438 42.890625 16.324219 C 43.136719 16.515625 43.082031 16.816406 42.890625 17.058594 C 42.820312 17.128906 42.765625 17.25 42.644531 17.304688 C 42.027344 17.792969 42.152344 18.621094 42.644531 19.179688 C 43.082031 19.613281 43.574219 19.734375 44.230469 19.667969 C 44.667969 19.597656 45.089844 19.546875 45.5 19.355469 C 45.9375 19.234375 46.238281 18.742188 46.238281 18.308594 C 46.238281 18.066406 46.308594 17.875 46.363281 17.699219 C 46.484375 17.386719 46.855469 17.261719 47.101562 17.386719 C 47.46875 17.507812 47.46875 17.507812 47.714844 17.261719 C 48.207031 16.652344 48.835938 16.339844 49.601562 16.339844 C 49.917969 16.339844 50.039062 16.460938 49.847656 16.707031 C 49.289062 17.683594 48.796875 18.769531 48.207031 19.75 C 47.894531 20.304688 47.648438 20.917969 47.347656 21.5 C 47.222656 21.691406 47.15625 21.691406 46.976562 21.570312 C 46.484375 21.132812 45.855469 20.890625 45.214844 20.714844 C 44.230469 20.402344 43.257812 20.15625 42.273438 19.910156 C 41.222656 19.667969 40.074219 19.546875 39.019531 19.355469 C 37.96875 19.234375 36.820312 19.164062 35.710938 19.109375 C 34.90625 19.042969 34.003906 19.109375 33.210938 19.109375 C 32.035156 19.179688 30.832031 19.300781 29.640625 19.476562 C 28.589844 19.667969 27.441406 19.84375 26.386719 20.089844 C 25.527344 20.332031 24.625 20.523438 23.816406 20.890625 C 23.503906 21.078125 23.132812 21.203125 22.886719 21.5 C 22.722656 21.691406 22.601562 21.636719 22.53125 21.445312 Z M 23.585938 23.933594 C 23.390625 23.441406 23.214844 22.953125 23.023438 22.425781 C 22.953125 22.234375 23.148438 22.113281 23.269531 21.988281 C 23.460938 21.800781 23.707031 21.675781 24.007812 21.554688 C 25.648438 20.945312 27.382812 20.578125 29.09375 20.167969 C 30.148438 19.980469 31.296875 19.925781 32.402344 19.734375 C 32.960938 19.667969 33.453125 19.613281 33.988281 19.667969 C 34.796875 19.667969 35.628906 19.667969 36.367188 19.667969 C 37.050781 19.734375 37.761719 19.734375 38.5 19.855469 C 39.0625 19.925781 39.621094 19.980469 40.210938 20.046875 C 41.015625 20.167969 41.851562 20.359375 42.710938 20.535156 C 43.832031 20.78125 44.96875 21.148438 46.019531 21.515625 C 46.265625 21.636719 46.511719 21.828125 46.757812 21.949219 C 46.949219 22.070312 47.003906 22.316406 46.882812 22.507812 C 46.6875 22.871094 46.566406 23.238281 46.445312 23.621094 C 46.320312 23.988281 46.195312 24.054688 45.828125 23.863281 C 45.265625 23.496094 44.554688 23.375 43.941406 23.183594 C 43.011719 22.941406 42.054688 22.695312 41.125 22.574219 C 40.140625 22.382812 39.167969 22.261719 38.183594 22.140625 C 37.445312 22.015625 36.597656 21.949219 35.859375 21.894531 C 35.175781 21.894531 34.464844 21.828125 33.78125 21.894531 C 33.34375 21.960938 32.976562 22.015625 32.511719 22.015625 C 32.019531 22.015625 31.527344 22.140625 30.992188 22.207031 C 30.132812 22.273438 29.285156 22.453125 28.421875 22.640625 C 27.4375 22.832031 26.414062 23.078125 25.414062 23.320312 C 24.921875 23.441406 24.429688 23.632812 24.019531 23.933594 C 23.773438 24.246094 23.652344 24.121094 23.585938 23.933594 Z M 30.488281 23.347656 C 29.875 23.46875 29.3125 23.46875 28.65625 23.59375 C 28.164062 23.714844 27.671875 23.78125 27.140625 23.90625 C 26.648438 24.027344 26.210938 24.09375 25.6875 24.273438 C 25.445312 24.339844 25.253906 24.460938 25.007812 24.515625 C 24.636719 24.636719 24.570312 25.003906 24.8125 25.316406 C 24.882812 25.386719 24.882812 25.386719 24.9375 25.441406 C 24.8125 25.507812 24.691406 25.441406 24.625 25.371094 C 24.429688 25.304688 24.308594 25.183594 24.1875 25.058594 C 23.871094 24.816406 23.9375 24.570312 24.253906 24.378906 C 24.8125 24.066406 25.527344 23.890625 26.140625 23.703125 C 26.949219 23.511719 27.78125 23.335938 28.589844 23.210938 C 29.519531 23.023438 30.476562 22.898438 31.40625 22.777344 C 32.390625 22.65625 33.359375 22.585938 34.34375 22.53125 C 35.328125 22.480469 36.355469 22.53125 37.351562 22.65625 C 38.871094 22.777344 40.414062 22.96875 41.933594 23.335938 C 43.054688 23.578125 44.1875 23.824219 45.308594 24.257812 C 45.554688 24.378906 45.800781 24.449219 45.925781 24.691406 C 45.925781 24.761719 45.992188 24.816406 45.925781 24.882812 C 45.800781 25.128906 45.242188 25.441406 44.941406 25.441406 C 45.007812 25.371094 45.0625 25.316406 45.132812 25.25 C 45.378906 24.9375 45.253906 24.636719 44.882812 24.515625 C 43.898438 24.148438 42.875 23.960938 41.875 23.714844 C 40.757812 23.46875 39.621094 23.28125 38.445312 23.15625 C 37.269531 23.035156 36 22.914062 34.820312 22.96875 C 33.25 23.105469 31.855469 23.105469 30.488281 23.347656 Z M 28.914062 57.574219 L 25.019531 53.703125 L 25.019531 38.371094 L 28.914062 34.5 Z M 36.875 61.636719 L 34.917969 63.566406 L 32.960938 61.625 L 32.960938 30.398438 L 34.917969 28.453125 L 36.875 30.398438 Z M 44.859375 53.71875 L 40.960938 57.589844 L 40.960938 34.554688 L 44.859375 38.425781 Z M 48.984375 49.65625 L 48.984375 42.429688 L 52.609375 46.03125 Z M 2.3125 37.378906 C 2.1875 37.8125 2.117188 38.300781 2.117188 38.765625 C 2.117188 38.832031 2.117188 38.886719 2.050781 39.007812 C 1.859375 38.765625 1.804688 38.519531 1.804688 38.207031 C 1.734375 37.71875 1.679688 37.160156 1.558594 36.632812 C 1.558594 36.507812 1.488281 36.386719 1.433594 36.320312 C 1.433594 36.25 1.367188 36.195312 1.3125 36.195312 C 1.257812 36.195312 1.1875 36.320312 1.242188 36.386719 C 1.367188 36.820312 1.367188 37.3125 1.433594 37.828125 C 1.433594 37.894531 1.503906 37.949219 1.433594 38.015625 C 1.3125 38.871094 1.503906 39.769531 1.75 40.570312 C 1.433594 40.324219 1.257812 40.011719 1.132812 39.714844 C 0.820312 38.980469 0.574219 38.152344 0.695312 37.351562 C 0.765625 36.671875 0.765625 36.035156 0.941406 35.410156 C 0.941406 35.285156 1.011719 35.164062 1.132812 35.097656 C 1.257812 35.097656 1.328125 35.21875 1.382812 35.285156 C 1.570312 35.53125 1.820312 35.722656 1.996094 35.898438 C 2.242188 36.332031 2.554688 36.765625 2.3125 37.378906 Z M 6.699219 39.566406 C 7.191406 39.128906 7.507812 38.585938 7.820312 37.988281 C 7.945312 37.675781 8.066406 37.378906 8.132812 37.066406 C 8.132812 37 8.203125 36.875 8.066406 36.875 C 7.945312 36.808594 7.945312 36.945312 7.875 37 C 7.628906 37.433594 7.382812 37.855469 7.015625 38.167969 C 6.945312 38.234375 6.890625 38.289062 6.824219 38.234375 C 6.753906 38.167969 6.753906 38.113281 6.753906 37.988281 C 6.824219 37.800781 6.753906 37.554688 6.753906 37.378906 C 6.753906 36.890625 7 36.578125 7.371094 36.332031 C 7.683594 36.089844 8.054688 35.898438 8.355469 35.652344 C 8.546875 35.53125 8.667969 35.585938 8.667969 35.84375 C 8.734375 36.699219 8.476562 37.542969 8.109375 38.328125 C 7.792969 39.007812 7.371094 39.714844 6.78125 40.203125 C 6.589844 40.394531 6.414062 40.515625 6.222656 40.636719 L 6.152344 40.570312 C 6.453125 40.246094 6.398438 39.808594 6.699219 39.566406 Z M 3.515625 42.1875 L 3.445312 42.1875 C 3.199219 41.820312 3.078125 41.453125 2.953125 41.019531 C 2.636719 39.851562 2.828125 38.585938 3.074219 37.417969 C 3.199219 36.929688 3.511719 36.617188 3.757812 36.25 C 4.25 35.640625 4.742188 34.933594 5.085938 34.132812 C 5.453125 34.5 5.578125 34.933594 5.699219 35.300781 C 6.070312 36.15625 6.140625 37.050781 6.070312 37.921875 C 6 38.96875 5.757812 40.039062 5.332031 41.03125 C 5.140625 41.398438 4.960938 41.765625 4.71875 42.078125 C 4.59375 42.269531 4.46875 42.199219 4.347656 42.011719 C 4.15625 41.519531 4.101562 41.03125 4.226562 40.433594 C 4.417969 39.457031 4.59375 38.492188 4.839844 37.515625 C 4.910156 37.203125 4.839844 36.902344 4.839844 36.589844 C 4.839844 36.523438 4.839844 36.46875 4.71875 36.402344 C 4.648438 36.402344 4.648438 36.46875 4.648438 36.523438 C 4.527344 37.570312 4.089844 38.585938 3.789062 39.566406 C 3.664062 40.054688 3.472656 40.609375 3.472656 41.195312 C 3.445312 41.574219 3.515625 41.875 3.515625 42.1875 Z M 5.003906 53.976562 C 4.9375 54.042969 4.882812 53.976562 4.8125 53.976562 C 4.5 53.785156 4.25 53.609375 4.074219 53.363281 C 3.335938 52.632812 2.679688 51.789062 2.558594 50.8125 C 2.433594 50.199219 2.433594 49.546875 2.558594 48.9375 C 2.558594 48.816406 2.558594 48.691406 2.625 48.570312 C 2.695312 48.378906 2.816406 48.324219 2.941406 48.449219 C 3.253906 48.816406 3.5 49.183594 3.800781 49.5625 C 3.925781 49.753906 3.925781 49.929688 3.925781 50.117188 C 3.925781 50.429688 4.046875 50.730469 3.992188 51.097656 C 3.679688 50.730469 3.554688 50.296875 3.378906 49.929688 C 3.308594 49.804688 3.308594 49.492188 3.132812 49.5625 C 2.941406 49.5625 3.007812 49.804688 3.007812 49.996094 C 3.078125 50.972656 3.378906 51.871094 3.992188 52.671875 C 4.308594 53.105469 4.609375 53.527344 4.976562 53.933594 C 5.003906 53.910156 5.003906 53.910156 5.003906 53.976562 Z M 7.203125 53.71875 C 7.136719 53.910156 7.136719 54.152344 6.960938 54.207031 C 6.78125 54.261719 6.714844 53.960938 6.644531 53.839844 C 6.453125 53.472656 6.332031 53.039062 6.277344 52.671875 C 6.152344 51.695312 6.152344 50.730469 6.152344 49.753906 C 6.152344 49.441406 6.03125 49.140625 5.960938 48.828125 C 5.960938 48.761719 5.894531 48.585938 5.769531 48.636719 C 5.648438 48.636719 5.648438 48.828125 5.703125 48.882812 C 5.824219 49.617188 5.703125 50.390625 5.769531 51.125 C 5.769531 51.492188 5.703125 51.925781 5.703125 52.292969 C 5.703125 52.660156 5.769531 53.027344 5.769531 53.40625 C 5.769531 53.472656 5.839844 53.527344 5.769531 53.597656 C 5.703125 53.597656 5.648438 53.527344 5.648438 53.472656 C 5.402344 53.230469 5.277344 52.917969 5.15625 52.617188 C 4.839844 51.761719 4.59375 50.867188 4.59375 49.941406 C 4.664062 49.140625 4.71875 48.246094 5.15625 47.511719 C 5.222656 47.390625 5.277344 47.199219 5.347656 47.078125 C 5.539062 46.832031 5.660156 46.832031 5.785156 47.078125 C 5.90625 47.320312 6.097656 47.511719 6.222656 47.753906 C 6.535156 48.191406 6.90625 48.609375 7.152344 49.140625 C 7.464844 49.820312 7.644531 50.527344 7.644531 50.894531 C 7.507812 52.035156 7.453125 52.890625 7.203125 53.71875 Z M 7.914062 54.273438 C 7.792969 54.207031 7.847656 54.085938 7.847656 54.03125 C 7.96875 53.472656 8.21875 53.050781 8.53125 52.589844 C 9.09375 51.613281 9.460938 50.472656 9.214844 49.304688 C 9.214844 49.113281 9.148438 48.9375 9.148438 48.816406 C 9.148438 48.746094 9.078125 48.691406 9.023438 48.691406 C 8.96875 48.691406 8.953125 48.816406 8.953125 48.882812 C 8.953125 49.128906 8.953125 49.441406 8.953125 49.683594 C 8.953125 50.242188 8.832031 50.796875 8.585938 51.3125 C 8.585938 51.382812 8.515625 51.503906 8.394531 51.503906 C 8.273438 51.503906 8.273438 51.382812 8.273438 51.3125 C 8.203125 50.703125 8.148438 50.050781 7.902344 49.492188 C 7.835938 49.371094 7.902344 49.304688 7.96875 49.183594 C 8.339844 48.691406 8.65625 48.203125 8.953125 47.605469 C 8.953125 47.539062 9.023438 47.484375 9.078125 47.484375 C 9.132812 47.484375 9.203125 47.605469 9.203125 47.675781 C 9.570312 48.476562 9.816406 49.371094 9.761719 50.226562 C 9.695312 51.394531 9.449219 52.589844 8.777344 53.582031 C 8.585938 53.828125 8.339844 54.070312 8.164062 54.316406 C 8.09375 54.273438 8.039062 54.34375 7.914062 54.273438 Z M 19.125 68.863281 C 18.074219 69.296875 16.925781 69.175781 15.941406 68.742188 C 15.203125 68.429688 14.425781 68.0625 13.6875 67.761719 C 13.492188 67.695312 13.617188 67.570312 13.6875 67.570312 C 13.929688 67.449219 14.179688 67.328125 14.371094 67.207031 C 14.859375 67.015625 15.355469 66.894531 15.953125 66.839844 C 16.203125 66.839844 16.390625 66.90625 16.570312 67.027344 C 17.253906 67.273438 17.964844 67.519531 18.648438 67.761719 C 18.71875 67.832031 18.839844 67.832031 18.894531 67.953125 C 18.210938 68.019531 17.570312 67.882812 16.886719 67.761719 C 16.148438 67.570312 15.367188 67.519531 14.5625 67.570312 C 14.492188 67.570312 14.371094 67.570312 14.371094 67.695312 C 14.371094 67.816406 14.492188 67.816406 14.5625 67.816406 C 15.121094 67.816406 15.738281 67.9375 16.324219 68.0625 C 16.761719 68.183594 17.1875 68.304688 17.652344 68.429688 C 18.144531 68.550781 18.632812 68.671875 19.167969 68.742188 C 19.238281 68.742188 19.359375 68.808594 19.414062 68.808594 C 19.375 68.863281 19.25 68.863281 19.125 68.863281 Z M 15.558594 63.566406 C 15.679688 63.6875 15.875 63.753906 15.996094 63.808594 C 16.488281 64.121094 16.925781 64.488281 17.390625 64.921875 C 18.074219 65.601562 18.785156 66.308594 19.523438 66.921875 C 19.59375 66.988281 19.648438 66.988281 19.648438 67.109375 C 19.332031 67.042969 19.03125 66.988281 18.71875 66.921875 C 17.664062 66.554688 16.640625 66.1875 15.710938 65.601562 C 14.902344 65.113281 14.4375 64.339844 14.125 63.414062 C 13.929688 62.859375 14.054688 62.300781 14.054688 61.71875 C 14.054688 61.40625 14.179688 61.351562 14.425781 61.472656 C 15.164062 61.71875 15.941406 62.03125 16.625 62.453125 C 17.609375 63.007812 18.511719 63.835938 19.265625 64.636719 C 19.757812 65.128906 20.125 65.683594 20.535156 66.269531 C 20.605469 66.335938 20.605469 66.457031 20.660156 66.582031 C 19.851562 66.457031 19.265625 66.023438 18.703125 65.601562 C 18.265625 65.289062 17.898438 64.921875 17.527344 64.558594 C 17.035156 64.066406 16.40625 63.703125 15.695312 63.390625 C 15.628906 63.390625 15.628906 63.320312 15.574219 63.320312 C 15.519531 63.320312 15.449219 63.320312 15.382812 63.390625 C 15.4375 63.441406 15.503906 63.511719 15.558594 63.566406 Z M 21.507812 65.628906 C 21.4375 65.628906 21.382812 65.5625 21.382812 65.507812 C 21.136719 65.074219 21.015625 64.652344 20.765625 64.246094 C 20.453125 63.753906 20.085938 63.265625 19.648438 62.804688 C 19.085938 62.316406 18.59375 61.757812 18.0625 61.175781 C 17.992188 61.105469 17.9375 60.984375 17.871094 61.050781 C 17.746094 61.121094 17.800781 61.242188 17.800781 61.296875 C 17.992188 61.785156 18.359375 62.097656 18.664062 62.464844 C 19.03125 62.832031 19.402344 63.265625 19.59375 63.78125 C 19.03125 63.46875 18.609375 62.980469 18.007812 62.613281 C 17.9375 62.546875 17.816406 62.492188 17.761719 62.425781 C 17.269531 62.179688 17.078125 61.691406 17.023438 61.160156 C 16.953125 60.726562 16.832031 60.359375 16.832031 59.898438 C 16.832031 59.832031 16.832031 59.777344 16.832031 59.707031 C 16.832031 59.640625 16.832031 59.519531 16.953125 59.464844 C 17.078125 59.410156 17.144531 59.53125 17.199219 59.585938 C 17.9375 60.265625 18.71875 60.972656 19.453125 61.703125 C 20.140625 62.382812 20.78125 63.144531 21.09375 64.066406 C 21.289062 64.503906 21.410156 64.992188 21.464844 65.507812 C 21.574219 65.574219 21.574219 65.628906 21.507812 65.628906 Z M 31.484375 67.871094 C 30.679688 67.257812 29.84375 66.824219 28.914062 66.484375 C 28.792969 66.417969 28.671875 66.363281 28.546875 66.296875 C 28.179688 66.105469 28.109375 66.050781 28.179688 65.617188 C 28.246094 65.25 28.371094 64.9375 28.617188 64.691406 C 28.683594 64.570312 28.808594 64.570312 28.984375 64.570312 C 29.601562 64.691406 30.105469 64.9375 30.625 65.25 C 31.242188 65.617188 31.898438 66.050781 32.390625 66.636719 C 32.949219 67.191406 33.320312 67.898438 33.714844 68.507812 C 33.835938 68.699219 33.960938 68.945312 33.960938 69.1875 C 33.960938 69.1875 33.960938 69.257812 33.890625 69.3125 C 33.824219 69.554688 33.769531 69.867188 33.523438 69.921875 C 33.332031 69.988281 33.210938 69.609375 33.085938 69.488281 C 32.6875 68.792969 32.101562 68.304688 31.484375 67.871094 Z M 34.601562 72.800781 C 34.234375 73.167969 33.867188 73.601562 33.429688 73.96875 C 32.9375 74.402344 32.5 74.824219 31.976562 75.234375 C 31.296875 75.789062 30.585938 76.402344 29.902344 76.984375 C 29.09375 77.71875 28.136719 78.246094 27.207031 78.859375 C 27.140625 78.859375 27.140625 78.925781 27.085938 78.925781 C 27.015625 78.925781 26.960938 79.050781 26.894531 78.996094 C 26.824219 78.925781 26.894531 78.871094 26.894531 78.804688 C 27.207031 78.195312 27.507812 77.542969 28.070312 76.984375 C 28.382812 76.617188 28.683594 76.25 29.054688 75.9375 C 29.121094 75.871094 29.175781 75.816406 29.121094 75.75 C 29.054688 75.679688 29 75.679688 28.929688 75.679688 C 28.066406 75.75 27.164062 75.75 26.359375 75.4375 C 27.21875 75.3125 28.125 75.125 29 75 C 29.3125 74.933594 29.558594 74.8125 29.804688 74.757812 C 30.980469 74.324219 32.128906 73.777344 33.113281 72.9375 L 33.179688 72.871094 C 33.496094 72.433594 33.921875 72.3125 34.507812 72.503906 C 34.578125 72.570312 34.699219 72.503906 34.753906 72.625 C 34.796875 72.679688 34.671875 72.734375 34.601562 72.800781 Z M 34.546875 71.726562 C 34.234375 71.726562 33.933594 71.484375 33.933594 71.238281 C 34 70.925781 34.125 70.628906 34.304688 70.382812 C 34.425781 70.195312 34.546875 70.195312 34.617188 70.382812 C 34.742188 70.628906 34.863281 71.0625 34.863281 71.308594 C 34.890625 71.539062 34.742188 71.726562 34.546875 71.726562 Z M 35.453125 71.605469 C 35.382812 71.117188 35.203125 70.683594 35.136719 70.167969 C 35.136719 70.097656 35.070312 70.042969 35.203125 70.042969 C 35.519531 70.113281 36.011719 70.65625 36.011719 70.96875 C 35.945312 71.28125 36.078125 71.578125 35.695312 71.769531 C 35.574219 71.78125 35.453125 71.78125 35.453125 71.605469 Z M 38.199219 73.902344 C 39.183594 74.457031 40.207031 74.878906 41.328125 75.070312 C 41.945312 75.191406 42.65625 75.3125 43.339844 75.382812 C 43.460938 75.382812 43.53125 75.449219 43.652344 75.503906 C 43.160156 75.570312 42.792969 75.695312 42.328125 75.75 C 41.863281 75.804688 41.464844 75.816406 41 75.75 C 40.933594 75.75 40.8125 75.679688 40.8125 75.816406 C 40.8125 75.882812 40.8125 76.007812 40.878906 76.007812 C 41.25 76.375 41.617188 76.808594 42 77.269531 C 42.4375 77.703125 42.683594 78.316406 42.984375 78.898438 C 42.984375 78.96875 43.054688 79.023438 42.984375 79.089844 C 42.914062 79.15625 42.859375 79.089844 42.792969 79.089844 C 42.355469 78.777344 41.863281 78.53125 41.398438 78.234375 C 40.125 77.433594 39.140625 76.359375 37.96875 75.492188 C 37.40625 75.054688 36.914062 74.511719 36.328125 74.050781 C 36.011719 73.804688 35.765625 73.492188 35.519531 73.195312 C 35.398438 73.003906 35.585938 72.636719 35.835938 72.585938 C 36.023438 72.515625 36.203125 72.585938 36.394531 72.707031 C 36.929688 73.167969 37.585938 73.535156 38.199219 73.902344 Z M 37.117188 69.105469 C 36.875 69.351562 36.679688 69.597656 36.503906 69.910156 C 36.382812 70.097656 36.3125 70.03125 36.257812 69.910156 C 36.011719 69.542969 35.890625 69.175781 36.132812 68.742188 C 36.628906 67.9375 37.0625 67.109375 37.773438 66.5 C 38.210938 66.066406 38.703125 65.699219 39.292969 65.386719 C 39.785156 65.140625 40.277344 64.773438 40.933594 64.652344 C 41.304688 64.585938 41.371094 64.585938 41.617188 64.894531 C 41.863281 65.207031 41.933594 65.507812 41.984375 65.875 C 41.917969 66.066406 41.863281 66.1875 41.671875 66.242188 C 41.234375 66.484375 40.742188 66.609375 40.277344 66.796875 C 39.007812 67.410156 38.023438 68.183594 37.117188 69.105469 Z M 48.480469 65.699219 C 48.359375 65.386719 48.480469 65.085938 48.601562 64.773438 C 48.917969 63.726562 49.464844 62.777344 50.242188 62.03125 C 50.804688 61.417969 51.515625 60.917969 52.132812 60.332031 C 52.375 60.144531 52.570312 59.898438 52.746094 59.722656 C 52.921875 59.546875 52.992188 59.53125 53.117188 59.84375 C 53.238281 60.15625 53.183594 60.523438 53.117188 60.820312 C 53.046875 61.132812 52.992188 61.5 52.867188 61.800781 C 52.746094 62.113281 52.554688 62.289062 52.308594 62.480469 C 51.625 62.914062 51.132812 63.523438 50.296875 63.988281 C 50.546875 63.496094 50.789062 63.128906 51.105469 62.816406 C 51.417969 62.453125 51.789062 62.140625 52.035156 61.703125 C 52.035156 61.636719 52.101562 61.582031 52.101562 61.515625 C 52.101562 61.390625 52.171875 61.269531 52.035156 61.269531 C 51.914062 61.203125 51.914062 61.335938 51.84375 61.390625 C 51.476562 61.757812 51.160156 62.125 50.789062 62.507812 C 49.929688 63.363281 49.148438 64.257812 48.65625 65.371094 C 48.671875 65.507812 48.671875 65.699219 48.480469 65.699219 Z M 56.257812 67.546875 C 56.328125 67.613281 56.453125 67.613281 56.453125 67.734375 C 56.453125 67.855469 56.328125 67.855469 56.257812 67.855469 C 55.398438 68.222656 54.550781 68.660156 53.6875 68.972656 C 52.757812 69.335938 51.804688 69.285156 50.804688 68.972656 C 50.679688 68.902344 50.558594 68.902344 50.558594 68.78125 C 50.558594 68.660156 50.679688 68.660156 50.804688 68.660156 C 51.734375 68.535156 52.636719 68.222656 53.566406 67.980469 C 54.058594 67.855469 54.550781 67.789062 55.085938 67.789062 C 55.207031 67.789062 55.519531 67.789062 55.519531 67.667969 C 55.519531 67.476562 55.273438 67.546875 55.085938 67.546875 C 54.101562 67.476562 53.074219 67.734375 52.144531 67.980469 C 51.773438 68.046875 51.460938 68.046875 51.023438 67.980469 C 51.335938 67.734375 51.640625 67.667969 51.953125 67.546875 C 52.515625 67.300781 53.074219 67.179688 53.664062 66.933594 C 53.976562 66.8125 54.277344 66.933594 54.59375 67 C 55.207031 67.042969 55.765625 67.285156 56.257812 67.546875 Z M 55.085938 65.113281 C 54.648438 65.601562 54.101562 65.96875 53.445312 66.226562 C 52.460938 66.664062 51.433594 67.027344 50.4375 67.273438 C 50.367188 67.273438 50.367188 67.273438 50.3125 67.273438 C 50.3125 67.152344 50.382812 67.152344 50.4375 67.082031 C 50.996094 66.714844 51.417969 66.226562 51.953125 65.765625 C 52.320312 65.398438 52.691406 64.964844 53.128906 64.597656 C 53.5 64.285156 53.867188 64.039062 54.25 63.796875 C 54.25 63.796875 54.320312 63.796875 54.320312 63.726562 C 54.386719 63.660156 54.5625 63.605469 54.507812 63.484375 C 54.441406 63.363281 54.320312 63.484375 54.195312 63.484375 C 53.390625 63.851562 52.675781 64.339844 52.0625 64.992188 C 51.378906 65.671875 50.613281 66.253906 49.738281 66.621094 C 49.617188 66.6875 49.492188 66.8125 49.367188 66.6875 C 49.300781 66.566406 49.4375 66.445312 49.492188 66.375 C 49.804688 65.941406 50.105469 65.519531 50.421875 65.058594 C 51.105469 64.324219 51.871094 63.621094 52.675781 62.996094 C 53.292969 62.507812 54.070312 62.195312 54.8125 61.882812 C 55.054688 61.757812 55.246094 61.691406 55.425781 61.570312 C 55.742188 61.445312 55.863281 61.5 55.863281 61.8125 C 56.070312 63.078125 55.890625 64.191406 55.085938 65.113281 Z M 62.109375 54.34375 C 61.988281 54.410156 61.921875 54.34375 61.867188 54.273438 C 61.375 53.839844 61.003906 53.296875 60.742188 52.644531 C 60.375 51.910156 60.25 51.015625 60.183594 50.214844 C 60.183594 49.289062 60.375 48.394531 60.796875 47.59375 C 60.867188 47.402344 60.921875 47.402344 61.046875 47.59375 C 61.289062 48.148438 61.660156 48.636719 62.03125 49.167969 C 62.097656 49.289062 62.152344 49.414062 62.152344 49.535156 C 61.90625 50.089844 61.835938 50.703125 61.78125 51.285156 C 61.78125 51.355469 61.78125 51.476562 61.660156 51.476562 C 61.539062 51.476562 61.539062 51.410156 61.46875 51.285156 C 61.222656 50.730469 61.101562 50.171875 61.101562 49.535156 C 61.101562 49.34375 61.101562 49.167969 61.101562 48.921875 C 61.101562 48.855469 61.101562 48.734375 60.976562 48.734375 C 60.910156 48.734375 60.855469 48.800781 60.855469 48.855469 C 60.664062 49.65625 60.664062 50.484375 60.921875 51.339844 C 61.113281 52.019531 61.484375 52.660156 61.851562 53.214844 C 62.042969 53.527344 62.042969 53.828125 62.167969 54.140625 C 62.234375 54.273438 62.179688 54.34375 62.109375 54.34375 Z M 62.179688 39.144531 C 61.742188 38.410156 61.375 37.636719 61.25 36.78125 C 61.179688 36.46875 61.25 36.167969 61.25 35.855469 C 61.25 35.667969 61.375 35.613281 61.5625 35.734375 C 62.058594 36.046875 62.546875 36.347656 63.015625 36.714844 C 63.203125 36.902344 63.261719 37.148438 63.261719 37.390625 C 63.261719 37.636719 63.261719 37.882812 63.261719 38.125 C 63.261719 38.195312 63.261719 38.246094 63.191406 38.316406 C 63.125 38.316406 63.070312 38.246094 63 38.246094 C 62.632812 37.933594 62.386719 37.570312 62.140625 37.203125 C 62.140625 37.203125 62.070312 37.132812 62.070312 37.078125 C 62.003906 37.011719 62.003906 36.890625 61.878906 36.957031 C 61.757812 37.027344 61.8125 37.078125 61.8125 37.148438 C 61.933594 37.882812 62.304688 38.53125 62.742188 39.144531 C 62.863281 39.335938 63.054688 39.457031 63.179688 39.632812 C 63.492188 39.878906 63.492188 40.3125 63.617188 40.679688 C 62.984375 40.3125 62.546875 39.753906 62.179688 39.144531 Z M 64.460938 53.542969 C 64.394531 53.609375 64.394531 53.730469 64.273438 53.664062 C 64.203125 53.597656 64.203125 53.542969 64.203125 53.417969 C 64.328125 52.742188 64.273438 52.035156 64.273438 51.300781 C 64.273438 50.6875 64.273438 50.039062 64.203125 49.425781 C 64.203125 49.234375 64.273438 49.058594 64.273438 48.816406 C 64.273438 48.746094 64.273438 48.625 64.203125 48.625 C 64.078125 48.625 64.078125 48.691406 64.011719 48.746094 C 63.945312 48.9375 63.820312 49.113281 63.820312 49.359375 C 63.820312 49.914062 63.699219 50.402344 63.753906 50.933594 C 63.753906 51.855469 63.753906 52.6875 63.507812 53.554688 C 63.4375 53.800781 63.261719 54.042969 63.070312 54.234375 C 62.945312 54.355469 62.945312 54.234375 62.878906 54.167969 C 62.6875 53.855469 62.632812 53.433594 62.5625 53.050781 C 62.441406 52.320312 62.371094 51.546875 62.371094 50.8125 C 62.441406 49.832031 62.808594 48.9375 63.492188 48.136719 C 63.808594 47.824219 64.054688 47.457031 64.230469 47.089844 C 64.421875 46.777344 64.546875 46.777344 64.667969 47.089844 C 64.984375 47.648438 65.160156 48.203125 65.230469 48.84375 C 65.296875 49.332031 65.351562 49.765625 65.351562 50.28125 C 65.351562 51.082031 65.105469 51.910156 64.789062 52.644531 C 64.875 52.984375 64.75 53.296875 64.460938 53.542969 Z M 67.195312 48.558594 C 67.320312 48.367188 67.511719 48.488281 67.511719 48.679688 C 67.703125 49.847656 67.703125 50.988281 67.140625 52.035156 C 66.828125 52.644531 66.335938 53.078125 65.871094 53.542969 C 65.679688 53.730469 65.5 53.855469 65.3125 53.976562 C 65.242188 53.976562 65.1875 54.042969 65.117188 54.042969 C 65.050781 53.976562 65.117188 53.921875 65.1875 53.855469 C 65.5 53.417969 65.871094 53 66.171875 52.535156 C 66.734375 51.734375 67.101562 50.839844 67.101562 49.859375 C 67.101562 49.738281 67.171875 49.546875 67.03125 49.546875 C 66.84375 49.546875 66.84375 49.738281 66.84375 49.859375 C 66.71875 50.296875 66.472656 50.714844 66.226562 51.125 C 66.226562 50.8125 66.226562 50.566406 66.226562 50.269531 C 66.101562 49.480469 66.734375 49.046875 67.195312 48.558594 Z M 66.539062 42.308594 C 66.417969 42.117188 66.539062 41.941406 66.539062 41.753906 C 66.609375 41.074219 66.417969 40.367188 66.226562 39.6875 C 65.980469 38.832031 65.609375 37.933594 65.421875 37.066406 C 65.421875 36.945312 65.421875 36.875 65.351562 36.753906 C 65.351562 36.6875 65.351562 36.5625 65.226562 36.632812 C 65.160156 36.632812 65.160156 36.753906 65.160156 36.820312 C 65.160156 37.1875 65.09375 37.625 65.226562 37.988281 C 65.476562 38.84375 65.664062 39.742188 65.789062 40.664062 C 65.859375 41.101562 65.859375 41.589844 65.667969 42.050781 C 65.476562 42.363281 65.421875 42.363281 65.230469 42.050781 C 64.738281 41.371094 64.421875 40.542969 64.175781 39.742188 C 63.929688 38.765625 63.808594 37.746094 63.929688 36.699219 C 64 35.84375 64.300781 35 64.792969 34.269531 C 64.859375 34.144531 64.914062 34.078125 64.984375 34.269531 C 65.296875 34.949219 65.71875 35.585938 66.253906 36.144531 C 66.871094 36.875 67.183594 37.648438 67.183594 38.628906 C 67.183594 39.0625 67.308594 39.429688 67.308594 39.890625 C 67.195312 40.707031 67.074219 41.507812 66.539062 42.308594 Z M 68.742188 40.191406 C 68.617188 40.378906 68.496094 40.503906 68.375 40.625 C 68.496094 40.191406 68.496094 39.824219 68.617188 39.363281 C 68.617188 39.171875 68.6875 38.996094 68.617188 38.804688 C 68.617188 38.070312 68.6875 37.296875 68.8125 36.5625 C 68.8125 36.496094 68.878906 36.320312 68.742188 36.320312 C 68.617188 36.320312 68.617188 36.441406 68.550781 36.507812 C 68.429688 37.066406 68.359375 37.675781 68.304688 38.261719 C 68.234375 38.507812 68.179688 38.75 68.058594 38.996094 C 67.867188 38.804688 67.9375 38.558594 67.9375 38.316406 C 67.867188 37.882812 67.746094 37.515625 67.6875 37.050781 C 67.621094 36.863281 67.6875 36.6875 67.757812 36.496094 C 68.070312 36.007812 68.496094 35.570312 68.933594 35.109375 C 69.054688 34.988281 69.125 35.042969 69.179688 35.179688 C 69.304688 35.421875 69.304688 35.613281 69.304688 35.855469 C 69.480469 37.378906 69.480469 38.832031 68.742188 40.191406 Z M 68.742188 40.191406 "/>
<path style=" stroke:none;fill-rule:nonzero;fill:rgb(74.901961%,8.627451%,8.627451%);fill-opacity:1;" d="M 21.574219 17.507812 C 21.382812 17.507812 21.257812 17.699219 21.328125 17.875 C 21.453125 18.117188 21.574219 18.429688 21.765625 18.675781 C 21.957031 18.921875 22.132812 19.234375 22.503906 19.355469 C 22.820312 19.476562 23.242188 19.234375 23.242188 18.921875 L 23.242188 18.851562 C 23.214844 18.242188 22.132812 17.507812 21.574219 17.507812 Z M 21.574219 17.507812 "/>
<path style=" stroke:none;fill-rule:nonzero;fill:rgb(74.901961%,8.627451%,8.627451%);fill-opacity:1;" d="M 47.15625 19.449219 C 47.523438 19.382812 47.769531 19.257812 47.960938 18.960938 C 48.207031 18.648438 48.328125 18.351562 48.523438 17.984375 C 48.589844 17.859375 48.589844 17.738281 48.523438 17.671875 C 48.453125 17.546875 48.328125 17.546875 48.207031 17.601562 C 47.589844 17.792969 47.03125 18.089844 46.6875 18.714844 C 46.46875 19.082031 46.664062 19.449219 47.15625 19.449219 Z M 47.15625 19.449219 "/>
<path style=" stroke:none;fill-rule:nonzero;fill:rgb(74.901961%,8.627451%,8.627451%);fill-opacity:1;" d="M 34.546875 13.515625 C 34.742188 13.828125 35.109375 13.828125 35.285156 13.515625 C 35.601562 13.027344 35.476562 12.535156 35.21875 12.007812 C 35.148438 11.882812 35.09375 11.761719 34.902344 11.761719 C 34.710938 11.761719 34.589844 11.882812 34.535156 12.007812 C 34.410156 12.25 34.289062 12.496094 34.34375 12.808594 C 34.304688 13.078125 34.425781 13.324219 34.546875 13.515625 Z M 34.546875 13.515625 "/>
<path style=" stroke:none;fill-rule:nonzero;fill:rgb(74.901961%,8.627451%,8.627451%);fill-opacity:1;" d="M 35.453125 15.390625 C 35.519531 15.511719 35.640625 15.578125 35.765625 15.511719 C 36.082031 15.390625 36.503906 14.898438 36.503906 14.585938 C 36.503906 14.222656 36.3125 13.976562 36.011719 13.976562 C 35.945312 13.976562 35.820312 13.976562 35.765625 14.042969 C 35.382812 14.222656 35.203125 15.023438 35.453125 15.390625 Z M 35.453125 15.390625 "/>
<path style=" stroke:none;fill-rule:nonzero;fill:rgb(74.901961%,8.627451%,8.627451%);fill-opacity:1;" d="M 34.425781 15.265625 C 34.492188 15.144531 34.492188 15.078125 34.492188 14.953125 C 34.492188 14.710938 34.425781 14.464844 34.304688 14.222656 C 34.179688 14.03125 33.988281 13.855469 33.742188 13.910156 C 33.496094 13.976562 33.375 14.152344 33.375 14.398438 C 33.304688 14.832031 33.566406 15.128906 33.933594 15.375 C 34.179688 15.566406 34.304688 15.566406 34.425781 15.265625 Z M 34.425781 15.265625 "/>
<path style=" stroke:none;fill-rule:nonzero;fill:rgb(74.901961%,8.627451%,8.627451%);fill-opacity:1;" d="M 27.617188 16.585938 C 27.617188 16.773438 27.617188 16.949219 27.742188 17.074219 C 27.863281 17.261719 27.988281 17.386719 28.234375 17.386719 C 28.476562 17.386719 28.546875 17.140625 28.546875 16.949219 C 28.617188 16.761719 28.546875 16.515625 28.476562 16.339844 C 28.355469 16.09375 28.109375 15.90625 27.917969 15.90625 C 27.617188 16.09375 27.617188 16.273438 27.617188 16.585938 Z M 27.617188 16.585938 "/>
<path style=" stroke:none;fill-rule:nonzero;fill:rgb(74.901961%,8.627451%,8.627451%);fill-opacity:1;" d="M 41.644531 17.441406 C 41.835938 17.441406 42.015625 17.316406 42.082031 17.128906 C 42.148438 17.003906 42.203125 16.816406 42.203125 16.636719 C 42.203125 16.515625 42.203125 16.449219 42.203125 16.324219 C 42.136719 16.203125 42.082031 16.011719 41.960938 15.960938 C 41.765625 15.890625 41.644531 16.027344 41.589844 16.148438 C 41.34375 16.394531 41.34375 16.707031 41.398438 17.003906 C 41.398438 17.195312 41.453125 17.386719 41.644531 17.441406 Z M 41.644531 17.441406 "/>
<path style=" stroke:none;fill-rule:nonzero;fill:rgb(74.901961%,8.627451%,8.627451%);fill-opacity:1;" d="M 33.742188 21.515625 C 34.109375 21.757812 34.480469 21.828125 35.136719 21.828125 C 35.382812 21.828125 35.75 21.757812 36.066406 21.515625 C 36.382812 21.269531 36.4375 20.957031 36.1875 20.660156 C 35.695312 20.101562 34.304688 20.046875 33.742188 20.589844 C 33.375 20.792969 33.429688 21.257812 33.742188 21.515625 Z M 33.742188 21.515625 "/>
<path style=" stroke:none;fill-rule:nonzero;fill:rgb(74.901961%,8.627451%,8.627451%);fill-opacity:1;" d="M 40.960938 22.179688 C 41.453125 22.546875 42.015625 22.667969 42.671875 22.613281 C 43.230469 22.546875 43.53125 21.933594 43.164062 21.5 C 42.792969 21.011719 42.234375 20.890625 41.644531 20.890625 C 41.578125 20.890625 41.453125 20.890625 41.398438 20.890625 C 41.152344 20.957031 40.835938 21.011719 40.714844 21.324219 C 40.59375 21.636719 40.714844 22.003906 40.960938 22.179688 Z M 40.960938 22.179688 "/>
<path style=" stroke:none;fill-rule:nonzero;fill:rgb(74.901961%,8.627451%,8.627451%);fill-opacity:1;" d="M 27.425781 22.613281 C 27.984375 22.613281 28.410156 22.492188 28.875 22.246094 C 29.121094 22.058594 29.1875 21.8125 29.1875 21.515625 C 29.1875 21.269531 29 21.078125 28.75 20.957031 C 28.191406 20.714844 27.167969 20.957031 26.796875 21.390625 C 26.550781 21.636719 26.484375 21.949219 26.671875 22.246094 C 26.867188 22.546875 27.152344 22.613281 27.425781 22.613281 Z M 27.425781 22.613281 "/>
<path style=" stroke:none;fill-rule:nonzero;fill:rgb(74.901961%,8.627451%,8.627451%);fill-opacity:1;" d="M 38.515625 22.058594 C 39.007812 22.058594 39.445312 21.691406 39.445312 21.203125 C 39.445312 20.644531 39.074219 20.277344 38.515625 20.277344 C 38.144531 20.277344 37.585938 20.765625 37.585938 21.132812 C 37.515625 21.570312 38.023438 22.058594 38.515625 22.058594 Z M 38.570312 20.671875 C 38.757812 20.671875 38.882812 20.792969 38.882812 21.039062 C 38.882812 21.285156 38.761719 21.472656 38.570312 21.472656 C 38.445312 21.472656 38.132812 21.160156 38.132812 21.039062 C 38.144531 20.917969 38.390625 20.671875 38.570312 20.671875 Z M 38.570312 20.671875 "/>
<path style=" stroke:none;fill-rule:nonzero;fill:rgb(74.901961%,8.627451%,8.627451%);fill-opacity:1;" d="M 45.242188 23.441406 C 45.734375 23.441406 46.101562 23.007812 46.101562 22.519531 C 46.101562 21.960938 45.789062 21.664062 45.171875 21.664062 C 44.679688 21.664062 44.367188 22.03125 44.367188 22.519531 C 44.269531 23.171875 44.804688 23.441406 45.242188 23.441406 Z M 45.171875 22.179688 C 45.363281 22.179688 45.609375 22.371094 45.609375 22.546875 C 45.609375 22.722656 45.417969 22.914062 45.171875 22.914062 C 44.980469 22.914062 44.855469 22.792969 44.804688 22.546875 C 44.804688 22.371094 44.980469 22.179688 45.171875 22.179688 Z M 45.171875 22.179688 "/>
<path style=" stroke:none;fill-rule:nonzero;fill:rgb(74.901961%,8.627451%,8.627451%);fill-opacity:1;" d="M 31.363281 22.058594 C 31.800781 22.058594 32.226562 21.625 32.226562 21.257812 C 32.226562 20.578125 31.910156 20.210938 31.296875 20.210938 C 30.804688 20.210938 30.488281 20.578125 30.488281 21.066406 C 30.433594 21.636719 30.804688 22.058594 31.363281 22.058594 Z M 31.296875 20.671875 C 31.542969 20.671875 31.734375 20.917969 31.734375 21.105469 C 31.734375 21.296875 31.539062 21.472656 31.296875 21.472656 C 31.046875 21.472656 30.804688 21.230469 30.804688 20.984375 C 30.859375 20.863281 31.101562 20.671875 31.296875 20.671875 Z M 31.296875 20.671875 "/>
<path style=" stroke:none;fill-rule:nonzero;fill:rgb(74.901961%,8.627451%,8.627451%);fill-opacity:1;" d="M 24.703125 23.347656 C 25.140625 23.414062 25.566406 22.980469 25.566406 22.492188 C 25.566406 22.003906 25.128906 21.570312 24.636719 21.570312 C 24.144531 21.570312 23.773438 21.933594 23.773438 22.425781 C 23.773438 22.980469 24.265625 23.441406 24.703125 23.347656 Z M 24.703125 22.058594 C 24.953125 22.058594 25.074219 22.246094 25.140625 22.492188 C 25.140625 22.738281 24.949219 22.859375 24.703125 22.925781 C 24.511719 22.925781 24.265625 22.738281 24.210938 22.558594 C 24.199219 22.300781 24.445312 22.058594 24.703125 22.058594 Z M 24.703125 22.058594 "/>
<path style=" stroke:none;fill-rule:nonzero;fill:rgb(74.901961%,8.627451%,8.627451%);fill-opacity:1;" d="M 13.359375 30.519531 C 13.480469 31.199219 13.550781 31.960938 13.480469 32.636719 C 13.480469 33.003906 13.414062 33.003906 13.796875 33.003906 C 14.65625 33.003906 15.503906 33.003906 16.367188 33.003906 C 16.433594 33.003906 16.433594 33.003906 16.488281 33.003906 C 16.554688 33.003906 16.554688 33.003906 16.613281 33.003906 C 17.472656 33.003906 18.320312 33.003906 19.179688 33.003906 C 19.550781 33.003906 19.496094 33.003906 19.496094 32.636719 C 19.429688 31.960938 19.496094 31.199219 19.621094 30.519531 C 19.742188 29.71875 20.058594 28.945312 20.425781 28.277344 C 20.496094 28.15625 20.550781 28.035156 20.425781 27.964844 C 20.304688 27.84375 20.179688 27.898438 20.113281 27.964844 C 19.429688 28.210938 18.785156 28.578125 18.15625 28.945312 C 17.84375 29.132812 17.789062 29.132812 17.597656 28.820312 C 17.351562 28.386719 17.105469 28.019531 16.789062 27.652344 C 16.664062 27.53125 16.597656 27.464844 16.476562 27.464844 C 16.351562 27.464844 16.28125 27.53125 16.160156 27.652344 C 15.847656 28.019531 15.601562 28.453125 15.355469 28.820312 C 15.164062 29.132812 15.109375 29.132812 14.792969 28.945312 C 14.179688 28.578125 13.523438 28.210938 12.839844 27.964844 C 12.714844 27.898438 12.59375 27.84375 12.523438 27.964844 C 12.402344 28.089844 12.523438 28.210938 12.523438 28.277344 C 12.933594 28.984375 13.234375 29.71875 13.359375 30.519531 Z M 13.359375 30.519531 "/>
<path style=" stroke:none;fill-rule:nonzero;fill:rgb(74.901961%,8.627451%,8.627451%);fill-opacity:1;" d="M 54.617188 28.792969 C 54.375 28.359375 54.125 27.992188 53.8125 27.625 C 53.691406 27.503906 53.621094 27.4375 53.5 27.4375 C 53.375 27.4375 53.308594 27.503906 53.183594 27.625 C 52.867188 27.992188 52.625 28.429688 52.375 28.792969 C 52.1875 29.105469 52.132812 29.105469 51.816406 28.917969 C 51.203125 28.550781 50.546875 28.183594 49.859375 27.9375 C 49.738281 27.871094 49.617188 27.816406 49.546875 27.9375 C 49.421875 28.0625 49.546875 28.183594 49.546875 28.25 C 49.859375 28.984375 50.230469 29.691406 50.351562 30.492188 C 50.476562 31.171875 50.542969 31.933594 50.476562 32.609375 C 50.476562 32.976562 50.40625 32.976562 50.789062 32.976562 C 51.652344 32.976562 52.5 32.976562 53.359375 32.976562 C 53.429688 32.976562 53.429688 32.976562 53.484375 32.976562 C 53.484375 32.976562 53.550781 32.976562 53.605469 32.976562 C 54.46875 32.976562 55.316406 32.976562 56.175781 32.976562 C 56.546875 32.976562 56.492188 32.976562 56.492188 32.609375 C 56.421875 31.933594 56.492188 31.171875 56.613281 30.492188 C 56.738281 29.691406 57.105469 28.917969 57.421875 28.25 C 57.488281 28.128906 57.542969 28.007812 57.421875 27.9375 C 57.296875 27.816406 57.175781 27.871094 57.105469 27.9375 C 56.421875 28.183594 55.78125 28.550781 55.152344 28.917969 C 54.890625 29.175781 54.835938 29.105469 54.617188 28.792969 Z M 54.617188 28.792969 "/>
</g>
</svg>
