<svg xmlns="http://www.w3.org/2000/svg" xmlns:xlink="http://www.w3.org/1999/xlink" width="132px" height="45px" viewBox="0 0 132 45" version="1.1">
<g id="surface1">
<path style=" stroke:none;fill-rule:nonzero;fill:#ffffff;fill-opacity:1;" d="M 39.03125 20.921875 C 39.007812 20.613281 38.957031 20.277344 38.902344 19.941406 C 38.828125 19.550781 38.722656 19.191406 38.722656 18.800781 C 38.722656 18.777344 38.75 18.699219 38.699219 18.671875 C 38.621094 18.671875 38.59375 18.699219 38.59375 18.777344 C 38.414062 19.164062 38.183594 19.472656 37.847656 19.808594 C 37.742188 19.914062 37.667969 19.992188 37.5625 20.09375 C 37.460938 20.222656 37.382812 20.222656 37.28125 20.121094 C 37.046875 19.886719 36.839844 19.679688 36.6875 19.34375 C 36.558594 19.058594 36.480469 18.722656 36.378906 18.414062 C 36.351562 18.386719 36.351562 18.308594 36.273438 18.285156 C 36.195312 18.285156 36.195312 18.363281 36.171875 18.386719 C 35.835938 18.878906 35.550781 19.421875 35.398438 19.992188 C 35.320312 20.277344 35.292969 20.277344 35.089844 20.09375 C 35.0625 20.070312 35.0625 20.070312 35.011719 20.015625 C 34.625 19.835938 34.367188 19.578125 34.160156 19.136719 C 34.160156 19.113281 34.132812 19.035156 34.058594 19.035156 C 33.980469 19.035156 33.980469 19.058594 33.953125 19.136719 C 33.953125 19.164062 33.929688 19.214844 33.929688 19.242188 C 33.746094 19.679688 33.746094 20.171875 33.800781 20.636719 C 33.902344 21.492188 34.289062 22.214844 34.855469 22.808594 C 35.191406 23.199219 35.605469 23.558594 35.992188 23.898438 C 36.09375 24 36.171875 24.101562 36.121094 24.234375 C 36.09375 24.570312 36.09375 24.878906 36.09375 25.265625 C 36.09375 25.371094 36.066406 25.472656 35.964844 25.5 C 35.886719 25.527344 35.886719 25.578125 35.886719 25.628906 C 35.707031 26.222656 35.292969 26.613281 34.933594 27.101562 C 34.90625 27.179688 34.832031 27.179688 34.753906 27.101562 C 34.675781 27 34.574219 26.898438 34.519531 26.792969 C 34.316406 26.507812 34.210938 26.25 34.082031 25.914062 C 34.058594 25.886719 34.082031 25.785156 33.980469 25.808594 C 33.902344 25.808594 33.902344 25.886719 33.902344 25.941406 C 33.875 26.070312 33.824219 26.222656 33.773438 26.328125 C 33.464844 26.820312 33.359375 27.386719 33.335938 27.929688 C 33.257812 28.578125 33.4375 29.199219 33.722656 29.820312 C 33.851562 30.207031 33.851562 30.207031 33.488281 30.207031 C 32.949219 30.207031 32.355469 30.207031 31.8125 30.207031 C 31.609375 30.207031 31.582031 30.207031 31.582031 29.972656 C 31.582031 26.898438 31.582031 23.765625 31.582031 20.664062 C 31.582031 20.484375 31.582031 20.328125 31.660156 20.148438 C 31.761719 19.757812 31.96875 19.527344 32.253906 19.265625 C 32.328125 19.191406 32.355469 19.164062 32.328125 19.085938 C 32.328125 19.058594 32.226562 19.058594 32.148438 19.058594 C 30.679688 19.058594 29.183594 19.058594 27.664062 19.058594 C 27.558594 19.058594 27.535156 19.136719 27.558594 19.242188 C 27.585938 19.265625 27.585938 19.320312 27.636719 19.320312 C 28.050781 19.707031 28.257812 20.25 28.257812 20.792969 C 28.257812 21.75 28.257812 23.042969 28.257812 23.972656 L 20.238281 16.113281 C 20.316406 16.113281 20.417969 16.113281 20.417969 16.113281 C 20.804688 16.035156 21.167969 15.984375 21.554688 15.90625 C 22.328125 15.777344 23.101562 15.515625 23.875 15.285156 C 24.492188 15.050781 25.136719 14.765625 25.679688 14.40625 C 25.859375 14.300781 25.988281 14.171875 26.066406 13.964844 C 26.375 13.085938 26.890625 12.257812 27.300781 11.40625 C 27.6875 10.65625 28.074219 9.929688 28.460938 9.179688 C 28.539062 9.078125 28.488281 8.972656 28.386719 8.898438 C 28.203125 8.792969 28 8.714844 27.792969 8.714844 C 27.277344 8.714844 26.8125 8.84375 26.453125 9.234375 C 26.375 9.308594 26.324219 9.335938 26.21875 9.335938 C 25.808594 9.257812 25.523438 9.441406 25.394531 9.878906 C 25.367188 9.957031 25.367188 10.007812 25.367188 10.085938 C 25.34375 10.292969 25.34375 10.5 25.085938 10.527344 C 24.851562 10.550781 24.648438 10.601562 24.390625 10.601562 C 24.261719 10.601562 24.078125 10.5 24.054688 10.398438 C 23.976562 10.214844 24.078125 10.164062 24.234375 10.058594 L 24.261719 10.035156 C 24.59375 9.828125 24.671875 9.386719 24.335938 9 C 24.234375 8.898438 24.207031 8.792969 24.207031 8.691406 C 24.207031 8.378906 24.027344 8.148438 23.769531 8.042969 C 23.433594 7.941406 23.152344 8.042969 22.945312 8.328125 C 22.84375 8.457031 22.738281 8.613281 22.609375 8.714844 C 22.402344 8.84375 22.328125 9.027344 22.300781 9.308594 C 22.300781 9.492188 22.378906 9.621094 22.429688 9.75 C 22.53125 9.984375 22.507812 10.164062 22.25 10.191406 C 21.757812 10.292969 21.269531 10.191406 20.855469 9.90625 C 20.675781 9.800781 20.574219 9.570312 20.675781 9.386719 C 20.78125 9.257812 20.855469 9.101562 20.910156 8.972656 C 21.089844 8.691406 21.113281 8.378906 21.089844 8.042969 C 21.089844 7.707031 20.910156 7.421875 20.703125 7.113281 C 20.625 7.007812 20.523438 6.929688 20.523438 6.828125 C 20.496094 6.492188 20.339844 6.179688 20.136719 5.871094 C 20.058594 5.792969 20.058594 5.742188 20.136719 5.664062 C 20.367188 5.171875 20.78125 4.886719 21.296875 4.734375 C 21.8125 4.601562 22.378906 4.628906 22.894531 4.734375 C 23.023438 4.757812 23.125 4.757812 23.28125 4.734375 C 23.382812 4.707031 23.460938 4.65625 23.5625 4.628906 C 23.976562 4.527344 24.414062 4.449219 24.828125 4.398438 C 25.265625 4.320312 25.753906 4.371094 26.195312 4.5 C 26.605469 4.601562 27.019531 4.785156 27.429688 4.941406 C 27.507812 4.964844 27.558594 4.964844 27.636719 4.964844 C 27.765625 4.941406 27.871094 4.941406 28.023438 4.886719 C 28.308594 4.863281 28.539062 4.785156 28.847656 4.808594 C 29.339844 4.914062 29.828125 5.121094 30.292969 5.328125 C 30.628906 5.507812 30.9375 5.664062 31.273438 5.84375 C 31.296875 5.871094 31.375 5.921875 31.402344 5.84375 C 31.425781 5.820312 31.425781 5.742188 31.402344 5.714844 C 31.375 5.691406 31.375 5.636719 31.375 5.636719 C 31.09375 5.148438 30.679688 4.785156 30.292969 4.398438 C 29.75 3.90625 29.160156 3.441406 28.539062 3.050781 C 27.613281 2.507812 26.683594 1.964844 25.679688 1.65625 C 25.394531 1.578125 25.136719 1.527344 24.90625 1.320312 C 24.828125 1.242188 24.777344 1.292969 24.722656 1.398438 C 24.699219 1.472656 24.699219 1.527344 24.699219 1.601562 C 24.699219 1.707031 24.671875 1.785156 24.570312 1.835938 C 24.390625 1.914062 24.261719 1.964844 24.078125 2.042969 C 23.589844 2.222656 23.125 2.378906 22.609375 2.484375 C 22.273438 2.558594 21.964844 2.664062 21.554688 2.613281 C 21.320312 2.585938 21.113281 2.585938 20.910156 2.429688 C 20.703125 2.300781 20.703125 2.09375 20.910156 1.941406 C 21.191406 1.734375 21.296875 1.5 21.21875 1.113281 C 21.191406 0.878906 21.011719 0.699219 20.832031 0.570312 C 20.625 0.386719 20.445312 0.179688 20.316406 -0.0507812 C 20.238281 -0.0507812 20.210938 -0.128906 20.1875 -0.128906 C 20.109375 -0.128906 20.109375 -0.0507812 20.082031 0 C 20.058594 0.234375 20.007812 0.492188 19.980469 0.75 C 19.953125 1.085938 19.902344 1.136719 19.566406 1.136719 C 19.257812 1.136719 19.234375 1.113281 19.179688 0.800781 C 19.15625 0.515625 19.105469 0.285156 19.078125 -0.0273438 C 19.078125 -0.0507812 19.050781 -0.128906 19 -0.128906 C 18.976562 -0.128906 18.921875 -0.101562 18.898438 -0.0507812 C 18.871094 0 18.871094 0.0273438 18.820312 0.0507812 C 18.742188 0.335938 18.535156 0.464844 18.332031 0.648438 C 17.890625 0.984375 17.816406 1.707031 18.332031 2.015625 C 18.433594 2.09375 18.460938 2.148438 18.433594 2.25 C 18.40625 2.378906 18.304688 2.535156 18.148438 2.558594 C 17.945312 2.535156 17.738281 2.558594 17.53125 2.558594 C 17.144531 2.558594 16.757812 2.457031 16.371094 2.378906 C 15.882812 2.277344 15.390625 2.070312 14.902344 1.886719 C 14.59375 1.914062 14.464844 1.808594 14.464844 1.550781 C 14.464844 1.421875 14.359375 1.34375 14.257812 1.449219 C 14.078125 1.628906 13.871094 1.65625 13.714844 1.734375 C 12.789062 2.015625 11.960938 2.378906 11.164062 2.898438 C 10.671875 3.207031 10.132812 3.492188 9.695312 3.878906 C 9.410156 4.085938 9.152344 4.320312 8.867188 4.578125 C 8.457031 4.914062 8.09375 5.351562 7.8125 5.820312 C 7.785156 5.84375 7.734375 5.921875 7.785156 6 C 7.8125 6.027344 7.890625 6 7.914062 6 C 8.148438 5.921875 8.351562 5.792969 8.558594 5.664062 C 8.945312 5.484375 9.308594 5.277344 9.695312 5.148438 C 9.976562 5.042969 10.285156 4.941406 10.570312 4.964844 C 10.855469 4.964844 11.113281 5.042969 11.421875 5.09375 C 11.523438 5.121094 11.628906 5.09375 11.730469 5.070312 C 12.117188 4.886719 12.476562 4.757812 12.890625 4.65625 C 13.175781 4.578125 13.433594 4.527344 13.742188 4.527344 C 13.949219 4.527344 14.152344 4.550781 14.359375 4.550781 C 14.851562 4.578125 15.3125 4.679688 15.726562 4.863281 C 15.855469 4.886719 16.011719 4.941406 16.140625 4.886719 C 16.449219 4.808594 16.757812 4.785156 17.066406 4.785156 C 17.480469 4.785156 17.917969 4.886719 18.304688 5.09375 C 18.589844 5.277344 18.792969 5.507812 18.921875 5.792969 C 18.949219 5.898438 18.949219 5.972656 18.898438 6.027344 C 18.71875 6.234375 18.613281 6.464844 18.589844 6.777344 C 18.5625 6.984375 18.460938 7.164062 18.304688 7.320312 C 18.097656 7.550781 17.996094 7.863281 17.996094 8.199219 C 17.996094 8.636719 18.175781 9.027344 18.382812 9.386719 C 18.460938 9.492188 18.484375 9.621094 18.40625 9.722656 C 18.332031 9.828125 18.277344 9.929688 18.175781 10.007812 C 17.761719 10.292969 17.300781 10.292969 16.808594 10.214844 C 16.679688 10.191406 16.601562 10.035156 16.628906 9.90625 C 16.65625 9.828125 16.707031 9.777344 16.730469 9.699219 C 16.859375 9.386719 16.835938 9 16.550781 8.820312 C 16.34375 8.691406 16.214844 8.484375 16.0625 8.300781 C 15.882812 8.070312 15.625 8.070312 15.3125 8.09375 C 15.003906 8.171875 14.875 8.328125 14.824219 8.636719 C 14.796875 8.820312 14.796875 8.949219 14.644531 9.128906 C 14.4375 9.363281 14.4375 9.621094 14.566406 9.90625 C 14.644531 10.007812 14.746094 10.085938 14.851562 10.191406 C 14.925781 10.265625 15.03125 10.320312 14.980469 10.472656 C 14.925781 10.628906 14.875 10.679688 14.746094 10.707031 C 14.539062 10.785156 14.335938 10.707031 14.128906 10.707031 C 14.023438 10.707031 13.949219 10.679688 13.84375 10.628906 C 13.742188 10.601562 13.664062 10.5 13.664062 10.398438 C 13.664062 10.292969 13.636719 10.214844 13.636719 10.113281 C 13.5625 9.621094 13.25 9.335938 12.8125 9.464844 C 12.710938 9.492188 12.683594 9.464844 12.605469 9.386719 C 12.476562 9.257812 12.296875 9.101562 12.117188 9.050781 C 11.703125 8.84375 11.242188 8.765625 10.777344 8.972656 C 10.492188 9.078125 10.46875 9.15625 10.648438 9.386719 C 10.671875 9.464844 10.671875 9.515625 10.726562 9.570312 C 11.058594 10.265625 11.472656 10.964844 11.808594 11.691406 C 11.988281 12.027344 12.144531 12.441406 12.324219 12.777344 C 12.53125 13.191406 12.734375 13.628906 12.863281 14.042969 C 12.941406 14.171875 12.992188 14.328125 13.097656 14.429688 C 13.535156 14.820312 14.078125 15.050781 14.644531 15.308594 C 15.46875 15.621094 16.242188 15.851562 17.09375 16.058594 C 17.503906 16.136719 17.96875 16.242188 18.382812 16.292969 C 18.40625 16.292969 18.589844 16.320312 18.71875 16.320312 L 10.828125 24.335938 C 10.828125 23.25 10.828125 21.90625 10.828125 20.898438 C 10.828125 20.484375 10.957031 20.121094 11.265625 19.863281 C 11.371094 19.785156 11.472656 19.679688 11.550781 19.578125 C 11.574219 19.550781 11.628906 19.5 11.574219 19.449219 C 11.523438 19.398438 11.5 19.421875 11.472656 19.421875 C 11.445312 19.421875 11.371094 19.421875 11.34375 19.421875 L 7.191406 19.421875 C 7.117188 19.421875 7.0625 19.421875 6.960938 19.421875 C 6.832031 19.421875 6.753906 19.5 6.859375 19.628906 C 6.933594 19.707031 6.988281 19.757812 7.0625 19.835938 C 7.375 20.171875 7.554688 20.585938 7.554688 21.027344 C 7.554688 24.621094 7.554688 28.164062 7.554688 31.734375 C 7.554688 31.808594 7.527344 31.863281 7.476562 31.941406 C 7.375 32.148438 7.191406 32.328125 7.0625 32.484375 C 7.039062 32.507812 6.988281 32.558594 7.039062 32.585938 C 7.0625 32.613281 7.117188 32.613281 7.140625 32.613281 C 7.167969 32.613281 7.246094 32.613281 7.269531 32.613281 C 9.125 32.613281 10.984375 32.613281 12.8125 32.613281 C 13.148438 32.613281 13.328125 32.507812 13.507812 32.222656 C 13.636719 31.941406 13.921875 31.601562 14.128906 31.292969 L 19.464844 36.722656 L 28.152344 28.007812 C 28.152344 28.992188 28.152344 30.363281 28.152344 31.34375 C 28.152344 31.527344 28.128906 31.65625 28.050781 31.835938 C 27.921875 32.148438 27.816406 32.25 27.558594 32.484375 C 27.457031 32.558594 27.535156 32.664062 27.585938 32.664062 C 29.390625 32.664062 31.273438 32.664062 33.078125 32.664062 C 33.15625 32.664062 33.207031 32.636719 33.207031 32.691406 C 33.230469 32.765625 33.179688 32.765625 33.128906 32.792969 C 32.921875 33.027344 32.691406 33.234375 32.484375 33.492188 C 32.199219 33.800781 31.890625 34.113281 31.554688 34.421875 C 31.480469 34.5 31.425781 34.527344 31.375 34.398438 C 31.351562 34.292969 31.273438 34.265625 31.167969 34.320312 C 30.835938 34.550781 30.394531 34.707031 30.007812 34.863281 C 29.878906 34.941406 29.828125 34.863281 29.878906 34.757812 C 29.90625 34.472656 29.90625 34.214844 29.90625 33.929688 C 29.90625 33.699219 29.878906 33.492188 29.777344 33.234375 C 29.699219 33.050781 29.648438 33.050781 29.546875 33.15625 C 29.441406 33.257812 29.339844 33.386719 29.210938 33.542969 C 29.003906 33.75 28.796875 33.929688 28.566406 34.085938 C 28.28125 34.320312 28.050781 34.578125 27.816406 34.863281 C 27.507812 35.25 27.277344 35.691406 27.042969 36.128906 C 26.839844 36.570312 26.734375 37.085938 26.734375 37.578125 C 26.734375 37.863281 26.605469 37.992188 26.347656 38.09375 C 25.730469 38.40625 25.058594 38.691406 24.363281 38.871094 C 23.976562 38.972656 23.617188 39.078125 23.230469 39.101562 C 23.203125 39.101562 23.125 39.128906 23.101562 39.078125 C 23.074219 39.050781 23.101562 39 23.125 38.972656 C 23.332031 38.765625 23.433594 38.484375 23.5625 38.199219 C 23.667969 38.015625 23.691406 37.863281 23.691406 37.65625 C 23.667969 37.214844 23.511719 36.800781 23.253906 36.464844 C 23.152344 36.335938 23.023438 36.234375 22.816406 36.285156 C 22.070312 36.492188 21.449219 36.828125 20.910156 37.371094 C 20.417969 37.808594 20.03125 38.40625 19.75 38.972656 C 19.671875 39.101562 19.621094 39.179688 19.4375 39.15625 C 19.335938 39.128906 19.308594 39.078125 19.257812 38.972656 C 19.050781 38.484375 18.742188 38.015625 18.382812 37.628906 C 17.789062 36.984375 17.042969 36.464844 16.214844 36.234375 C 16.035156 36.15625 15.804688 36.234375 15.699219 36.414062 C 15.597656 36.59375 15.496094 36.75 15.390625 36.929688 C 15.183594 37.449219 15.210938 37.992188 15.519531 38.484375 C 15.625 38.613281 15.699219 38.820312 15.828125 38.921875 C 15.855469 38.949219 15.90625 39 15.855469 39.027344 C 15.828125 39.050781 15.777344 39.027344 15.753906 39.027344 C 15.546875 39 15.339844 38.921875 15.132812 38.898438 C 14.257812 38.691406 13.433594 38.378906 12.605469 37.941406 C 12.503906 37.863281 12.375 37.835938 12.324219 37.707031 C 12.246094 37.5 12.195312 37.265625 12.195312 37.058594 C 12.167969 36.75 12.117188 36.464844 12.015625 36.128906 C 11.703125 35.25 11.136719 34.578125 10.441406 33.957031 C 10.132812 33.671875 9.796875 33.414062 9.488281 33.078125 C 9.308594 32.871094 9.253906 32.871094 9.152344 33.15625 C 9.152344 33.179688 9.125 33.234375 9.125 33.285156 C 9.023438 33.722656 8.996094 34.214844 9.101562 34.628906 C 9.125 34.734375 9.101562 34.808594 8.996094 34.734375 C 8.609375 34.550781 8.171875 34.421875 7.8125 34.191406 C 7.683594 34.085938 7.605469 34.085938 7.578125 34.292969 C 7.554688 34.398438 7.554688 34.398438 7.449219 34.320312 C 7.246094 34.113281 7.039062 33.929688 6.832031 33.722656 C 6.652344 33.542969 6.523438 33.386719 6.34375 33.207031 C 5.957031 32.820312 5.570312 32.378906 5.207031 31.964844 C 5.027344 31.757812 4.871094 31.578125 4.71875 31.371094 C 4.640625 31.265625 4.640625 31.191406 4.71875 31.085938 C 4.820312 30.984375 4.898438 30.878906 4.949219 30.777344 C 5.542969 29.921875 5.828125 28.992188 5.722656 27.957031 C 5.699219 27.621094 5.621094 27.207031 5.441406 26.871094 C 5.335938 26.636719 5.15625 26.429688 5.105469 26.121094 C 5.105469 26.042969 5.105469 25.992188 5 25.992188 C 4.925781 25.992188 4.925781 26.09375 4.898438 26.121094 C 4.71875 26.535156 4.5625 26.972656 4.253906 27.308594 C 4.175781 27.386719 4.152344 27.386719 4.074219 27.308594 C 3.996094 27.207031 3.894531 27.101562 3.789062 26.972656 C 3.480469 26.636719 3.25 26.277344 3.09375 25.808594 C 3.09375 25.785156 3.066406 25.734375 3.066406 25.734375 C 2.863281 25.65625 2.886719 25.5 2.886719 25.34375 C 2.886719 25.058594 2.886719 24.800781 2.863281 24.464844 C 2.863281 24.363281 2.863281 24.257812 2.9375 24.179688 C 3.351562 23.765625 3.789062 23.351562 4.203125 22.941406 C 4.589844 22.527344 4.820312 22.007812 5.054688 21.492188 C 5.183594 21.050781 5.257812 20.558594 5.234375 20.09375 C 5.207031 19.808594 5.15625 19.578125 5.027344 19.265625 C 5 19.242188 5 19.164062 4.925781 19.164062 C 4.847656 19.164062 4.847656 19.242188 4.820312 19.265625 C 4.71875 19.5 4.589844 19.757812 4.332031 19.886719 C 4.226562 19.964844 4.097656 20.070312 3.945312 20.121094 C 3.710938 20.300781 3.710938 20.300781 3.609375 20.015625 C 3.480469 19.472656 3.195312 18.929688 2.863281 18.464844 C 2.835938 18.386719 2.785156 18.335938 2.734375 18.335938 C 2.65625 18.335938 2.65625 18.441406 2.628906 18.515625 L 2.628906 18.621094 C 2.5 19.113281 2.320312 19.601562 1.984375 20.015625 C 1.882812 20.121094 1.804688 20.222656 1.703125 20.300781 C 1.625 20.328125 1.597656 20.328125 1.574219 20.300781 C 1.390625 20.09375 1.1875 19.886719 1.03125 19.707031 C 0.800781 19.472656 0.644531 19.191406 0.515625 18.878906 C 0.488281 18.851562 0.488281 18.777344 0.414062 18.777344 C 0.257812 18.828125 0.257812 18.851562 0.285156 18.929688 C 0.308594 19.136719 0.285156 19.371094 0.207031 19.578125 C 0.101562 20.070312 0 20.613281 0 21.078125 C -0.0273438 21.722656 0.0273438 22.371094 0.414062 22.941406 C 0.644531 23.328125 0.929688 23.714844 1.367188 23.921875 C 1.648438 24.101562 1.703125 24.363281 1.855469 24.671875 C 1.832031 25.421875 1.882812 26.148438 1.960938 26.84375 C 1.960938 26.921875 2.035156 27.027344 1.960938 27.050781 C 1.882812 27.078125 1.832031 26.972656 1.753906 26.949219 C 1.648438 26.84375 1.546875 26.742188 1.445312 26.636719 C 1.339844 26.558594 1.261719 26.558594 1.238281 26.714844 C 1.109375 27.335938 1.03125 28.007812 1.109375 28.679688 C 1.1875 29.351562 1.496094 29.871094 1.933594 30.363281 C 2.320312 30.800781 2.863281 31.113281 3.402344 31.320312 C 3.480469 31.34375 3.582031 31.398438 3.609375 31.421875 C 3.917969 31.835938 4.253906 32.25 4.589844 32.613281 C 5 33.128906 5.441406 33.59375 5.878906 34.085938 C 6.058594 34.265625 6.214844 34.421875 6.367188 34.601562 C 6.652344 34.914062 6.960938 35.222656 7.296875 35.535156 C 7.425781 35.664062 7.605469 35.765625 7.632812 35.972656 C 7.734375 36.492188 8.042969 36.90625 8.457031 37.242188 C 8.480469 37.265625 8.585938 37.320312 8.558594 37.371094 C 8.535156 37.421875 8.457031 37.449219 8.378906 37.449219 C 8.09375 37.527344 7.863281 37.578125 7.605469 37.734375 C 7.375 37.863281 7.117188 37.964844 6.910156 38.148438 C 6.804688 38.25 6.804688 38.277344 6.933594 38.328125 C 7.167969 38.40625 7.425781 38.457031 7.632812 38.558594 C 8.148438 38.792969 8.6875 39.050781 9.28125 39.207031 C 9.71875 39.335938 10.15625 39.386719 10.648438 39.285156 C 11.085938 39.179688 11.523438 39.050781 11.9375 38.871094 C 12.015625 38.84375 12.066406 38.792969 12.117188 38.84375 C 12.402344 38.972656 12.660156 39.078125 12.96875 39.179688 C 13.378906 39.363281 13.84375 39.515625 14.257812 39.671875 C 14.773438 39.851562 15.339844 39.984375 15.90625 40.085938 C 16.320312 40.164062 16.757812 40.265625 17.171875 40.292969 C 17.351562 40.320312 17.503906 40.265625 17.6875 40.371094 C 17.890625 40.472656 18.097656 40.550781 18.304688 40.578125 C 18.433594 40.601562 18.40625 40.65625 18.332031 40.757812 C 18.019531 41.070312 17.632812 41.300781 17.246094 41.507812 C 16.601562 41.820312 15.855469 41.949219 15.109375 42.050781 C 14.59375 42.128906 14.078125 42.234375 13.5625 42.257812 C 13.535156 42.257812 13.484375 42.285156 13.484375 42.335938 C 13.484375 42.363281 13.507812 42.363281 13.507812 42.414062 C 13.613281 42.515625 13.742188 42.515625 13.894531 42.59375 C 14.335938 42.777344 14.851562 42.90625 15.339844 42.929688 C 15.367188 42.929688 15.441406 42.929688 15.46875 42.957031 C 15.46875 42.984375 15.441406 43.035156 15.390625 43.058594 C 15.109375 43.449219 14.851562 43.835938 14.644531 44.300781 C 14.566406 44.507812 14.515625 44.691406 14.515625 44.898438 C 14.515625 45.027344 14.59375 45.078125 14.695312 45 C 14.875 44.898438 15.003906 44.820312 15.183594 44.714844 C 15.675781 44.40625 16.164062 44.09375 16.628906 43.679688 C 17.042969 43.371094 17.480469 43.035156 17.867188 42.648438 C 18.097656 42.441406 18.382812 42.207031 18.640625 41.949219 C 18.847656 41.742188 19.078125 41.535156 19.335938 41.328125 C 19.414062 41.25 19.4375 41.300781 19.464844 41.328125 C 19.800781 41.636719 20.160156 41.949219 20.523438 42.285156 C 20.832031 42.570312 21.140625 42.828125 21.5 43.136719 C 21.8125 43.371094 22.144531 43.628906 22.480469 43.886719 C 22.867188 44.199219 23.253906 44.429688 23.640625 44.714844 C 23.820312 44.820312 23.976562 44.921875 24.15625 45.027344 C 24.183594 45.050781 24.261719 45.101562 24.335938 45.027344 C 24.363281 45 24.363281 44.949219 24.363281 44.898438 C 24.335938 44.558594 24.183594 44.25 24.027344 43.941406 C 23.847656 43.65625 23.691406 43.398438 23.488281 43.085938 C 23.410156 43.007812 23.410156 42.957031 23.5625 42.957031 C 23.796875 42.957031 24.003906 42.878906 24.261719 42.828125 C 24.648438 42.722656 25.007812 42.621094 25.34375 42.441406 C 25.367188 42.414062 25.445312 42.414062 25.445312 42.335938 C 25.445312 42.257812 25.367188 42.257812 25.316406 42.257812 C 25.109375 42.234375 24.878906 42.179688 24.671875 42.15625 C 24.078125 42.050781 23.488281 41.972656 22.894531 41.84375 C 22.121094 41.664062 21.425781 41.351562 20.78125 40.863281 C 20.703125 40.785156 20.597656 40.757812 20.597656 40.65625 C 20.597656 40.550781 20.726562 40.550781 20.832031 40.527344 C 21.039062 40.449219 21.21875 40.34375 21.425781 40.320312 C 21.734375 40.292969 22.042969 40.292969 22.378906 40.214844 C 23.203125 40.085938 24.027344 39.90625 24.800781 39.621094 C 25.496094 39.386719 26.195312 39.101562 26.914062 38.792969 C 26.992188 38.765625 27.019531 38.765625 27.097656 38.792969 C 27.378906 38.898438 27.636719 39 27.945312 39.078125 C 28.359375 39.179688 28.773438 39.285156 29.183594 39.257812 C 29.675781 39.179688 30.164062 39.050781 30.628906 38.871094 C 31.117188 38.664062 31.582031 38.429688 32.097656 38.277344 C 32.175781 38.277344 32.277344 38.277344 32.277344 38.171875 C 32.277344 38.09375 32.199219 38.042969 32.148438 37.992188 C 31.738281 37.757812 31.273438 37.472656 30.78125 37.371094 C 30.707031 37.371094 30.652344 37.371094 30.652344 37.292969 C 30.652344 37.214844 30.679688 37.191406 30.757812 37.164062 C 31.167969 36.828125 31.453125 36.335938 31.609375 35.820312 C 31.632812 35.714844 31.683594 35.636719 31.738281 35.585938 C 31.867188 35.484375 32.019531 35.351562 32.148438 35.199219 C 32.355469 34.992188 32.585938 34.757812 32.792969 34.550781 C 33.101562 34.214844 33.4375 33.851562 33.773438 33.464844 C 34.316406 32.84375 34.855469 32.171875 35.371094 31.550781 C 35.550781 31.320312 35.757812 31.164062 36.015625 31.113281 C 36.144531 31.085938 36.300781 31.007812 36.402344 30.929688 C 36.816406 30.699219 37.175781 30.414062 37.460938 30 C 37.691406 29.664062 37.898438 29.300781 37.976562 28.863281 C 38.078125 28.421875 38.054688 27.929688 38 27.515625 C 37.976562 27.234375 37.925781 26.921875 37.871094 26.636719 C 37.847656 26.507812 37.796875 26.507812 37.691406 26.558594 C 37.589844 26.664062 37.460938 26.765625 37.355469 26.871094 C 37.28125 26.898438 37.253906 27 37.175781 26.972656 C 37.097656 26.949219 37.152344 26.84375 37.152344 26.765625 C 37.226562 26.351562 37.253906 25.914062 37.253906 25.527344 C 37.253906 25.242188 37.253906 24.929688 37.253906 24.648438 C 37.253906 24.570312 37.253906 24.464844 37.332031 24.414062 C 37.410156 24.308594 37.460938 24.179688 37.539062 24.078125 C 37.5625 24 37.613281 23.972656 37.667969 23.949219 C 37.976562 23.820312 38.207031 23.558594 38.492188 23.300781 C 38.722656 22.992188 38.929688 22.65625 39.007812 22.242188 C 39.03125 21.777344 39.109375 21.335938 39.03125 20.921875 Z M 27.636719 4.421875 C 27.742188 4.136719 27.945312 4.085938 28.179688 4.085938 C 28.566406 4.058594 28.925781 4.191406 29.261719 4.320312 C 29.675781 4.5 30.035156 4.757812 30.394531 5.09375 C 30.472656 5.171875 30.523438 5.277344 30.601562 5.328125 C 30.292969 5.222656 30.007812 5.015625 29.675781 4.914062 C 29.261719 4.785156 28.847656 4.601562 28.410156 4.601562 C 28.203125 4.601562 28 4.628906 27.792969 4.707031 C 27.6875 4.734375 27.585938 4.785156 27.507812 4.707031 C 27.507812 4.601562 27.613281 4.527344 27.636719 4.421875 Z M 23.511719 4.242188 C 23.796875 3.59375 24.15625 3.050781 24.851562 2.742188 C 25.1875 2.558594 25.625 2.613281 25.9375 2.921875 C 26.425781 3.414062 26.914062 3.957031 27.277344 4.578125 C 27.300781 4.601562 27.300781 4.65625 27.355469 4.679688 C 26.839844 4.449219 26.324219 4.265625 25.78125 4.191406 C 25.496094 4.136719 25.214844 4.136719 24.90625 4.136719 C 24.464844 4.136719 24.027344 4.265625 23.617188 4.34375 C 23.433594 4.34375 23.488281 4.320312 23.511719 4.242188 Z M 20.289062 4.808594 C 20.417969 4.320312 20.417969 3.777344 20.46875 3.257812 C 20.46875 3.15625 20.496094 3.078125 20.652344 3.128906 C 21.167969 3.257812 21.628906 3.515625 22.09375 3.777344 C 22.328125 3.90625 22.53125 4.058594 22.738281 4.265625 C 22.765625 4.292969 22.84375 4.34375 22.84375 4.449219 C 22.25 4.371094 21.65625 4.371094 21.0625 4.472656 C 20.855469 4.5 20.675781 4.65625 20.46875 4.757812 C 20.445312 4.785156 20.394531 4.835938 20.367188 4.835938 C 20.339844 4.808594 20.289062 4.863281 20.289062 4.808594 C 20.289062 4.835938 20.289062 4.808594 20.289062 4.808594 Z M 11.265625 4.707031 C 11.035156 4.628906 10.75 4.601562 10.492188 4.578125 C 10.390625 4.578125 10.3125 4.578125 10.261719 4.578125 C 9.71875 4.707031 9.179688 4.886719 8.6875 5.171875 C 8.609375 5.199219 8.585938 5.25 8.480469 5.277344 C 8.507812 5.09375 8.664062 5.042969 8.714844 4.941406 C 8.84375 4.808594 9.023438 4.65625 9.203125 4.550781 C 9.589844 4.34375 9.976562 4.164062 10.390625 4.058594 C 10.671875 4.035156 10.984375 4.035156 11.242188 4.242188 C 11.34375 4.34375 11.371094 4.449219 11.421875 4.578125 C 11.421875 4.65625 11.371094 4.707031 11.265625 4.707031 Z M 15.46875 4.34375 C 15.441406 4.371094 15.289062 4.34375 15.183594 4.320312 C 14.746094 4.214844 14.257812 4.113281 13.792969 4.136719 C 13.199219 4.136719 12.632812 4.242188 12.089844 4.472656 C 11.988281 4.550781 11.859375 4.578125 11.679688 4.601562 C 11.960938 4.164062 12.21875 3.722656 12.605469 3.363281 C 12.8125 3.15625 12.992188 2.921875 13.226562 2.742188 C 13.535156 2.535156 13.84375 2.535156 14.179688 2.664062 C 14.773438 2.949219 15.132812 3.441406 15.417969 3.957031 C 15.441406 4.136719 15.519531 4.242188 15.46875 4.34375 Z M 18.613281 4.886719 C 18.535156 4.914062 18.484375 4.808594 18.40625 4.757812 C 18.097656 4.578125 17.761719 4.472656 17.351562 4.449219 C 16.9375 4.421875 16.527344 4.449219 16.085938 4.449219 C 16.292969 4.164062 16.527344 4.007812 16.785156 3.851562 C 17.09375 3.648438 17.429688 3.515625 17.816406 3.335938 C 17.945312 3.257812 18.125 3.234375 18.304688 3.15625 C 18.40625 3.128906 18.484375 3.15625 18.484375 3.285156 C 18.484375 3.722656 18.5625 4.214844 18.613281 4.628906 C 18.613281 4.707031 18.71875 4.808594 18.613281 4.886719 Z M 9.640625 25.964844 L 11.652344 23.949219 L 11.652344 28.035156 Z M 12.117188 30.335938 C 11.78125 30.335938 11.421875 30.335938 11.035156 30.335938 C 10.90625 30.335938 10.828125 30.257812 10.828125 30.128906 C 10.828125 29.484375 10.828125 28.527344 10.828125 27.800781 L 11.679688 28.65625 L 13.328125 30.308594 C 12.941406 30.335938 12.425781 30.335938 12.117188 30.335938 Z M 12.582031 12.078125 C 12.375 11.742188 12.246094 11.378906 12.066406 11.015625 C 11.78125 10.5 11.523438 9.957031 11.214844 9.414062 C 11.1875 9.386719 11.136719 9.308594 11.136719 9.234375 C 11.136719 9.15625 11.164062 9.128906 11.242188 9.101562 C 11.628906 9.027344 12.195312 9.308594 12.402344 9.648438 C 12.476562 9.75 12.53125 9.828125 12.683594 9.722656 C 12.863281 9.621094 13.070312 9.699219 13.121094 9.90625 C 13.148438 9.984375 13.148438 10.085938 13.199219 10.136719 C 13.199219 10.449219 13.378906 10.679688 13.636719 10.785156 C 13.949219 10.886719 14.257812 10.964844 14.617188 10.964844 C 14.953125 10.941406 15.160156 10.757812 15.3125 10.472656 C 15.417969 10.265625 15.417969 10.035156 15.289062 9.828125 C 15.210938 9.722656 15.160156 9.699219 15.082031 9.621094 C 14.902344 9.441406 14.902344 9.308594 15.082031 9.128906 C 15.183594 9.050781 15.210938 8.949219 15.183594 8.84375 C 15.183594 8.820312 15.183594 8.742188 15.183594 8.714844 C 15.183594 8.585938 15.261719 8.484375 15.390625 8.429688 C 15.597656 8.40625 15.726562 8.457031 15.804688 8.613281 C 15.882812 8.765625 15.933594 8.898438 16.113281 8.949219 C 16.292969 9.050781 16.320312 9.234375 16.242188 9.386719 C 16.164062 9.59375 16.113281 9.777344 16.113281 9.984375 C 16.113281 10.164062 16.191406 10.265625 16.292969 10.371094 C 16.421875 10.472656 16.601562 10.550781 16.808594 10.550781 C 17.015625 10.550781 17.222656 10.578125 17.453125 10.550781 C 17.867188 10.449219 18.304688 10.34375 18.613281 10.007812 C 18.820312 9.777344 18.921875 9.179688 18.613281 8.84375 C 18.277344 8.429688 18.203125 7.785156 18.613281 7.371094 C 18.820312 7.164062 18.847656 6.878906 18.949219 6.59375 C 19.027344 6.414062 19.078125 6.207031 19.285156 6.101562 C 19.414062 6.027344 19.566406 6.078125 19.671875 6.179688 C 19.851562 6.363281 19.953125 6.59375 19.980469 6.800781 C 20.007812 7.035156 20.109375 7.214844 20.289062 7.398438 C 20.703125 7.835938 20.597656 8.457031 20.265625 8.871094 C 20.082031 9.078125 20.058594 9.308594 20.136719 9.621094 C 20.238281 10.035156 20.523438 10.265625 20.960938 10.449219 C 21.269531 10.550781 21.554688 10.65625 21.835938 10.628906 C 22.070312 10.628906 22.273438 10.601562 22.480469 10.527344 C 22.867188 10.34375 22.894531 10.113281 22.789062 9.699219 C 22.765625 9.621094 22.714844 9.570312 22.6875 9.464844 C 22.609375 9.257812 22.6875 9.050781 22.894531 8.949219 C 22.996094 8.871094 23.074219 8.820312 23.101562 8.714844 C 23.175781 8.484375 23.332031 8.40625 23.539062 8.484375 C 23.71875 8.507812 23.71875 8.691406 23.71875 8.820312 C 23.71875 9 23.71875 9.128906 23.898438 9.234375 C 24.027344 9.335938 24.003906 9.515625 23.898438 9.648438 C 23.875 9.671875 23.820312 9.75 23.769531 9.777344 C 23.433594 10.058594 23.488281 10.527344 23.769531 10.835938 C 24.003906 11.070312 24.285156 11.148438 24.648438 11.121094 C 24.878906 11.09375 25.136719 11.042969 25.34375 10.941406 C 25.574219 10.863281 25.753906 10.601562 25.753906 10.34375 C 25.753906 10.214844 25.78125 10.113281 25.832031 10.007812 C 25.910156 9.828125 26.117188 9.777344 26.246094 9.828125 C 26.453125 9.90625 26.453125 9.90625 26.582031 9.75 C 26.863281 9.414062 27.199219 9.234375 27.636719 9.234375 C 27.816406 9.234375 27.871094 9.308594 27.765625 9.441406 C 27.457031 9.984375 27.171875 10.601562 26.839844 11.148438 C 26.65625 11.457031 26.527344 11.792969 26.347656 12.128906 C 26.269531 12.234375 26.246094 12.234375 26.140625 12.15625 C 25.859375 11.921875 25.523438 11.765625 25.164062 11.664062 C 24.621094 11.484375 24.078125 11.351562 23.511719 11.222656 C 22.917969 11.09375 22.273438 11.015625 21.707031 10.914062 C 21.113281 10.835938 20.46875 10.808594 19.851562 10.785156 C 19.414062 10.757812 18.898438 10.785156 18.460938 10.785156 C 17.816406 10.808594 17.117188 10.886719 16.472656 10.992188 C 15.882812 11.09375 15.238281 11.199219 14.667969 11.328125 C 14.179688 11.457031 13.691406 11.558594 13.226562 11.765625 C 13.046875 11.871094 12.839844 11.949219 12.710938 12.101562 C 12.683594 12.234375 12.605469 12.179688 12.582031 12.078125 Z M 13.148438 13.5 C 13.046875 13.214844 12.941406 12.957031 12.839844 12.648438 C 12.8125 12.542969 12.917969 12.464844 12.96875 12.414062 C 13.070312 12.308594 13.199219 12.234375 13.378906 12.179688 C 14.308594 11.84375 15.261719 11.636719 16.214844 11.40625 C 16.808594 11.300781 17.453125 11.277344 18.074219 11.171875 C 18.382812 11.148438 18.664062 11.09375 18.949219 11.148438 C 19.386719 11.148438 19.878906 11.148438 20.289062 11.148438 C 20.675781 11.171875 21.0625 11.171875 21.476562 11.25 C 21.785156 11.277344 22.09375 11.328125 22.429688 11.351562 C 22.867188 11.429688 23.359375 11.535156 23.820312 11.636719 C 24.441406 11.765625 25.085938 11.972656 25.679688 12.179688 C 25.808594 12.257812 25.960938 12.363281 26.089844 12.414062 C 26.195312 12.492188 26.21875 12.621094 26.167969 12.722656 C 26.066406 12.929688 25.988281 13.136719 25.9375 13.34375 C 25.882812 13.550781 25.808594 13.578125 25.601562 13.472656 C 25.292969 13.265625 24.90625 13.191406 24.542969 13.085938 C 24.027344 12.957031 23.488281 12.800781 22.972656 12.75 C 22.429688 12.648438 21.886719 12.570312 21.320312 12.515625 C 20.910156 12.441406 20.445312 12.414062 20.03125 12.386719 C 19.644531 12.386719 19.257812 12.363281 18.871094 12.386719 C 18.640625 12.414062 18.433594 12.464844 18.175781 12.464844 C 17.890625 12.464844 17.632812 12.542969 17.324219 12.570312 C 16.835938 12.59375 16.371094 12.699219 15.882812 12.800781 C 15.339844 12.90625 14.746094 13.035156 14.207031 13.191406 C 13.921875 13.265625 13.664062 13.371094 13.433594 13.527344 C 13.277344 13.65625 13.199219 13.601562 13.148438 13.5 Z M 17.015625 13.164062 C 16.679688 13.242188 16.371094 13.242188 15.984375 13.292969 C 15.699219 13.371094 15.441406 13.398438 15.132812 13.472656 C 14.851562 13.550781 14.617188 13.578125 14.308594 13.679688 C 14.179688 13.707031 14.078125 13.785156 13.921875 13.808594 C 13.714844 13.886719 13.691406 14.09375 13.820312 14.25 C 13.84375 14.277344 13.84375 14.277344 13.894531 14.328125 C 13.820312 14.351562 13.765625 14.328125 13.714844 14.300781 C 13.613281 14.277344 13.535156 14.199219 13.484375 14.121094 C 13.304688 13.992188 13.355469 13.835938 13.507812 13.734375 C 13.820312 13.550781 14.207031 13.449219 14.566406 13.34375 C 15.003906 13.242188 15.496094 13.136719 15.933594 13.058594 C 16.449219 12.957031 16.988281 12.878906 17.503906 12.828125 C 18.046875 12.75 18.589844 12.722656 19.15625 12.699219 C 19.695312 12.671875 20.289062 12.699219 20.832031 12.777344 C 21.683594 12.851562 22.53125 12.957031 23.382812 13.164062 C 24.003906 13.292969 24.648438 13.449219 25.265625 13.679688 C 25.394531 13.757812 25.550781 13.785156 25.601562 13.914062 C 25.601562 13.941406 25.625 13.992188 25.601562 14.015625 C 25.523438 14.148438 25.214844 14.328125 25.058594 14.328125 C 25.085938 14.300781 25.136719 14.25 25.164062 14.222656 C 25.292969 14.042969 25.238281 13.886719 25.035156 13.808594 C 24.492188 13.601562 23.898438 13.5 23.359375 13.371094 C 22.738281 13.242188 22.09375 13.136719 21.449219 13.058594 C 20.804688 12.984375 20.082031 12.929688 19.4375 12.957031 C 18.5625 13.007812 17.789062 13.007812 17.015625 13.164062 Z M 16.140625 32.429688 L 13.972656 30.257812 L 13.972656 21.621094 L 16.140625 19.449219 Z M 20.574219 34.734375 L 19.492188 35.820312 L 18.40625 34.734375 L 18.40625 17.148438 L 19.492188 16.058594 L 20.574219 17.148438 Z M 25.035156 30.285156 L 22.867188 32.457031 L 22.867188 19.472656 L 25.035156 21.648438 Z M 27.328125 27.984375 L 27.328125 23.921875 L 29.339844 25.941406 Z M 1.289062 21.078125 C 1.210938 21.308594 1.1875 21.59375 1.1875 21.851562 C 1.1875 21.878906 1.1875 21.929688 1.160156 21.984375 C 1.058594 21.851562 1.03125 21.699219 1.03125 21.542969 C 1.003906 21.257812 0.953125 20.949219 0.902344 20.664062 C 0.902344 20.585938 0.875 20.535156 0.824219 20.484375 C 0.824219 20.457031 0.800781 20.40625 0.746094 20.40625 C 0.695312 20.40625 0.671875 20.484375 0.722656 20.507812 C 0.800781 20.742188 0.800781 21.027344 0.824219 21.335938 C 0.824219 21.363281 0.851562 21.414062 0.824219 21.441406 C 0.746094 21.929688 0.851562 22.421875 1.003906 22.886719 C 0.824219 22.757812 0.722656 22.578125 0.671875 22.398438 C 0.488281 21.984375 0.359375 21.515625 0.4375 21.050781 C 0.464844 20.664062 0.464844 20.300781 0.566406 19.964844 C 0.566406 19.886719 0.59375 19.835938 0.671875 19.785156 C 0.746094 19.785156 0.773438 19.863281 0.800781 19.886719 C 0.902344 20.015625 1.03125 20.121094 1.132812 20.222656 C 1.261719 20.484375 1.417969 20.714844 1.289062 21.078125 Z M 3.738281 22.292969 C 4.023438 22.058594 4.175781 21.75 4.355469 21.414062 C 4.433594 21.234375 4.484375 21.078125 4.539062 20.898438 C 4.539062 20.871094 4.5625 20.792969 4.511719 20.792969 C 4.433594 20.765625 4.433594 20.820312 4.410156 20.871094 C 4.28125 21.101562 4.125 21.363281 3.917969 21.515625 C 3.894531 21.542969 3.839844 21.59375 3.816406 21.542969 C 3.789062 21.515625 3.789062 21.464844 3.789062 21.414062 C 3.816406 21.308594 3.789062 21.179688 3.789062 21.078125 C 3.789062 20.792969 3.917969 20.636719 4.125 20.484375 C 4.304688 20.351562 4.511719 20.25 4.667969 20.09375 C 4.769531 20.015625 4.847656 20.070312 4.847656 20.199219 C 4.871094 20.691406 4.742188 21.15625 4.539062 21.59375 C 4.355469 21.984375 4.125 22.371094 3.789062 22.65625 C 3.6875 22.757812 3.582031 22.835938 3.480469 22.886719 L 3.453125 22.863281 C 3.609375 22.679688 3.558594 22.449219 3.738281 22.292969 Z M 1.960938 23.765625 L 1.933594 23.765625 C 1.804688 23.558594 1.726562 23.351562 1.648438 23.121094 C 1.46875 22.472656 1.574219 21.75 1.726562 21.101562 C 1.804688 20.820312 1.960938 20.664062 2.113281 20.457031 C 2.398438 20.121094 2.65625 19.707031 2.863281 19.265625 C 3.066406 19.472656 3.144531 19.707031 3.195312 19.914062 C 3.402344 20.40625 3.429688 20.898438 3.402344 21.386719 C 3.378906 21.984375 3.222656 22.578125 2.992188 23.148438 C 2.886719 23.351562 2.785156 23.558594 2.65625 23.742188 C 2.578125 23.792969 2.5 23.765625 2.421875 23.664062 C 2.320312 23.378906 2.292969 23.121094 2.347656 22.785156 C 2.449219 22.242188 2.550781 21.699219 2.679688 21.128906 C 2.707031 20.949219 2.679688 20.792969 2.679688 20.613281 C 2.679688 20.585938 2.679688 20.535156 2.605469 20.507812 C 2.578125 20.507812 2.578125 20.535156 2.578125 20.585938 C 2.5 21.179688 2.269531 21.75 2.089844 22.292969 C 2.011719 22.578125 1.90625 22.886719 1.90625 23.222656 C 1.933594 23.429688 1.960938 23.585938 1.960938 23.765625 Z M 2.785156 30.414062 C 2.757812 30.441406 2.707031 30.414062 2.679688 30.414062 C 2.5 30.308594 2.371094 30.207031 2.269531 30.078125 C 1.855469 29.664062 1.496094 29.199219 1.417969 28.628906 C 1.339844 28.292969 1.339844 27.929688 1.417969 27.570312 C 1.417969 27.492188 1.417969 27.441406 1.445312 27.363281 C 1.46875 27.257812 1.546875 27.234375 1.625 27.285156 C 1.804688 27.492188 1.933594 27.699219 2.113281 27.90625 C 2.191406 28.007812 2.191406 28.113281 2.191406 28.214844 C 2.191406 28.398438 2.269531 28.550781 2.21875 28.757812 C 2.035156 28.550781 1.984375 28.320312 1.882812 28.113281 C 1.855469 28.035156 1.855469 27.878906 1.753906 27.90625 C 1.648438 27.90625 1.675781 28.035156 1.675781 28.136719 C 1.703125 28.679688 1.882812 29.199219 2.21875 29.636719 C 2.398438 29.871094 2.550781 30.128906 2.757812 30.335938 C 2.785156 30.386719 2.785156 30.386719 2.785156 30.414062 Z M 4.023438 30.285156 C 3.996094 30.386719 3.996094 30.515625 3.894531 30.570312 C 3.789062 30.59375 3.765625 30.441406 3.710938 30.363281 C 3.609375 30.15625 3.53125 29.921875 3.507812 29.714844 C 3.429688 29.171875 3.429688 28.628906 3.429688 28.058594 C 3.429688 27.878906 3.351562 27.722656 3.324219 27.542969 C 3.324219 27.515625 3.300781 27.414062 3.222656 27.441406 C 3.144531 27.441406 3.144531 27.542969 3.195312 27.570312 C 3.273438 27.984375 3.195312 28.421875 3.222656 28.835938 C 3.222656 29.042969 3.195312 29.277344 3.195312 29.484375 C 3.195312 29.691406 3.222656 29.898438 3.222656 30.101562 C 3.222656 30.128906 3.25 30.179688 3.222656 30.207031 C 3.195312 30.207031 3.144531 30.179688 3.144531 30.128906 C 3.015625 30 2.9375 29.820312 2.863281 29.636719 C 2.679688 29.148438 2.550781 28.65625 2.550781 28.136719 C 2.578125 27.699219 2.628906 27.179688 2.863281 26.765625 C 2.886719 26.691406 2.9375 26.585938 2.964844 26.535156 C 3.066406 26.40625 3.144531 26.40625 3.195312 26.535156 C 3.273438 26.664062 3.378906 26.765625 3.429688 26.921875 C 3.609375 27.15625 3.816406 27.414062 3.945312 27.699219 C 4.125 28.085938 4.226562 28.472656 4.226562 28.679688 C 4.203125 29.328125 4.152344 29.792969 4.023438 30.285156 Z M 4.410156 30.59375 C 4.332031 30.570312 4.382812 30.492188 4.382812 30.464844 C 4.460938 30.15625 4.589844 29.921875 4.769531 29.636719 C 5.078125 29.09375 5.285156 28.449219 5.15625 27.777344 C 5.15625 27.671875 5.128906 27.570312 5.128906 27.492188 C 5.128906 27.464844 5.105469 27.414062 5.054688 27.414062 C 5 27.414062 5.027344 27.492188 5.027344 27.515625 C 5.027344 27.648438 5.027344 27.828125 5.027344 27.957031 C 5.027344 28.265625 4.949219 28.578125 4.820312 28.886719 C 4.820312 28.914062 4.796875 28.992188 4.71875 28.992188 C 4.640625 28.992188 4.640625 28.914062 4.640625 28.886719 C 4.613281 28.550781 4.5625 28.191406 4.433594 27.851562 C 4.410156 27.777344 4.433594 27.75 4.460938 27.671875 C 4.667969 27.386719 4.847656 27.128906 5 26.792969 C 5 26.765625 5.027344 26.714844 5.078125 26.714844 C 5.128906 26.714844 5.15625 26.792969 5.15625 26.820312 C 5.363281 27.257812 5.492188 27.777344 5.464844 28.265625 C 5.441406 28.914062 5.285156 29.613281 4.925781 30.15625 C 4.820312 30.285156 4.691406 30.441406 4.589844 30.570312 C 4.511719 30.59375 4.484375 30.621094 4.410156 30.59375 Z M 10.671875 38.792969 C 10.082031 39.027344 9.4375 38.972656 8.894531 38.714844 C 8.480469 38.535156 8.042969 38.328125 7.632812 38.171875 C 7.527344 38.148438 7.605469 38.070312 7.632812 38.070312 C 7.761719 37.992188 7.914062 37.941406 8.019531 37.863281 C 8.300781 37.757812 8.558594 37.679688 8.894531 37.65625 C 9.023438 37.65625 9.125 37.679688 9.230469 37.757812 C 9.617188 37.886719 10.003906 38.042969 10.390625 38.171875 C 10.414062 38.199219 10.492188 38.199219 10.519531 38.277344 C 10.132812 38.300781 9.769531 38.25 9.382812 38.171875 C 8.972656 38.070312 8.535156 38.042969 8.09375 38.070312 C 8.070312 38.070312 7.992188 38.070312 7.992188 38.148438 C 7.992188 38.222656 8.070312 38.222656 8.09375 38.222656 C 8.40625 38.222656 8.738281 38.300781 9.074219 38.351562 C 9.308594 38.429688 9.566406 38.484375 9.824219 38.558594 C 10.105469 38.636719 10.363281 38.691406 10.671875 38.742188 C 10.699219 38.742188 10.777344 38.765625 10.800781 38.765625 C 10.800781 38.792969 10.75 38.792969 10.671875 38.792969 Z M 8.6875 35.820312 C 8.765625 35.898438 8.867188 35.921875 8.921875 35.949219 C 9.203125 36.128906 9.4375 36.335938 9.695312 36.570312 C 10.082031 36.957031 10.46875 37.34375 10.878906 37.707031 C 10.90625 37.734375 10.957031 37.734375 10.957031 37.808594 C 10.777344 37.785156 10.621094 37.734375 10.441406 37.707031 C 9.847656 37.5 9.28125 37.292969 8.765625 36.957031 C 8.328125 36.671875 8.070312 36.257812 7.890625 35.714844 C 7.785156 35.40625 7.863281 35.09375 7.863281 34.757812 C 7.863281 34.578125 7.941406 34.550781 8.070312 34.628906 C 8.480469 34.757812 8.921875 34.941406 9.308594 35.171875 C 9.847656 35.484375 10.363281 35.949219 10.777344 36.414062 C 11.058594 36.699219 11.265625 37.007812 11.472656 37.34375 C 11.5 37.371094 11.5 37.449219 11.550781 37.527344 C 11.113281 37.449219 10.777344 37.214844 10.46875 36.984375 C 10.234375 36.800781 10.027344 36.59375 9.824219 36.386719 C 9.539062 36.101562 9.203125 35.898438 8.792969 35.742188 C 8.765625 35.742188 8.765625 35.714844 8.714844 35.714844 C 8.664062 35.714844 8.636719 35.714844 8.609375 35.742188 C 8.609375 35.742188 8.664062 35.792969 8.6875 35.820312 Z M 12.015625 36.984375 C 11.988281 36.984375 11.9375 36.957031 11.9375 36.90625 C 11.808594 36.671875 11.730469 36.414062 11.601562 36.207031 C 11.421875 35.921875 11.214844 35.664062 10.984375 35.378906 C 10.671875 35.09375 10.390625 34.785156 10.105469 34.449219 C 10.082031 34.421875 10.027344 34.34375 10.003906 34.371094 C 9.925781 34.398438 9.976562 34.472656 9.976562 34.5 C 10.082031 34.785156 10.285156 34.941406 10.46875 35.148438 C 10.671875 35.351562 10.878906 35.585938 10.984375 35.898438 C 10.671875 35.714844 10.441406 35.457031 10.105469 35.25 C 10.082031 35.222656 10.003906 35.171875 9.976562 35.148438 C 9.695312 35.015625 9.589844 34.734375 9.566406 34.449219 C 9.539062 34.214844 9.460938 34.007812 9.460938 33.75 C 9.460938 33.722656 9.460938 33.671875 9.460938 33.648438 C 9.460938 33.621094 9.460938 33.542969 9.539062 33.515625 C 9.617188 33.492188 9.640625 33.542969 9.667969 33.59375 C 10.082031 33.984375 10.519531 34.371094 10.929688 34.785156 C 11.316406 35.171875 11.679688 35.613281 11.859375 36.128906 C 11.960938 36.363281 12.039062 36.648438 12.066406 36.957031 C 12.039062 36.957031 12.039062 36.984375 12.015625 36.984375 Z M 17.558594 38.25 C 17.117188 37.914062 16.628906 37.65625 16.113281 37.472656 C 16.035156 37.449219 15.984375 37.398438 15.90625 37.371094 C 15.699219 37.265625 15.675781 37.242188 15.699219 36.984375 C 15.726562 36.777344 15.804688 36.59375 15.933594 36.464844 C 15.957031 36.386719 16.035156 36.386719 16.140625 36.386719 C 16.472656 36.464844 16.757812 36.59375 17.066406 36.777344 C 17.402344 36.984375 17.761719 37.214844 18.046875 37.550781 C 18.355469 37.863281 18.5625 38.25 18.792969 38.613281 C 18.871094 38.714844 18.921875 38.84375 18.921875 39 C 18.921875 39 18.921875 39.027344 18.898438 39.078125 C 18.871094 39.207031 18.820312 39.386719 18.691406 39.414062 C 18.589844 39.441406 18.511719 39.234375 18.460938 39.179688 C 18.253906 38.765625 17.917969 38.484375 17.558594 38.25 Z M 19.308594 41.015625 C 19.105469 41.222656 18.898438 41.457031 18.664062 41.664062 C 18.382812 41.898438 18.148438 42.15625 17.839844 42.363281 C 17.453125 42.671875 17.066406 43.007812 16.679688 43.34375 C 16.242188 43.757812 15.699219 44.042969 15.183594 44.40625 C 15.160156 44.40625 15.160156 44.429688 15.109375 44.429688 C 15.054688 44.429688 15.03125 44.507812 15.003906 44.457031 C 14.980469 44.429688 15.003906 44.378906 15.003906 44.351562 C 15.183594 44.015625 15.339844 43.65625 15.648438 43.320312 C 15.828125 43.113281 15.984375 42.90625 16.191406 42.722656 C 16.214844 42.699219 16.269531 42.648438 16.214844 42.621094 C 16.191406 42.59375 16.140625 42.59375 16.113281 42.59375 C 15.625 42.621094 15.132812 42.621094 14.667969 42.464844 C 15.160156 42.386719 15.648438 42.285156 16.140625 42.234375 C 16.320312 42.207031 16.449219 42.128906 16.578125 42.101562 C 17.222656 41.871094 17.867188 41.558594 18.433594 41.070312 L 18.460938 41.042969 C 18.640625 40.808594 18.871094 40.734375 19.207031 40.835938 C 19.234375 40.863281 19.308594 40.835938 19.335938 40.914062 C 19.414062 40.964844 19.363281 40.992188 19.308594 41.015625 Z M 19.285156 40.421875 C 19.105469 40.421875 18.949219 40.292969 18.949219 40.136719 C 18.976562 39.957031 19.050781 39.800781 19.15625 39.648438 C 19.234375 39.542969 19.285156 39.542969 19.335938 39.648438 C 19.414062 39.777344 19.464844 40.035156 19.464844 40.164062 C 19.464844 40.320312 19.386719 40.421875 19.285156 40.421875 Z M 19.773438 40.34375 C 19.75 40.058594 19.644531 39.828125 19.59375 39.515625 C 19.59375 39.492188 19.566406 39.441406 19.621094 39.441406 C 19.800781 39.464844 20.058594 39.777344 20.058594 39.957031 C 20.03125 40.136719 20.082031 40.292969 19.878906 40.398438 C 19.851562 40.449219 19.773438 40.449219 19.773438 40.34375 Z M 21.320312 41.636719 C 21.863281 41.949219 22.457031 42.179688 23.074219 42.285156 C 23.410156 42.363281 23.820312 42.414062 24.207031 42.464844 C 24.285156 42.464844 24.3125 42.492188 24.390625 42.542969 C 24.105469 42.570312 23.898438 42.648438 23.640625 42.671875 C 23.382812 42.699219 23.152344 42.699219 22.894531 42.671875 C 22.867188 42.671875 22.789062 42.648438 22.789062 42.699219 C 22.789062 42.722656 22.789062 42.800781 22.816406 42.800781 C 23.023438 43.007812 23.230469 43.242188 23.433594 43.5 C 23.667969 43.734375 23.820312 44.09375 23.976562 44.429688 C 23.976562 44.457031 24.003906 44.507812 23.976562 44.535156 C 23.949219 44.558594 23.898438 44.535156 23.875 44.535156 C 23.640625 44.351562 23.359375 44.222656 23.101562 44.042969 C 22.402344 43.601562 21.835938 42.984375 21.191406 42.492188 C 20.882812 42.257812 20.597656 41.949219 20.265625 41.664062 C 20.082031 41.535156 19.953125 41.351562 19.824219 41.171875 C 19.75 41.070312 19.851562 40.863281 20.007812 40.835938 C 20.109375 40.808594 20.210938 40.835938 20.316406 40.914062 C 20.597656 41.222656 20.984375 41.429688 21.320312 41.636719 Z M 20.703125 38.949219 C 20.574219 39.078125 20.46875 39.234375 20.367188 39.386719 C 20.289062 39.492188 20.265625 39.464844 20.238281 39.386719 C 20.109375 39.179688 20.03125 38.972656 20.160156 38.742188 C 20.445312 38.300781 20.675781 37.808594 21.089844 37.472656 C 21.320312 37.242188 21.605469 37.035156 21.941406 36.851562 C 22.222656 36.722656 22.480469 36.515625 22.867188 36.441406 C 23.074219 36.414062 23.101562 36.414062 23.253906 36.570312 C 23.382812 36.75 23.433594 36.90625 23.460938 37.113281 C 23.433594 37.214844 23.382812 37.292969 23.28125 37.320312 C 23.046875 37.449219 22.765625 37.527344 22.507812 37.628906 C 21.757812 37.992188 21.21875 38.429688 20.703125 38.949219 Z M 27.070312 37.007812 C 26.992188 36.828125 27.070312 36.671875 27.148438 36.492188 C 27.328125 35.898438 27.636719 35.351562 28.074219 34.941406 C 28.386719 34.601562 28.773438 34.320312 29.132812 33.984375 C 29.261719 33.878906 29.363281 33.75 29.46875 33.648438 C 29.570312 33.542969 29.597656 33.542969 29.675781 33.722656 C 29.75 33.90625 29.699219 34.113281 29.675781 34.265625 C 29.648438 34.449219 29.597656 34.65625 29.546875 34.808594 C 29.46875 34.992188 29.363281 35.09375 29.234375 35.199219 C 28.847656 35.429688 28.589844 35.792969 28.101562 36.050781 C 28.230469 35.765625 28.386719 35.558594 28.539062 35.40625 C 28.71875 35.199219 28.925781 35.015625 29.054688 34.785156 C 29.054688 34.757812 29.082031 34.707031 29.082031 34.679688 C 29.082031 34.601562 29.105469 34.550781 29.054688 34.550781 C 28.976562 34.527344 28.976562 34.578125 28.953125 34.628906 C 28.746094 34.835938 28.566406 35.042969 28.359375 35.25 C 27.871094 35.742188 27.429688 36.234375 27.171875 36.851562 C 27.171875 36.90625 27.171875 37.007812 27.070312 37.007812 Z M 31.402344 38.070312 C 31.425781 38.09375 31.503906 38.09375 31.503906 38.171875 C 31.503906 38.25 31.425781 38.25 31.402344 38.25 C 30.910156 38.457031 30.449219 38.691406 29.957031 38.871094 C 29.441406 39.078125 28.902344 39.050781 28.359375 38.871094 C 28.28125 38.84375 28.230469 38.84375 28.230469 38.765625 C 28.230469 38.691406 28.308594 38.691406 28.359375 38.691406 C 28.875 38.613281 29.390625 38.457031 29.90625 38.300781 C 30.191406 38.222656 30.449219 38.199219 30.757812 38.199219 C 30.835938 38.199219 30.988281 38.199219 30.988281 38.121094 C 30.988281 38.015625 30.859375 38.042969 30.757812 38.042969 C 30.214844 38.015625 29.621094 38.148438 29.105469 38.277344 C 28.902344 38.300781 28.71875 38.300781 28.488281 38.277344 C 28.667969 38.148438 28.824219 38.09375 29.003906 38.042969 C 29.3125 37.914062 29.621094 37.835938 29.957031 37.707031 C 30.136719 37.628906 30.292969 37.707031 30.472656 37.734375 C 30.808594 37.785156 31.117188 37.914062 31.402344 38.070312 Z M 30.730469 36.699219 C 30.5 36.984375 30.191406 37.191406 29.804688 37.320312 C 29.261719 37.550781 28.667969 37.757812 28.128906 37.914062 C 28.101562 37.914062 28.101562 37.914062 28.050781 37.914062 C 28.050781 37.835938 28.074219 37.835938 28.128906 37.808594 C 28.4375 37.601562 28.667969 37.320312 28.976562 37.058594 C 29.183594 36.851562 29.390625 36.621094 29.621094 36.414062 C 29.828125 36.234375 30.035156 36.101562 30.242188 35.972656 C 30.242188 35.972656 30.265625 35.972656 30.265625 35.949219 C 30.292969 35.921875 30.394531 35.871094 30.371094 35.820312 C 30.34375 35.742188 30.265625 35.820312 30.191406 35.820312 C 29.75 36.027344 29.339844 36.308594 29.003906 36.671875 C 28.617188 37.058594 28.179688 37.371094 27.714844 37.601562 C 27.636719 37.628906 27.585938 37.707031 27.507812 37.628906 C 27.484375 37.550781 27.535156 37.5 27.585938 37.449219 C 27.765625 37.214844 27.921875 36.957031 28.101562 36.699219 C 28.488281 36.285156 28.925781 35.871094 29.363281 35.535156 C 29.699219 35.25 30.136719 35.09375 30.550781 34.914062 C 30.679688 34.835938 30.78125 34.808594 30.886719 34.734375 C 31.066406 34.65625 31.117188 34.707031 31.117188 34.863281 C 31.296875 35.535156 31.195312 36.179688 30.730469 36.699219 Z M 34.675781 30.621094 C 34.597656 30.648438 34.574219 30.621094 34.546875 30.59375 C 34.261719 30.363281 34.058594 30.050781 33.929688 29.664062 C 33.722656 29.25 33.644531 28.734375 33.617188 28.292969 C 33.617188 27.777344 33.722656 27.257812 33.953125 26.820312 C 33.980469 26.714844 34.03125 26.714844 34.082031 26.820312 C 34.210938 27.128906 34.417969 27.414062 34.625 27.699219 C 34.648438 27.777344 34.703125 27.828125 34.703125 27.90625 C 34.574219 28.214844 34.519531 28.550781 34.496094 28.886719 C 34.496094 28.914062 34.496094 28.992188 34.417969 28.992188 C 34.339844 28.992188 34.339844 28.964844 34.316406 28.886719 C 34.1875 28.578125 34.109375 28.265625 34.109375 27.90625 C 34.109375 27.800781 34.109375 27.699219 34.109375 27.570312 C 34.109375 27.542969 34.109375 27.464844 34.03125 27.464844 C 34.003906 27.464844 33.953125 27.492188 33.953125 27.542969 C 33.851562 27.984375 33.851562 28.472656 33.980469 28.941406 C 34.082031 29.328125 34.289062 29.691406 34.496094 30 C 34.597656 30.179688 34.597656 30.335938 34.675781 30.515625 C 34.726562 30.59375 34.703125 30.621094 34.675781 30.621094 Z M 34.703125 22.058594 C 34.46875 21.648438 34.261719 21.207031 34.1875 20.714844 C 34.160156 20.535156 34.1875 20.378906 34.1875 20.199219 C 34.1875 20.09375 34.261719 20.070312 34.367188 20.121094 C 34.648438 20.300781 34.90625 20.457031 35.191406 20.664062 C 35.292969 20.765625 35.320312 20.898438 35.320312 21.050781 C 35.320312 21.207031 35.320312 21.335938 35.320312 21.464844 C 35.320312 21.492188 35.320312 21.542969 35.292969 21.570312 C 35.269531 21.570312 35.21875 21.542969 35.191406 21.542969 C 34.984375 21.363281 34.855469 21.15625 34.703125 20.949219 C 34.703125 20.949219 34.675781 20.921875 34.675781 20.871094 C 34.648438 20.84375 34.648438 20.765625 34.574219 20.792969 C 34.496094 20.820312 34.546875 20.871094 34.546875 20.898438 C 34.625 21.308594 34.832031 21.671875 35.0625 22.035156 C 35.140625 22.136719 35.242188 22.214844 35.292969 22.320312 C 35.476562 22.449219 35.476562 22.707031 35.527344 22.914062 C 35.140625 22.707031 34.90625 22.398438 34.703125 22.058594 Z M 35.964844 30.179688 C 35.9375 30.207031 35.9375 30.285156 35.863281 30.257812 C 35.835938 30.234375 35.835938 30.179688 35.835938 30.128906 C 35.914062 29.742188 35.863281 29.351562 35.863281 28.941406 C 35.863281 28.601562 35.863281 28.242188 35.835938 27.878906 C 35.835938 27.777344 35.863281 27.671875 35.863281 27.542969 C 35.863281 27.515625 35.863281 27.441406 35.835938 27.441406 C 35.757812 27.441406 35.757812 27.464844 35.734375 27.515625 C 35.707031 27.621094 35.628906 27.722656 35.628906 27.851562 C 35.628906 28.164062 35.550781 28.449219 35.605469 28.734375 C 35.605469 29.25 35.605469 29.714844 35.476562 30.207031 C 35.449219 30.335938 35.347656 30.492188 35.242188 30.59375 C 35.164062 30.671875 35.164062 30.59375 35.140625 30.570312 C 35.035156 30.386719 35.011719 30.15625 34.960938 29.949219 C 34.882812 29.535156 34.855469 29.09375 34.855469 28.679688 C 34.882812 28.136719 35.089844 27.621094 35.476562 27.179688 C 35.65625 27 35.785156 26.792969 35.886719 26.585938 C 35.992188 26.40625 36.066406 26.40625 36.121094 26.585938 C 36.300781 26.898438 36.402344 27.207031 36.429688 27.570312 C 36.453125 27.851562 36.507812 28.085938 36.507812 28.398438 C 36.507812 28.835938 36.378906 29.328125 36.195312 29.742188 C 36.195312 29.84375 36.121094 30.027344 35.964844 30.179688 Z M 37.484375 27.363281 C 37.5625 27.257812 37.667969 27.335938 37.667969 27.441406 C 37.769531 28.085938 37.769531 28.734375 37.460938 29.328125 C 37.28125 29.664062 37.023438 29.921875 36.765625 30.179688 C 36.660156 30.285156 36.558594 30.363281 36.453125 30.414062 C 36.429688 30.414062 36.378906 30.441406 36.351562 30.441406 C 36.324219 30.414062 36.351562 30.363281 36.378906 30.335938 C 36.558594 30.101562 36.765625 29.84375 36.917969 29.585938 C 37.226562 29.148438 37.433594 28.628906 37.433594 28.085938 C 37.433594 28.007812 37.460938 27.90625 37.410156 27.90625 C 37.304688 27.90625 37.304688 28.007812 37.304688 28.085938 C 37.226562 28.320312 37.097656 28.578125 36.96875 28.785156 C 36.96875 28.601562 36.96875 28.472656 36.96875 28.292969 C 36.894531 27.878906 37.226562 27.648438 37.484375 27.363281 Z M 37.125 23.84375 C 37.046875 23.742188 37.125 23.636719 37.125 23.535156 C 37.152344 23.148438 37.046875 22.757812 36.945312 22.371094 C 36.816406 21.878906 36.609375 21.386719 36.507812 20.898438 C 36.507812 20.820312 36.507812 20.792969 36.480469 20.714844 C 36.480469 20.691406 36.480469 20.613281 36.402344 20.636719 C 36.378906 20.636719 36.378906 20.714844 36.378906 20.742188 C 36.378906 20.949219 36.351562 21.179688 36.402344 21.386719 C 36.53125 21.878906 36.636719 22.371094 36.710938 22.886719 C 36.738281 23.121094 36.738281 23.40625 36.636719 23.664062 C 36.53125 23.84375 36.507812 23.84375 36.402344 23.664062 C 36.121094 23.277344 35.964844 22.808594 35.808594 22.371094 C 35.679688 21.828125 35.605469 21.234375 35.679688 20.664062 C 35.707031 20.171875 35.886719 19.707031 36.171875 19.292969 C 36.195312 19.214844 36.25 19.191406 36.273438 19.292969 C 36.453125 19.679688 36.6875 20.042969 36.96875 20.351562 C 37.304688 20.765625 37.484375 21.207031 37.484375 21.75 C 37.484375 21.984375 37.5625 22.191406 37.5625 22.449219 C 37.484375 22.941406 37.433594 23.378906 37.125 23.84375 Z M 38.363281 22.65625 C 38.285156 22.757812 38.234375 22.835938 38.15625 22.886719 C 38.234375 22.65625 38.234375 22.449219 38.285156 22.191406 C 38.285156 22.085938 38.3125 21.984375 38.285156 21.878906 C 38.285156 21.464844 38.3125 21.027344 38.386719 20.613281 C 38.386719 20.585938 38.414062 20.484375 38.363281 20.484375 C 38.3125 20.484375 38.285156 20.558594 38.257812 20.585938 C 38.183594 20.898438 38.15625 21.234375 38.128906 21.570312 C 38.105469 21.699219 38.054688 21.851562 38 21.984375 C 37.898438 21.878906 37.925781 21.75 37.925781 21.59375 C 37.898438 21.363281 37.820312 21.15625 37.796875 20.898438 C 37.769531 20.792969 37.796875 20.691406 37.820312 20.585938 C 38 20.300781 38.234375 20.070312 38.464844 19.808594 C 38.542969 19.734375 38.570312 19.785156 38.59375 19.835938 C 38.671875 19.964844 38.671875 20.070312 38.671875 20.222656 C 38.773438 21.078125 38.773438 21.878906 38.363281 22.65625 Z M 38.363281 22.65625 "/>
<path style=" stroke:none;fill-rule:nonzero;fill:#ffffff;fill-opacity:1;" d="M 12.039062 9.851562 C 11.9375 9.851562 11.859375 9.957031 11.910156 10.058594 C 11.988281 10.191406 12.039062 10.371094 12.144531 10.5 C 12.246094 10.628906 12.347656 10.808594 12.554688 10.886719 C 12.734375 10.964844 12.96875 10.808594 12.96875 10.65625 L 12.96875 10.628906 C 12.941406 10.292969 12.347656 9.851562 12.039062 9.851562 Z M 12.039062 9.851562 "/>
<path style=" stroke:none;fill-rule:nonzero;fill:#ffffff;fill-opacity:1;" d="M 26.324219 10.964844 C 26.527344 10.941406 26.65625 10.863281 26.761719 10.679688 C 26.890625 10.5 26.96875 10.34375 27.070312 10.136719 C 27.097656 10.058594 27.097656 10.007812 27.070312 9.957031 C 27.042969 9.878906 26.96875 9.878906 26.890625 9.929688 C 26.554688 10.035156 26.246094 10.214844 26.039062 10.550781 C 25.9375 10.757812 26.039062 10.964844 26.324219 10.964844 Z M 26.324219 10.964844 "/>
<path style=" stroke:none;fill-rule:nonzero;fill:#ffffff;fill-opacity:1;" d="M 19.285156 7.601562 C 19.386719 7.785156 19.59375 7.785156 19.695312 7.601562 C 19.878906 7.320312 19.800781 7.058594 19.671875 6.75 C 19.644531 6.671875 19.59375 6.621094 19.492188 6.621094 C 19.386719 6.621094 19.308594 6.699219 19.285156 6.75 C 19.207031 6.878906 19.15625 7.035156 19.179688 7.191406 C 19.128906 7.371094 19.207031 7.5 19.285156 7.601562 Z M 19.285156 7.601562 "/>
<path style=" stroke:none;fill-rule:nonzero;fill:#ffffff;fill-opacity:1;" d="M 19.773438 8.664062 C 19.800781 8.742188 19.878906 8.765625 19.953125 8.742188 C 20.136719 8.664062 20.367188 8.40625 20.367188 8.222656 C 20.367188 8.015625 20.265625 7.886719 20.082031 7.886719 C 20.058594 7.886719 19.980469 7.886719 19.953125 7.914062 C 19.75 8.015625 19.644531 8.457031 19.773438 8.664062 Z M 19.773438 8.664062 "/>
<path style=" stroke:none;fill-rule:nonzero;fill:#ffffff;fill-opacity:1;" d="M 19.207031 8.613281 C 19.234375 8.535156 19.234375 8.507812 19.234375 8.429688 C 19.234375 8.300781 19.207031 8.148438 19.128906 8.015625 C 19.050781 7.914062 18.949219 7.808594 18.820312 7.835938 C 18.691406 7.863281 18.613281 7.964844 18.613281 8.121094 C 18.589844 8.351562 18.71875 8.535156 18.921875 8.664062 C 19.078125 8.765625 19.128906 8.765625 19.207031 8.613281 Z M 19.207031 8.613281 "/>
<path style=" stroke:none;fill-rule:nonzero;fill:#ffffff;fill-opacity:1;" d="M 15.417969 9.335938 C 15.417969 9.441406 15.417969 9.542969 15.496094 9.621094 C 15.570312 9.722656 15.625 9.800781 15.777344 9.800781 C 15.90625 9.800781 15.957031 9.671875 15.957031 9.570312 C 15.984375 9.464844 15.957031 9.335938 15.933594 9.234375 C 15.855469 9.101562 15.726562 9 15.625 9 C 15.417969 9.078125 15.417969 9.179688 15.417969 9.335938 Z M 15.417969 9.335938 "/>
<path style=" stroke:none;fill-rule:nonzero;fill:#ffffff;fill-opacity:1;" d="M 23.230469 9.828125 C 23.332031 9.828125 23.433594 9.75 23.460938 9.648438 C 23.488281 9.570312 23.539062 9.464844 23.539062 9.363281 C 23.539062 9.285156 23.539062 9.257812 23.539062 9.179688 C 23.511719 9.101562 23.460938 9 23.410156 8.972656 C 23.304688 8.949219 23.230469 9 23.203125 9.078125 C 23.074219 9.207031 23.074219 9.386719 23.101562 9.570312 C 23.101562 9.699219 23.125 9.800781 23.230469 9.828125 Z M 23.230469 9.828125 "/>
<path style=" stroke:none;fill-rule:nonzero;fill:#ffffff;fill-opacity:1;" d="M 18.820312 12.128906 C 19.027344 12.257812 19.234375 12.308594 19.59375 12.308594 C 19.722656 12.308594 19.929688 12.285156 20.109375 12.128906 C 20.289062 11.972656 20.316406 11.820312 20.1875 11.636719 C 19.902344 11.328125 19.128906 11.300781 18.820312 11.613281 C 18.613281 11.714844 18.664062 11.972656 18.820312 12.128906 Z M 18.820312 12.128906 "/>
<path style=" stroke:none;fill-rule:nonzero;fill:#ffffff;fill-opacity:1;" d="M 22.867188 12.492188 C 23.152344 12.699219 23.460938 12.777344 23.820312 12.722656 C 24.132812 12.699219 24.3125 12.335938 24.105469 12.101562 C 23.898438 11.820312 23.589844 11.765625 23.253906 11.765625 C 23.230469 11.765625 23.152344 11.765625 23.125 11.765625 C 22.996094 11.792969 22.816406 11.84375 22.738281 12 C 22.660156 12.179688 22.714844 12.386719 22.867188 12.492188 Z M 22.867188 12.492188 "/>
<path style=" stroke:none;fill-rule:nonzero;fill:#ffffff;fill-opacity:1;" d="M 15.3125 12.75 C 15.625 12.75 15.855469 12.671875 16.140625 12.542969 C 16.269531 12.441406 16.320312 12.308594 16.320312 12.128906 C 16.320312 12 16.214844 11.898438 16.085938 11.820312 C 15.777344 11.691406 15.210938 11.820312 15.003906 12.050781 C 14.875 12.179688 14.824219 12.363281 14.925781 12.542969 C 15.003906 12.699219 15.160156 12.75 15.3125 12.75 Z M 15.3125 12.75 "/>
<path style=" stroke:none;fill-rule:nonzero;fill:#ffffff;fill-opacity:1;" d="M 21.5 12.441406 C 21.785156 12.441406 22.015625 12.234375 22.015625 11.949219 C 22.015625 11.636719 21.8125 11.429688 21.5 11.429688 C 21.296875 11.429688 20.984375 11.714844 20.984375 11.921875 C 20.933594 12.15625 21.21875 12.441406 21.5 12.441406 Z M 21.527344 11.664062 C 21.628906 11.664062 21.707031 11.742188 21.707031 11.871094 C 21.707031 12 21.628906 12.101562 21.527344 12.101562 C 21.449219 12.101562 21.296875 11.921875 21.296875 11.871094 C 21.296875 11.820312 21.425781 11.664062 21.527344 11.664062 Z M 21.527344 11.664062 "/>
<path style=" stroke:none;fill-rule:nonzero;fill:#ffffff;fill-opacity:1;" d="M 25.238281 13.214844 C 25.523438 13.214844 25.730469 12.984375 25.730469 12.699219 C 25.730469 12.386719 25.550781 12.207031 25.214844 12.207031 C 24.929688 12.207031 24.777344 12.414062 24.777344 12.699219 C 24.699219 13.058594 25.007812 13.214844 25.238281 13.214844 Z M 25.214844 12.492188 C 25.316406 12.492188 25.445312 12.59375 25.445312 12.699219 C 25.445312 12.800781 25.34375 12.90625 25.214844 12.90625 C 25.109375 12.90625 25.035156 12.828125 25.007812 12.699219 C 25.007812 12.59375 25.109375 12.492188 25.214844 12.492188 Z M 25.214844 12.492188 "/>
<path style=" stroke:none;fill-rule:nonzero;fill:#ffffff;fill-opacity:1;" d="M 17.503906 12.441406 C 17.738281 12.441406 17.996094 12.207031 17.996094 12 C 17.996094 11.613281 17.816406 11.40625 17.480469 11.40625 C 17.195312 11.40625 17.042969 11.613281 17.042969 11.898438 C 16.988281 12.179688 17.195312 12.441406 17.503906 12.441406 Z M 17.453125 11.664062 C 17.582031 11.664062 17.6875 11.792969 17.6875 11.898438 C 17.6875 12 17.582031 12.101562 17.453125 12.101562 C 17.324219 12.101562 17.171875 11.972656 17.171875 11.820312 C 17.222656 11.765625 17.351562 11.664062 17.453125 11.664062 Z M 17.453125 11.664062 "/>
<path style=" stroke:none;fill-rule:nonzero;fill:#ffffff;fill-opacity:1;" d="M 13.792969 13.164062 C 14.023438 13.191406 14.28125 12.957031 14.28125 12.671875 C 14.28125 12.386719 14.050781 12.15625 13.765625 12.15625 C 13.484375 12.15625 13.277344 12.363281 13.277344 12.648438 C 13.277344 12.957031 13.535156 13.214844 13.792969 13.164062 Z M 13.792969 12.441406 C 13.921875 12.441406 14 12.542969 14.023438 12.671875 C 14.023438 12.800781 13.921875 12.878906 13.792969 12.90625 C 13.691406 12.90625 13.5625 12.800781 13.507812 12.699219 C 13.507812 12.570312 13.636719 12.441406 13.792969 12.441406 Z M 13.792969 12.441406 "/>
<path style=" stroke:none;fill-rule:nonzero;fill:#ffffff;fill-opacity:1;" d="M 7.449219 17.199219 C 7.527344 17.585938 7.554688 18.027344 7.527344 18.386719 C 7.527344 18.59375 7.503906 18.59375 7.707031 18.59375 C 8.199219 18.59375 8.664062 18.59375 9.152344 18.59375 C 9.179688 18.59375 9.179688 18.59375 9.230469 18.59375 C 9.253906 18.59375 9.253906 18.59375 9.308594 18.59375 C 9.796875 18.59375 10.261719 18.59375 10.75 18.59375 C 10.957031 18.59375 10.929688 18.59375 10.929688 18.386719 C 10.90625 18 10.929688 17.558594 11.007812 17.199219 C 11.085938 16.757812 11.242188 16.320312 11.445312 15.929688 C 11.472656 15.851562 11.523438 15.800781 11.445312 15.75 C 11.371094 15.671875 11.316406 15.722656 11.265625 15.75 C 10.878906 15.878906 10.519531 16.085938 10.183594 16.292969 C 10.003906 16.398438 9.976562 16.398438 9.875 16.214844 C 9.746094 15.984375 9.589844 15.777344 9.4375 15.570312 C 9.359375 15.492188 9.332031 15.464844 9.253906 15.464844 C 9.179688 15.464844 9.101562 15.515625 9.023438 15.59375 C 8.84375 15.800781 8.714844 16.035156 8.585938 16.242188 C 8.480469 16.421875 8.457031 16.421875 8.277344 16.320312 C 7.941406 16.113281 7.578125 15.90625 7.191406 15.777344 C 7.117188 15.75 7.0625 15.699219 7.011719 15.777344 C 6.933594 15.851562 7.011719 15.90625 7.011719 15.957031 C 7.21875 16.34375 7.398438 16.757812 7.449219 17.199219 Z M 7.449219 17.199219 "/>
<path style=" stroke:none;fill-rule:nonzero;fill:#ffffff;fill-opacity:1;" d="M 30.472656 16.242188 C 30.34375 16.007812 30.191406 15.800781 30.035156 15.59375 C 29.957031 15.515625 29.933594 15.492188 29.855469 15.492188 C 29.777344 15.492188 29.75 15.515625 29.675781 15.59375 C 29.492188 15.800781 29.363281 16.035156 29.234375 16.242188 C 29.132812 16.421875 29.105469 16.421875 28.925781 16.320312 C 28.589844 16.113281 28.230469 15.90625 27.84375 15.777344 C 27.765625 15.75 27.714844 15.699219 27.664062 15.777344 C 27.585938 15.851562 27.664062 15.90625 27.664062 15.957031 C 27.84375 16.371094 28.050781 16.785156 28.101562 17.222656 C 28.179688 17.613281 28.203125 18.050781 28.179688 18.414062 C 28.179688 18.621094 28.152344 18.621094 28.359375 18.621094 C 28.847656 18.621094 29.3125 18.621094 29.804688 18.621094 C 29.828125 18.621094 29.828125 18.621094 29.878906 18.621094 C 29.878906 18.621094 29.90625 18.621094 29.957031 18.621094 C 30.449219 18.621094 30.910156 18.621094 31.402344 18.621094 C 31.609375 18.621094 31.582031 18.621094 31.582031 18.414062 C 31.554688 18.027344 31.582031 17.585938 31.660156 17.222656 C 31.738281 16.785156 31.941406 16.34375 32.097656 15.957031 C 32.125 15.878906 32.175781 15.828125 32.097656 15.777344 C 32.019531 15.699219 31.96875 15.75 31.917969 15.777344 C 31.53125 15.90625 31.167969 16.113281 30.835938 16.320312 C 30.628906 16.449219 30.601562 16.398438 30.472656 16.242188 Z M 30.472656 16.242188 "/>
<path style=" stroke:none;fill-rule:nonzero;fill:#ffffff;fill-opacity:1;" d="M 46.921875 10.320312 L 49.191406 10.320312 L 52.59375 19.941406 L 50.429688 19.941406 L 49.808594 17.972656 L 46.226562 17.972656 L 45.605469 19.941406 L 43.492188 19.941406 Z M 46.792969 16.320312 L 49.242188 16.320312 L 48.054688 12.515625 Z M 46.792969 16.320312 "/>
<path style=" stroke:none;fill-rule:nonzero;fill:#ffffff;fill-opacity:1;" d="M 54.707031 16.292969 L 54.707031 16.5 C 54.707031 17.25 54.8125 17.765625 54.941406 18.078125 C 55.070312 18.386719 55.351562 18.515625 55.816406 18.515625 C 56.253906 18.515625 56.5625 18.335938 56.691406 18.027344 C 56.769531 17.820312 56.820312 17.507812 56.820312 17.042969 L 56.820312 10.320312 L 58.808594 10.320312 L 58.808594 17.015625 C 58.808594 17.84375 58.679688 18.492188 58.394531 18.929688 C 57.957031 19.757812 57.105469 20.171875 55.867188 20.171875 C 54.628906 20.171875 53.855469 19.863281 53.417969 19.191406 C 52.980469 18.515625 52.800781 17.636719 52.800781 16.527344 L 52.800781 16.320312 Z M 54.707031 16.292969 "/>
<path style=" stroke:none;fill-rule:nonzero;fill:#ffffff;fill-opacity:1;" d="M 60.6875 10.320312 L 62.699219 10.320312 L 62.699219 16.214844 C 62.699219 16.863281 62.777344 17.378906 62.933594 17.664062 C 63.164062 18.179688 63.707031 18.492188 64.503906 18.492188 C 65.304688 18.492188 65.84375 18.207031 66.078125 17.664062 C 66.207031 17.351562 66.308594 16.886719 66.308594 16.214844 L 66.308594 10.320312 L 68.371094 10.320312 L 68.371094 16.214844 C 68.371094 17.25 68.191406 18.027344 67.882812 18.621094 C 67.289062 19.679688 66.179688 20.199219 64.53125 20.199219 C 62.878906 20.199219 61.71875 19.679688 61.179688 18.621094 C 60.871094 18.078125 60.6875 17.25 60.6875 16.214844 Z M 60.6875 10.320312 "/>
<path style=" stroke:none;fill-rule:nonzero;fill:#ffffff;fill-opacity:1;" d="M 69.867188 10.320312 L 71.980469 10.320312 L 75.796875 17.042969 L 75.796875 10.320312 L 77.652344 10.320312 L 77.652344 19.941406 L 75.667969 19.941406 L 71.773438 13.136719 L 71.773438 19.941406 L 69.917969 19.941406 L 69.917969 10.320312 Z M 69.867188 10.320312 "/>
<path style=" stroke:none;fill-rule:nonzero;fill:#ffffff;fill-opacity:1;" d="M 86.1875 10.320312 L 86.1875 12.027344 L 83.324219 12.027344 L 83.324219 19.941406 L 81.339844 19.941406 L 81.339844 12.050781 L 78.476562 12.050781 L 78.476562 10.34375 L 86.1875 10.34375 Z M 86.1875 10.320312 "/>
<path style=" stroke:none;fill-rule:nonzero;fill:#ffffff;fill-opacity:1;" d="M 88.738281 10.320312 L 91.007812 10.320312 L 94.386719 19.941406 L 92.21875 19.941406 L 91.601562 17.972656 L 88.070312 17.972656 L 87.425781 19.941406 L 85.308594 19.941406 Z M 88.609375 16.320312 L 91.058594 16.320312 L 89.820312 12.515625 Z M 88.609375 16.320312 "/>
<path style=" stroke:none;fill-rule:nonzero;fill:#ffffff;fill-opacity:1;" d="M 101.808594 10.320312 L 104.671875 10.320312 L 104.671875 19.941406 L 102.816406 19.941406 L 102.816406 13.449219 C 102.816406 13.265625 102.816406 13.007812 102.816406 12.671875 C 102.816406 12.335938 102.816406 12.078125 102.816406 11.898438 L 101.011719 19.964844 L 99.050781 19.964844 L 97.246094 11.898438 C 97.246094 12.078125 97.246094 12.335938 97.246094 12.671875 C 97.246094 13.007812 97.246094 13.265625 97.246094 13.449219 L 97.246094 19.941406 L 95.390625 19.941406 L 95.390625 10.320312 L 98.277344 10.320312 L 100.03125 17.871094 Z M 101.808594 10.320312 "/>
<path style=" stroke:none;fill-rule:nonzero;fill:#ffffff;fill-opacity:1;" d="M 113.515625 12.050781 L 108.4375 12.050781 L 108.4375 14.070312 L 113.078125 14.070312 L 113.078125 15.75 L 108.4375 15.75 L 108.4375 18.207031 L 113.746094 18.207031 L 113.746094 19.914062 L 106.503906 19.914062 L 106.503906 10.320312 L 113.515625 10.320312 Z M 113.515625 12.050781 "/>
<path style=" stroke:none;fill-rule:nonzero;fill:#ffffff;fill-opacity:1;" d="M 115.191406 10.320312 L 117.304688 10.320312 L 121.121094 17.015625 L 121.121094 10.320312 L 122.976562 10.320312 L 122.976562 19.941406 L 120.992188 19.941406 L 117.097656 13.136719 L 117.097656 19.941406 L 115.242188 19.941406 L 115.242188 10.320312 Z M 115.191406 10.320312 "/>
<path style=" stroke:none;fill-rule:nonzero;fill:#ffffff;fill-opacity:1;" d="M 132 10.320312 L 132 12.027344 L 129.136719 12.027344 L 129.136719 19.941406 L 127.101562 19.941406 L 127.101562 12.050781 L 124.214844 12.050781 L 124.214844 10.34375 L 132 10.34375 Z M 132 10.320312 "/>
<path style=" stroke:none;fill-rule:nonzero;fill:#ffffff;fill-opacity:1;" d="M 50.117188 25.113281 C 50.761719 25.320312 51.355469 25.734375 51.769531 26.351562 C 52.105469 26.84375 52.308594 27.335938 52.464844 27.90625 C 52.59375 28.449219 52.644531 28.992188 52.644531 29.484375 C 52.644531 30.75 52.414062 31.835938 51.871094 32.742188 C 51.175781 33.929688 50.117188 34.527344 48.648438 34.527344 L 44.523438 34.527344 L 44.523438 24.878906 L 48.648438 24.878906 C 49.242188 24.929688 49.730469 25.007812 50.117188 25.113281 Z M 46.433594 26.585938 L 46.433594 32.871094 L 48.289062 32.871094 C 49.242188 32.871094 49.886719 32.429688 50.273438 31.472656 C 50.480469 30.957031 50.582031 30.335938 50.582031 29.664062 C 50.582031 28.679688 50.453125 27.957031 50.144531 27.414062 C 49.835938 26.898438 49.214844 26.636719 48.339844 26.636719 L 46.457031 26.636719 L 46.457031 26.585938 Z M 46.433594 26.585938 "/>
<path style=" stroke:none;fill-rule:nonzero;fill:#ffffff;fill-opacity:1;" d="M 60.6875 26.613281 L 55.636719 26.613281 L 55.636719 28.628906 L 60.277344 28.628906 L 60.277344 30.308594 L 55.636719 30.308594 L 55.636719 32.765625 L 60.945312 32.765625 L 60.945312 34.472656 L 53.652344 34.472656 L 53.652344 24.878906 L 60.6875 24.878906 Z M 60.6875 26.613281 "/>
<path style=" stroke:none;fill-rule:nonzero;fill:#ffffff;fill-opacity:1;" d="M 71.878906 24.878906 L 73.992188 24.878906 L 70.742188 34.5 L 68.835938 34.5 L 65.585938 24.878906 L 67.726562 24.878906 L 69.789062 32.171875 Z M 71.878906 24.878906 "/>
<path style=" stroke:none;fill-rule:nonzero;fill:#ffffff;fill-opacity:1;" d="M 75.953125 24.878906 L 78.21875 24.878906 L 81.597656 34.5 L 79.433594 34.5 L 78.8125 32.535156 L 75.28125 32.535156 L 74.636719 34.5 L 72.523438 34.5 Z M 75.847656 30.878906 L 78.296875 30.878906 L 77.058594 27.078125 Z M 75.847656 30.878906 "/>
<path style=" stroke:none;fill-rule:nonzero;fill:#ffffff;fill-opacity:1;" d="M 82.628906 24.878906 L 84.640625 24.878906 L 84.640625 32.792969 L 89.433594 32.792969 L 89.433594 34.5 L 82.65625 34.5 Z M 82.628906 24.878906 "/>
<path style=" stroke:none;fill-rule:nonzero;fill:#ffffff;fill-opacity:1;" d="M 97.839844 26.613281 L 92.785156 26.613281 L 92.785156 28.628906 L 97.425781 28.628906 L 97.425781 30.308594 L 92.785156 30.308594 L 92.785156 32.765625 L 98.097656 32.765625 L 98.097656 34.472656 L 90.828125 34.472656 L 90.828125 24.878906 L 97.867188 24.878906 Z M 95.492188 24.128906 L 94.152344 24.128906 L 92.195312 22.164062 L 94.257812 22.164062 Z M 95.492188 24.128906 "/>
<path style=" stroke:none;fill-rule:nonzero;fill:#ffffff;fill-opacity:1;" d="M 99.617188 24.878906 L 101.734375 24.878906 L 105.546875 31.578125 L 105.546875 24.878906 L 107.40625 24.878906 L 107.40625 34.5 L 105.417969 34.5 L 101.5 27.699219 L 101.5 34.5 L 99.644531 34.5 Z M 99.617188 24.878906 "/>
<path style=" stroke:none;fill-rule:nonzero;fill:#ffffff;fill-opacity:1;" d="M 110.1875 25.914062 C 110.960938 25.085938 111.941406 24.722656 113.128906 24.722656 C 114.726562 24.722656 115.886719 25.242188 116.632812 26.300781 C 117.046875 26.898438 117.253906 27.492188 117.277344 28.085938 L 115.292969 28.085938 C 115.164062 27.648438 115.011719 27.257812 114.804688 27.027344 C 114.46875 26.613281 113.925781 26.40625 113.230469 26.40625 C 112.535156 26.40625 111.941406 26.691406 111.554688 27.285156 C 111.144531 27.878906 110.9375 28.734375 110.9375 29.792969 C 110.9375 30.851562 111.144531 31.679688 111.582031 32.222656 C 111.992188 32.742188 112.5625 33.050781 113.230469 33.050781 C 113.925781 33.050781 114.46875 32.820312 114.804688 32.351562 C 115.011719 32.121094 115.140625 31.734375 115.292969 31.214844 L 117.277344 31.214844 C 117.097656 32.277344 116.6875 33.101562 115.9375 33.777344 C 115.242188 34.421875 114.339844 34.757812 113.230469 34.757812 C 111.863281 34.757812 110.78125 34.320312 110.007812 33.414062 C 109.234375 32.535156 108.847656 31.292969 108.847656 29.765625 C 108.847656 28.113281 109.285156 26.84375 110.1875 25.914062 Z M 110.1875 25.914062 "/>
<path style=" stroke:none;fill-rule:nonzero;fill:#ffffff;fill-opacity:1;" d="M 120.707031 34.527344 L 118.75 34.527344 L 118.75 24.878906 L 120.734375 24.878906 L 120.734375 34.5 L 120.707031 34.5 Z M 120.707031 34.527344 "/>
<path style=" stroke:none;fill-rule:nonzero;fill:#ffffff;fill-opacity:1;" d="M 125.324219 24.878906 L 127.589844 24.878906 L 130.96875 34.5 L 128.804688 34.5 L 128.183594 32.535156 L 124.652344 32.535156 L 124.007812 34.5 L 121.894531 34.5 Z M 125.21875 30.878906 L 127.667969 30.878906 L 126.429688 27.078125 Z M 125.21875 30.878906 "/>
</g>
</svg>