<?xml version="1.0" standalone="no"?>
<!DOCTYPE svg PUBLIC "-//W3C//DTD SVG 20010904//EN"
 "http://www.w3.org/TR/2001/REC-SVG-20010904/DTD/svg10.dtd">
<svg version="1.0" xmlns="http://www.w3.org/2000/svg"
 width="500.000000pt" height="500.000000pt" viewBox="0 0 500.000000 500.000000"
 preserveAspectRatio="xMidYMid meet">

<g transform="translate(0.000000,500.000000) scale(0.100000,-0.100000)"
fill="#000000" stroke="none">
<path d="M0 2500 l0 -2500 2500 0 2500 0 0 2500 0 2500 -2500 0 -2500 0 0
-2500z m1409 2214 c32 34 38 33 33 -9 -4 -35 -4 -35 23 -25 44 17 49 12 20
-26 -23 -29 -25 -38 -14 -45 8 -4 23 -15 34 -23 19 -15 19 -15 -8 -16 l-28 0
21 -30 c24 -34 19 -36 -38 -16 l-41 15 -7 -47 c-7 -45 -7 -46 -22 -24 -14 21
-16 22 -33 6 -18 -16 -19 -15 -19 26 l0 43 -52 -6 -51 -6 27 28 27 28 -28 8
c-19 5 -23 9 -13 13 8 3 25 9 38 13 l23 9 -21 40 c-23 45 -21 46 20 25 l30
-16 0 38 1 38 27 -33 27 -33 24 25z m1813 -117 l31 28 -6 -32 c-7 -37 2 -41
49 -23 l27 11 -27 -35 c-33 -44 -33 -51 6 -67 l32 -13 -27 -11 -28 -11 21 -27
c25 -32 25 -31 -31 -12 -48 17 -59 11 -59 -37 0 -33 -16 -37 -26 -6 l-6 21
-19 -24 -19 -24 0 48 c0 26 -3 47 -7 47 -5 -1 -27 -5 -50 -9 -48 -9 -53 -3
-22 25 l21 19 -28 11 -29 12 43 11 42 12 -20 39 c-27 53 -26 55 15 31 l35 -20
0 42 0 42 26 -39 26 -38 30 29z m-1119 -549 c-506 -522 -599 -1316 -225 -1943
157 -264 424 -506 688 -625 248 -113 423 -151 690 -151 159 0 288 15 404 46
30 8 56 13 57 11 5 -5 -99 -98 -166 -150 -131 -101 -341 -210 -496 -259 -342
-107 -728 -98 -1065 25 -394 144 -732 452 -911 833 -262 557 -196 1199 174
1689 200 264 457 450 777 561 90 31 123 41 144 44 5 0 -27 -36 -71 -81z
m-1685 -538 c3 0 19 12 35 28 l29 27 -8 -39 c-5 -31 -4 -38 7 -34 66 25 72 20
34 -26 l-24 -30 37 -23 c37 -22 37 -22 10 -23 -33 0 -33 -2 -11 -37 18 -26 18
-27 -7 -20 -76 22 -80 21 -80 -9 0 -42 -16 -63 -25 -34 l-7 22 -24 -23 -24
-22 0 47 0 48 -47 -7 -48 -7 24 26 24 25 -29 12 -29 12 38 9 c40 11 44 20 22
58 -21 37 -18 42 15 25 40 -20 40 -20 40 23 l0 37 21 -32 c12 -18 24 -33 27
-33z m4020 2 l25 23 -5 -28 c-5 -27 -4 -28 26 -21 30 6 30 6 15 -12 -30 -35
-30 -43 -2 -58 27 -14 27 -15 5 -16 -20 0 -21 -3 -12 -21 11 -19 9 -20 -24
-13 -34 6 -36 5 -36 -20 0 -27 -14 -35 -24 -13 -5 10 -7 10 -12 0 -11 -24 -24
-13 -24 18 0 31 -1 31 -37 24 -37 -7 -37 -7 -20 13 18 19 18 21 0 30 -16 9
-15 11 10 17 32 8 31 7 11 46 -15 30 -15 30 7 19 22 -12 38 -2 39 25 1 6 8 0
17 -13 l16 -23 25 23z m-262 -789 l22 -28 29 27 29 28 -4 -37 c-4 -28 -1 -35
9 -31 8 3 25 9 39 13 l24 8 -29 -38 c-27 -36 -27 -39 -11 -49 10 -6 25 -16 34
-23 15 -11 15 -12 -5 -13 -25 0 -30 -19 -11 -38 21 -21 0 -25 -41 -9 l-40 16
-7 -47 c-7 -46 -7 -46 -22 -23 l-16 23 -18 -24 -18 -23 0 48 0 49 -52 -7 -53
-7 23 24 c12 13 22 27 22 30 0 3 -10 9 -22 13 -21 6 -20 7 12 17 19 5 36 11
38 13 2 2 -6 21 -18 44 -23 46 -21 47 20 26 l30 -16 0 31 c0 37 8 38 36 3z
m-3523 -572 l22 34 3 -49 3 -48 42 6 c39 7 40 6 24 -12 -22 -24 -21 -32 1 -32
9 0 23 -4 31 -9 10 -6 3 -12 -25 -21 -56 -18 -59 -24 -34 -65 l22 -36 -26 7
c-23 5 -26 3 -26 -21 l0 -27 -27 34 c-15 18 -28 35 -30 37 -2 3 -19 -11 -38
-29 l-35 -34 0 32 c0 30 -1 31 -26 22 l-26 -10 22 34 21 35 -43 22 -43 23 33
7 c44 9 46 12 20 44 l-21 27 21 -6 c12 -3 31 -9 42 -12 17 -4 21 1 26 36 l7
41 19 -32 20 -32 21 34z m3875 -278 l22 21 0 -27 c0 -31 0 -30 35 -17 23 9 25
8 15 -10 -5 -10 -15 -22 -20 -25 -17 -10 -11 -24 17 -38 26 -14 26 -15 5 -21
-20 -7 -21 -9 -6 -32 l16 -24 -40 14 c-44 16 -52 10 -52 -35 0 -23 -16 -25
-24 -2 -6 14 -8 14 -21 -3 -13 -18 -14 -16 -15 20 l0 39 -41 -6 c-40 -5 -40
-5 -23 14 17 18 17 20 -1 33 -17 12 -16 13 8 20 31 7 33 16 11 58 l-17 32 26
-17 c35 -23 37 -22 37 15 l0 32 23 -32 23 -31 22 22z m-641 -1016 c33 6 35 5
25 -14 -13 -23 -7 -33 20 -33 31 0 20 -16 -22 -30 -22 -7 -40 -17 -40 -21 0
-4 9 -24 21 -43 22 -38 20 -43 -12 -26 -17 9 -19 7 -19 -17 l-1 -28 -32 38
-32 37 -28 -35 c-34 -43 -45 -44 -39 -4 4 30 3 32 -23 25 l-28 -7 21 33 21 33
-42 22 -42 21 38 7 c20 4 37 10 37 13 0 3 -10 16 -22 29 -24 25 -19 28 28 14
31 -9 32 -8 38 33 l7 41 17 -27 c21 -35 27 -35 49 3 l18 31 3 -51 3 -50 36 6z
m-2756 -208 l11 -21 24 23 24 22 0 -26 c0 -24 2 -26 25 -17 29 11 31 4 9 -28
-15 -21 -14 -23 16 -36 31 -13 31 -13 9 -19 -23 -6 -23 -6 -3 -28 l19 -21 -42
7 c-43 7 -43 7 -43 -24 0 -31 -14 -42 -23 -18 -3 8 -10 6 -21 -8 -15 -19 -15
-18 -16 18 l0 39 -42 -7 c-41 -7 -42 -6 -26 11 16 16 16 18 1 29 -15 11 -15
13 5 19 27 9 27 19 5 53 -20 30 -23 29 33 6 14 -5 16 -2 10 20 -8 32 8 36 25
6z m1690 -58 l19 24 0 -25 c1 -40 13 -52 46 -44 28 6 28 6 12 -12 -17 -17 -17
-19 10 -29 l27 -12 -37 -12 c-21 -7 -38 -15 -38 -17 0 -3 7 -19 16 -35 15 -30
15 -31 -5 -24 -17 5 -21 2 -21 -15 0 -20 -2 -19 -24 7 l-24 28 -31 -29 -31
-30 0 28 c0 24 -3 27 -21 23 -20 -5 -20 -5 -3 21 16 25 16 27 0 37 -10 5 -25
15 -34 22 -15 11 -14 12 9 13 36 0 42 10 22 33 -18 20 -17 20 13 14 29 -6 32
-4 38 25 l6 32 17 -23 16 -24 18 24z"/>
</g>
</svg>
