<?xml version="1.0" standalone="no"?>
<!DOCTYPE svg PUBLIC "-//W3C//DTD SVG 20010904//EN"
 "http://www.w3.org/TR/2001/REC-SVG-20010904/DTD/svg10.dtd">
<svg version="1.0" xmlns="http://www.w3.org/2000/svg"
 width="400.000000pt" height="400.000000pt" viewBox="0 0 400.000000 400.000000"
 preserveAspectRatio="xMidYMid meet">

<g transform="translate(0.000000,400.000000) scale(0.100000,-0.100000)"
fill="#000000" stroke="none">
<path d="M2340 2534 l0 -246 -51 46 c-27 25 -76 58 -107 73 -51 25 -67 28
-162 28 -97 0 -110 -2 -172 -32 -117 -55 -200 -151 -240 -276 -25 -76 -29
-235 -9 -317 32 -129 128 -253 234 -303 164 -78 333 -52 455 69 l52 53 0 -75
0 -74 105 0 105 0 0 650 0 650 -105 0 -105 0 0 -246z m-155 -312 c97 -50 150
-143 150 -267 0 -132 -50 -222 -153 -272 -180 -88 -373 45 -375 260 -2 149 69
257 193 298 41 14 142 3 185 -19z"/>
<path d="M2988 2445 c-158 -43 -247 -166 -236 -326 11 -143 72 -197 318 -279
l165 -55 3 -33 c3 -27 -1 -34 -25 -43 -34 -13 -136 -5 -201 17 -26 9 -77 31
-114 50 l-68 34 -23 -38 c-13 -20 -41 -66 -62 -101 l-39 -63 24 -21 c35 -29
154 -82 225 -101 83 -22 237 -31 310 -17 33 6 88 25 122 41 112 55 163 143
163 279 0 81 -22 133 -78 183 -55 50 -98 70 -242 117 -135 44 -170 63 -170 90
0 62 123 58 281 -8 40 -17 76 -27 80 -23 13 13 109 192 109 202 0 15 -123 69
-206 90 -90 23 -261 26 -336 5z"/>
<path d="M799 2406 c-160 -45 -292 -178 -335 -341 -16 -59 -18 -182 -3 -244
27 -117 123 -244 227 -299 305 -163 665 17 714 355 34 238 -116 468 -347 528
-70 18 -192 18 -256 1z m263 -143 c70 -31 130 -93 166 -171 23 -49 27 -70 27
-152 0 -84 -3 -102 -29 -157 -59 -129 -176 -199 -316 -191 -236 14 -378 255
-289 493 66 177 263 257 441 178z"/>
</g>
</svg>
