<?xml version="1.0" standalone="no"?>
<!DOCTYPE svg PUBLIC "-//W3C//DTD SVG 20010904//EN"
 "http://www.w3.org/TR/2001/REC-SVG-20010904/DTD/svg10.dtd">
<svg version="1.0" xmlns="http://www.w3.org/2000/svg"
 width="15px" height="15px" viewBox="0 0 458.000000 458.000000"
 preserveAspectRatio="xMidYMid meet">

<g transform="translate(0.000000,458.000000) scale(0.100000,-0.100000)"
fill="rgb(74.901961%,8.627451%,8.627451%)" stroke="none">
<path d="M2110 4459 c-567 -46 -1110 -326 -1472 -759 -305 -364 -483 -810
-506 -1265 -21 -410 50 -763 224 -1110 318 -632 917 -1063 1629 -1171 136 -20
441 -23 575 -5 798 107 1454 617 1749 1359 98 246 145 502 145 792 0 219 -16
350 -66 545 -207 809 -884 1439 -1701 1585 -201 36 -378 45 -577 29z m750
-2019 l0 -720 -120 0 -120 0 0 82 0 81 -62 -61 c-103 -104 -219 -143 -353
-122 -118 19 -196 59 -275 142 -101 106 -144 226 -144 398 0 177 40 286 145
396 103 107 211 149 364 142 111 -5 171 -30 263 -114 l62 -56 0 276 0 276 120
0 120 0 0 -720z m835 340 c44 -11 113 -36 154 -55 59 -28 72 -38 66 -53 -11
-30 -116 -222 -121 -222 -3 0 -26 11 -52 24 -74 37 -181 67 -249 69 -52 2 -66
-2 -84 -19 -28 -29 -18 -59 29 -83 20 -10 91 -35 157 -56 155 -48 220 -81 277
-143 79 -84 97 -195 52 -324 -84 -247 -515 -302 -851 -110 -35 20 -63 40 -63
44 0 9 108 187 125 206 9 10 27 5 91 -27 100 -50 182 -71 276 -71 85 0 116 18
104 63 -7 31 -57 54 -191 91 -143 40 -234 85 -287 145 -52 57 -71 111 -70 201
1 168 111 294 296 336 80 18 237 11 341 -16z m-2390 -35 c181 -47 324 -189
379 -374 9 -32 16 -91 16 -141 0 -145 -51 -271 -151 -376 -282 -293 -777 -168
-893 225 -21 72 -21 221 0 292 55 185 196 325 377 374 70 18 199 19 272 0z"/>
<path d="M2261 2569 c-119 -23 -206 -120 -231 -258 -29 -162 36 -312 165 -379
40 -21 64 -26 126 -26 65 -1 84 3 134 29 110 56 169 165 168 311 0 160 -88
282 -229 319 -64 17 -69 17 -133 4z"/>
<path d="M1082 2620 c-188 -40 -320 -251 -285 -456 24 -139 99 -241 222 -301
49 -25 67 -28 151 -28 83 0 103 4 157 29 197 90 278 349 174 555 -77 151 -253
236 -419 201z"/>
</g>
</svg>
