<?xml version="1.0" standalone="no"?>
<!DOCTYPE svg PUBLIC "-//W3C//DTD SVG 20010904//EN"
 "http://www.w3.org/TR/2001/REC-SVG-20010904/DTD/svg10.dtd">
<svg version="1.0" xmlns="http://www.w3.org/2000/svg"
 width="500.000000pt" height="500.000000pt" viewBox="0 0 500.000000 500.000000"
 preserveAspectRatio="xMidYMid meet">

<g transform="translate(0.000000,500.000000) scale(0.100000,-0.100000)"
fill="#000000" stroke="none">
<path d="M2312 4171 c-100 -175 -182 -321 -182 -325 0 -3 167 -6 370 -6 204 0
370 3 370 6 0 11 -364 644 -370 644 -3 0 -88 -143 -188 -319z"/>
<path d="M3581 3805 c-189 -52 -345 -96 -347 -97 -2 -2 115 -122 260 -267
l262 -262 97 353 c53 194 97 357 97 361 0 12 -13 9 -369 -88z"/>
<path d="M1100 3881 c0 -3 44 -166 97 -363 l98 -358 262 262 c144 144 261 264
259 266 -8 7 -716 199 -716 193z"/>
<path d="M2285 3703 c-505 -91 -908 -499 -990 -1003 -121 -746 451 -1420 1205
-1420 753 0 1325 674 1205 1420 -83 508 -488 916 -1000 1004 -111 20 -311 19
-420 -1z"/>
<path d="M828 2687 c-175 -100 -318 -184 -318 -187 0 -3 143 -87 318 -187
l317 -182 3 185 c1 101 1 267 0 368 l-3 185 -317 -182z"/>
<path d="M3850 2500 l0 -372 33 19 c17 10 161 93 320 183 158 90 287 167 287
170 0 3 -129 80 -287 170 -159 90 -303 173 -320 183 l-33 19 0 -372z"/>
<path d="M1196 1424 c-53 -196 -95 -358 -93 -360 3 -4 708 186 717 193 5 4
-512 523 -521 523 -3 0 -50 -160 -103 -356z"/>
<path d="M3465 1520 c-142 -142 -257 -261 -255 -264 8 -7 704 -196 708 -191 4
4 -171 663 -186 698 -6 14 -57 -33 -267 -243z"/>
<path d="M2147 1118 c10 -18 93 -162 183 -320 90 -159 167 -288 170 -288 3 0
80 129 170 288 90 158 173 302 183 320 l19 32 -372 0 -372 0 19 -32z"/>
</g>
</svg>
